<?xml version="1.0" encoding="utf-8" standalone="no"?>
<!DOCTYPE svg PUBLIC "-//W3C//DTD SVG 1.1//EN"
  "http://www.w3.org/Graphics/SVG/1.1/DTD/svg11.dtd">
<svg xmlns:xlink="http://www.w3.org/1999/xlink" width="460.8pt" height="345.6pt" viewBox="0 0 460.8 345.6" xmlns="http://www.w3.org/2000/svg" version="1.1">
 <metadata>
  <rdf:RDF xmlns:dc="http://purl.org/dc/elements/1.1/" xmlns:cc="http://creativecommons.org/ns#" xmlns:rdf="http://www.w3.org/1999/02/22-rdf-syntax-ns#">
   <cc:Work>
    <dc:type rdf:resource="http://purl.org/dc/dcmitype/StillImage"/>
    <dc:date>2023-11-04T19:49:14.555718</dc:date>
    <dc:format>image/svg+xml</dc:format>
    <dc:creator>
     <cc:Agent>
      <dc:title>Matplotlib v3.8.0, https://matplotlib.org/</dc:title>
     </cc:Agent>
    </dc:creator>
   </cc:Work>
  </rdf:RDF>
 </metadata>
 <defs>
  <style type="text/css">*{stroke-linejoin: round; stroke-linecap: butt}</style>
 </defs>
 <g id="figure_1">
  <g id="patch_1">
   <path d="M 0 345.6 
L 460.8 345.6 
L 460.8 0 
L 0 0 
L 0 345.6 
z
" style="fill: none"/>
  </g>
  <g id="axes_1">
   <g id="patch_2">
    <path d="M 57.6 307.584 
L 414.72 307.584 
L 414.72 41.472 
L 57.6 41.472 
L 57.6 307.584 
z
" style="fill: none"/>
   </g>
   <g id="matplotlib.axis_1">
    <g id="xtick_1">
     <g id="line2d_1">
      <defs>
       <path id="m9608b6b5b8" d="M 0 0 
L 0 3.5 
" style="stroke: #000000; stroke-width: 0.8"/>
      </defs>
      <g>
       <use xlink:href="#m9608b6b5b8" x="57.6" y="307.584" style="stroke: #000000; stroke-width: 0.8"/>
      </g>
     </g>
     <g id="text_1">
      <!-- 0 -->
      <g transform="translate(54.41875 322.182437) scale(0.1 -0.1)">
       <defs>
        <path id="DejaVuSans-30" d="M 2034 4250 
Q 1547 4250 1301 3770 
Q 1056 3291 1056 2328 
Q 1056 1369 1301 889 
Q 1547 409 2034 409 
Q 2525 409 2770 889 
Q 3016 1369 3016 2328 
Q 3016 3291 2770 3770 
Q 2525 4250 2034 4250 
z
M 2034 4750 
Q 2819 4750 3233 4129 
Q 3647 3509 3647 2328 
Q 3647 1150 3233 529 
Q 2819 -91 2034 -91 
Q 1250 -91 836 529 
Q 422 1150 422 2328 
Q 422 3509 836 4129 
Q 1250 4750 2034 4750 
z
" transform="scale(0.015625)"/>
       </defs>
       <use xlink:href="#DejaVuSans-30"/>
      </g>
     </g>
    </g>
    <g id="xtick_2">
     <g id="line2d_2">
      <g>
       <use xlink:href="#m9608b6b5b8" x="129.024" y="307.584" style="stroke: #000000; stroke-width: 0.8"/>
      </g>
     </g>
     <g id="text_2">
      <!-- 1 -->
      <g transform="translate(125.84275 322.182437) scale(0.1 -0.1)">
       <defs>
        <path id="DejaVuSans-31" d="M 794 531 
L 1825 531 
L 1825 4091 
L 703 3866 
L 703 4441 
L 1819 4666 
L 2450 4666 
L 2450 531 
L 3481 531 
L 3481 0 
L 794 0 
L 794 531 
z
" transform="scale(0.015625)"/>
       </defs>
       <use xlink:href="#DejaVuSans-31"/>
      </g>
     </g>
    </g>
    <g id="xtick_3">
     <g id="line2d_3">
      <g>
       <use xlink:href="#m9608b6b5b8" x="200.448" y="307.584" style="stroke: #000000; stroke-width: 0.8"/>
      </g>
     </g>
     <g id="text_3">
      <!-- 2 -->
      <g transform="translate(197.26675 322.182437) scale(0.1 -0.1)">
       <defs>
        <path id="DejaVuSans-32" d="M 1228 531 
L 3431 531 
L 3431 0 
L 469 0 
L 469 531 
Q 828 903 1448 1529 
Q 2069 2156 2228 2338 
Q 2531 2678 2651 2914 
Q 2772 3150 2772 3378 
Q 2772 3750 2511 3984 
Q 2250 4219 1831 4219 
Q 1534 4219 1204 4116 
Q 875 4013 500 3803 
L 500 4441 
Q 881 4594 1212 4672 
Q 1544 4750 1819 4750 
Q 2544 4750 2975 4387 
Q 3406 4025 3406 3419 
Q 3406 3131 3298 2873 
Q 3191 2616 2906 2266 
Q 2828 2175 2409 1742 
Q 1991 1309 1228 531 
z
" transform="scale(0.015625)"/>
       </defs>
       <use xlink:href="#DejaVuSans-32"/>
      </g>
     </g>
    </g>
    <g id="xtick_4">
     <g id="line2d_4">
      <g>
       <use xlink:href="#m9608b6b5b8" x="271.872" y="307.584" style="stroke: #000000; stroke-width: 0.8"/>
      </g>
     </g>
     <g id="text_4">
      <!-- 3 -->
      <g transform="translate(268.69075 322.182437) scale(0.1 -0.1)">
       <defs>
        <path id="DejaVuSans-33" d="M 2597 2516 
Q 3050 2419 3304 2112 
Q 3559 1806 3559 1356 
Q 3559 666 3084 287 
Q 2609 -91 1734 -91 
Q 1441 -91 1130 -33 
Q 819 25 488 141 
L 488 750 
Q 750 597 1062 519 
Q 1375 441 1716 441 
Q 2309 441 2620 675 
Q 2931 909 2931 1356 
Q 2931 1769 2642 2001 
Q 2353 2234 1838 2234 
L 1294 2234 
L 1294 2753 
L 1863 2753 
Q 2328 2753 2575 2939 
Q 2822 3125 2822 3475 
Q 2822 3834 2567 4026 
Q 2313 4219 1838 4219 
Q 1578 4219 1281 4162 
Q 984 4106 628 3988 
L 628 4550 
Q 988 4650 1302 4700 
Q 1616 4750 1894 4750 
Q 2613 4750 3031 4423 
Q 3450 4097 3450 3541 
Q 3450 3153 3228 2886 
Q 3006 2619 2597 2516 
z
" transform="scale(0.015625)"/>
       </defs>
       <use xlink:href="#DejaVuSans-33"/>
      </g>
     </g>
    </g>
    <g id="xtick_5">
     <g id="line2d_5">
      <g>
       <use xlink:href="#m9608b6b5b8" x="343.296" y="307.584" style="stroke: #000000; stroke-width: 0.8"/>
      </g>
     </g>
     <g id="text_5">
      <!-- 4 -->
      <g transform="translate(340.11475 322.182437) scale(0.1 -0.1)">
       <defs>
        <path id="DejaVuSans-34" d="M 2419 4116 
L 825 1625 
L 2419 1625 
L 2419 4116 
z
M 2253 4666 
L 3047 4666 
L 3047 1625 
L 3713 1625 
L 3713 1100 
L 3047 1100 
L 3047 0 
L 2419 0 
L 2419 1100 
L 313 1100 
L 313 1709 
L 2253 4666 
z
" transform="scale(0.015625)"/>
       </defs>
       <use xlink:href="#DejaVuSans-34"/>
      </g>
     </g>
    </g>
    <g id="xtick_6">
     <g id="line2d_6">
      <g>
       <use xlink:href="#m9608b6b5b8" x="414.72" y="307.584" style="stroke: #000000; stroke-width: 0.8"/>
      </g>
     </g>
     <g id="text_6">
      <!-- 5 -->
      <g transform="translate(411.53875 322.182437) scale(0.1 -0.1)">
       <defs>
        <path id="DejaVuSans-35" d="M 691 4666 
L 3169 4666 
L 3169 4134 
L 1269 4134 
L 1269 2991 
Q 1406 3038 1543 3061 
Q 1681 3084 1819 3084 
Q 2600 3084 3056 2656 
Q 3513 2228 3513 1497 
Q 3513 744 3044 326 
Q 2575 -91 1722 -91 
Q 1428 -91 1123 -41 
Q 819 9 494 109 
L 494 744 
Q 775 591 1075 516 
Q 1375 441 1709 441 
Q 2250 441 2565 725 
Q 2881 1009 2881 1497 
Q 2881 1984 2565 2268 
Q 2250 2553 1709 2553 
Q 1456 2553 1204 2497 
Q 953 2441 691 2322 
L 691 4666 
z
" transform="scale(0.015625)"/>
       </defs>
       <use xlink:href="#DejaVuSans-35"/>
      </g>
     </g>
    </g>
    <g id="text_7">
     <!-- $k_B T$ -->
     <g transform="translate(227.66 335.860562) scale(0.1 -0.1)">
      <defs>
       <path id="DejaVuSans-Oblique-6b" d="M 1172 4863 
L 1747 4863 
L 1197 2028 
L 3169 3500 
L 3916 3500 
L 1716 1825 
L 3322 0 
L 2625 0 
L 1131 1709 
L 800 0 
L 225 0 
L 1172 4863 
z
" transform="scale(0.015625)"/>
       <path id="DejaVuSans-Oblique-42" d="M 1081 4666 
L 2694 4666 
Q 3350 4666 3675 4422 
Q 4000 4178 4000 3688 
Q 4000 3238 3720 2911 
Q 3441 2584 2988 2516 
Q 3375 2428 3569 2181 
Q 3763 1934 3763 1522 
Q 3763 819 3242 409 
Q 2722 0 1819 0 
L 172 0 
L 1081 4666 
z
M 1234 2228 
L 903 519 
L 1919 519 
Q 2491 519 2800 781 
Q 3109 1044 3109 1522 
Q 3109 1891 2904 2059 
Q 2700 2228 2247 2228 
L 1234 2228 
z
M 1606 4147 
L 1331 2741 
L 2272 2741 
Q 2775 2741 3058 2959 
Q 3341 3178 3341 3566 
Q 3341 3869 3150 4008 
Q 2959 4147 2541 4147 
L 1606 4147 
z
" transform="scale(0.015625)"/>
       <path id="DejaVuSans-Oblique-54" d="M 378 4666 
L 4325 4666 
L 4225 4134 
L 2559 4134 
L 1759 0 
L 1125 0 
L 1925 4134 
L 275 4134 
L 378 4666 
z
" transform="scale(0.015625)"/>
      </defs>
      <use xlink:href="#DejaVuSans-Oblique-6b" transform="translate(0 0.015625)"/>
      <use xlink:href="#DejaVuSans-Oblique-42" transform="translate(57.910156 -16.390625) scale(0.7)"/>
      <use xlink:href="#DejaVuSans-Oblique-54" transform="translate(108.666992 0.015625)"/>
     </g>
    </g>
   </g>
   <g id="matplotlib.axis_2">
    <g id="ytick_1">
     <g id="line2d_7">
      <defs>
       <path id="m03cbf6b8db" d="M 0 0 
L -3.5 0 
" style="stroke: #000000; stroke-width: 0.8"/>
      </defs>
      <g>
       <use xlink:href="#m03cbf6b8db" x="57.6" y="307.584" style="stroke: #000000; stroke-width: 0.8"/>
      </g>
     </g>
     <g id="text_8">
      <!-- −5 -->
      <g transform="translate(35.857813 311.383219) scale(0.1 -0.1)">
       <defs>
        <path id="DejaVuSans-2212" d="M 678 2272 
L 4684 2272 
L 4684 1741 
L 678 1741 
L 678 2272 
z
" transform="scale(0.015625)"/>
       </defs>
       <use xlink:href="#DejaVuSans-2212"/>
       <use xlink:href="#DejaVuSans-35" x="83.789062"/>
      </g>
     </g>
    </g>
    <g id="ytick_2">
     <g id="line2d_8">
      <g>
       <use xlink:href="#m03cbf6b8db" x="57.6" y="263.232" style="stroke: #000000; stroke-width: 0.8"/>
      </g>
     </g>
     <g id="text_9">
      <!-- −4 -->
      <g transform="translate(35.857813 267.031219) scale(0.1 -0.1)">
       <use xlink:href="#DejaVuSans-2212"/>
       <use xlink:href="#DejaVuSans-34" x="83.789062"/>
      </g>
     </g>
    </g>
    <g id="ytick_3">
     <g id="line2d_9">
      <g>
       <use xlink:href="#m03cbf6b8db" x="57.6" y="218.88" style="stroke: #000000; stroke-width: 0.8"/>
      </g>
     </g>
     <g id="text_10">
      <!-- −3 -->
      <g transform="translate(35.857813 222.679219) scale(0.1 -0.1)">
       <use xlink:href="#DejaVuSans-2212"/>
       <use xlink:href="#DejaVuSans-33" x="83.789062"/>
      </g>
     </g>
    </g>
    <g id="ytick_4">
     <g id="line2d_10">
      <g>
       <use xlink:href="#m03cbf6b8db" x="57.6" y="174.528" style="stroke: #000000; stroke-width: 0.8"/>
      </g>
     </g>
     <g id="text_11">
      <!-- −2 -->
      <g transform="translate(35.857813 178.327219) scale(0.1 -0.1)">
       <use xlink:href="#DejaVuSans-2212"/>
       <use xlink:href="#DejaVuSans-32" x="83.789062"/>
      </g>
     </g>
    </g>
    <g id="ytick_5">
     <g id="line2d_11">
      <g>
       <use xlink:href="#m03cbf6b8db" x="57.6" y="130.176" style="stroke: #000000; stroke-width: 0.8"/>
      </g>
     </g>
     <g id="text_12">
      <!-- −1 -->
      <g transform="translate(35.857813 133.975219) scale(0.1 -0.1)">
       <use xlink:href="#DejaVuSans-2212"/>
       <use xlink:href="#DejaVuSans-31" x="83.789062"/>
      </g>
     </g>
    </g>
    <g id="ytick_6">
     <g id="line2d_12">
      <g>
       <use xlink:href="#m03cbf6b8db" x="57.6" y="85.824" style="stroke: #000000; stroke-width: 0.8"/>
      </g>
     </g>
     <g id="text_13">
      <!-- 0 -->
      <g transform="translate(44.2375 89.623219) scale(0.1 -0.1)">
       <use xlink:href="#DejaVuSans-30"/>
      </g>
     </g>
    </g>
    <g id="ytick_7">
     <g id="line2d_13">
      <g>
       <use xlink:href="#m03cbf6b8db" x="57.6" y="41.472" style="stroke: #000000; stroke-width: 0.8"/>
      </g>
     </g>
     <g id="text_14">
      <!-- 1 -->
      <g transform="translate(44.2375 45.271219) scale(0.1 -0.1)">
       <use xlink:href="#DejaVuSans-31"/>
      </g>
     </g>
    </g>
    <g id="text_15">
     <!-- $\mu$ -->
     <g transform="translate(29.757812 177.728) rotate(-90) scale(0.1 -0.1)">
      <defs>
       <path id="DejaVuSans-Oblique-3bc" d="M -84 -1331 
L 856 3500 
L 1434 3500 
L 1009 1322 
Q 997 1256 987 1175 
Q 978 1094 978 1013 
Q 978 722 1161 565 
Q 1344 409 1684 409 
Q 2147 409 2431 671 
Q 2716 934 2816 1459 
L 3213 3500 
L 3788 3500 
L 3266 809 
Q 3253 750 3248 706 
Q 3244 663 3244 628 
Q 3244 531 3283 486 
Q 3322 441 3406 441 
Q 3438 441 3492 456 
Q 3547 472 3647 513 
L 3559 50 
Q 3422 -19 3297 -55 
Q 3172 -91 3053 -91 
Q 2847 -91 2730 40 
Q 2613 172 2613 403 
Q 2438 153 2195 31 
Q 1953 -91 1625 -91 
Q 1334 -91 1117 43 
Q 900 178 831 397 
L 494 -1331 
L -84 -1331 
z
" transform="scale(0.015625)"/>
      </defs>
      <use xlink:href="#DejaVuSans-Oblique-3bc" transform="translate(0 0.3125)"/>
     </g>
    </g>
   </g>
   <g id="QuadContourSet_1">
    <path d="M 65.583192 85.824 
L 72.176327 89.661092 
L 73.989301 90.349714 
L 78.47291 94.875429 
L 79.46449 96.042014 
L 81.996637 99.401143 
L 85.378895 103.926857 
L 86.752653 105.822541 
L 88.389835 108.452571 
L 91.16399 112.978286 
L 94.040816 117.314838 
L 94.14889 117.504 
L 96.506946 122.029714 
L 99.030864 126.555429 
L 101.32898 130.432254 
L 101.656258 131.081143 
L 103.824503 135.606857 
L 106.136998 140.132571 
L 108.617143 144.641842 
L 108.624842 144.658286 
L 110.630202 149.184 
L 112.756081 153.709714 
L 115.025384 158.235429 
L 115.905306 159.981246 
L 117.089513 162.761143 
L 119.051 167.286857 
L 121.128635 171.812571 
L 123.193469 176.063752 
L 123.307244 176.338286 
L 125.124519 180.864 
L 126.38884 183.856473 
M 135.389028 205.15785 
L 136.624534 208.018286 
L 137.769796 210.614635 
L 138.499119 212.544 
L 140.216619 217.069714 
L 142.014279 221.595429 
L 143.900364 226.121143 
L 145.057959 228.838832 
L 145.720778 230.646857 
L 147.384657 235.172571 
L 149.121313 239.698286 
L 150.937524 244.224 
L 152.346122 247.629081 
L 152.747028 248.749714 
L 154.356608 253.275429 
L 156.032087 257.801143 
L 157.77908 262.326857 
L 159.603515 266.852571 
L 159.634286 266.92997 
L 161.164758 271.378286 
L 162.780056 275.904 
L 164.459681 280.429714 
L 166.208572 284.955429 
L 166.922449 286.787752 
L 167.835562 289.481143 
L 169.392451 294.006857 
L 171.007286 298.532571 
L 172.684221 303.058286 
L 174.210612 307.045924 
L 174.390784 307.584 
" clip-path="url(#p34ba384b97)" style="fill: none; stroke: #440154; stroke-width: 1.5"/>
    <path d="M 95.208303 85.824 
L 101.32898 87.792832 
L 108.617143 89.641057 
L 111.830767 90.349714 
L 115.905306 92.790985 
L 119.653283 94.875429 
L 123.193469 97.440596 
L 126.003209 99.401143 
L 130.481633 103.030388 
L 131.6101 103.926857 
L 136.684152 108.452571 
L 137.769796 109.501665 
L 141.362347 112.978286 
L 145.057959 116.697065 
L 145.855498 117.504 
L 150.046251 122.029714 
L 152.346122 124.577151 
L 154.106697 126.555429 
L 158.009031 131.081143 
L 159.634286 133.014526 
L 161.770275 135.606857 
L 165.442365 140.132571 
L 166.922449 141.994287 
L 168.990605 144.658286 
L 172.468698 149.184 
L 174.210612 151.47621 
L 175.863878 153.709714 
L 179.173124 158.235429 
L 181.498776 161.412526 
L 182.45874 162.761143 
L 185.617988 167.286857 
L 188.786939 171.755227 
L 188.826442 171.812571 
L 191.850614 176.338286 
L 194.924008 180.864 
L 196.075102 182.575709 
L 197.907835 185.389714 
L 200.855131 189.915429 
L 203.363265 193.726286 
L 203.818856 194.441143 
L 206.650473 198.966857 
L 209.529417 203.492571 
L 210.651429 205.267541 
L 212.332216 208.018286 
L 215.100767 212.544 
L 217.91686 217.069714 
L 217.939592 217.106949 
L 220.58493 221.595429 
L 223.29493 226.121143 
L 225.227755 229.327611 
L 225.995859 230.646857 
L 228.60762 235.172571 
L 230.683337 238.711279 
M 242.11393 258.818553 
L 244.059706 262.326857 
L 246.610544 266.852571 
L 247.092245 267.714595 
L 249.06638 271.378286 
L 251.528465 275.904 
L 254.030021 280.429714 
L 254.380408 281.069578 
L 256.431847 284.955429 
L 258.84751 289.481143 
L 261.301252 294.006857 
L 261.668571 294.690081 
L 263.660022 298.532571 
L 266.030646 303.058286 
L 268.437924 307.584 
" clip-path="url(#p34ba384b97)" style="fill: none; stroke: #481769; stroke-width: 1.5"/>
    <path d="M 117.338587 85.824 
L 123.193469 87.331022 
L 130.481633 88.940417 
L 137.769796 90.31893 
L 137.939945 90.349714 
L 145.057959 93.829402 
L 147.359825 94.875429 
L 152.346122 97.885161 
L 154.969736 99.401143 
L 159.634286 102.599846 
L 161.625552 103.926857 
L 166.922449 107.897989 
L 167.676593 108.452571 
L 173.258036 112.978286 
L 174.210612 113.808373 
L 178.480546 117.504 
L 181.498776 120.245242 
L 183.470451 122.029714 
L 188.256319 126.555429 
L 188.786939 127.083224 
L 192.795181 131.081143 
L 196.075102 134.421797 
L 197.233829 135.606857 
L 201.500363 140.132571 
L 203.363265 142.154565 
L 205.651957 144.658286 
L 209.719923 149.184 
L 210.651429 150.249134 
L 213.645864 153.709714 
L 217.545173 158.235429 
L 217.939592 158.706584 
L 221.290829 162.761143 
L 225.042556 167.286857 
L 225.227755 167.516509 
L 228.642833 171.812571 
L 232.262676 176.338286 
L 232.515918 176.662652 
L 235.745187 180.864 
L 239.245368 185.389714 
L 239.804082 186.12597 
L 242.632391 189.915429 
L 246.022782 194.441143 
L 247.092245 195.886377 
L 249.332544 198.966857 
L 252.621351 203.492571 
L 254.380408 205.923756 
L 255.868927 208.018286 
L 259.06314 212.544 
L 261.668571 216.218547 
L 262.261092 217.069714 
L 265.366776 221.595429 
L 268.504545 226.121143 
L 268.956735 226.78233 
L 269.786561 228.019836 
M 282.613903 247.266738 
L 283.533061 248.651676 
L 283.59684 248.749714 
L 286.495016 253.275429 
L 289.423454 257.801143 
L 290.821224 259.966922 
L 292.312934 262.326857 
L 295.16838 266.852571 
L 298.05446 271.378286 
L 298.109388 271.465572 
L 300.843038 275.904 
L 303.658183 280.429714 
L 305.397551 283.221724 
L 306.454775 284.955429 
L 309.202462 289.481143 
L 311.979195 294.006857 
L 312.685714 295.165901 
L 314.693529 298.532571 
L 317.404466 303.058286 
L 319.973878 307.308438 
L 320.136895 307.584 
" clip-path="url(#p34ba384b97)" style="fill: none; stroke: #472d7b; stroke-width: 1.5"/>
    <path d="M 135.892475 85.824 
L 137.769796 86.257006 
L 145.057959 87.821764 
L 152.346122 89.193442 
L 159.228212 90.349714 
L 159.634286 90.533353 
L 166.922449 93.70199 
L 169.803863 94.875429 
L 174.210612 97.272628 
L 178.299675 99.401143 
L 181.498776 101.391991 
L 185.698767 103.926857 
L 188.786939 106.040215 
L 192.391072 108.452571 
L 196.075102 111.162331 
L 198.584608 112.978286 
L 203.363265 116.70059 
L 204.407183 117.504 
L 209.913424 122.029714 
L 210.651429 122.671389 
L 215.142189 126.555429 
L 217.939592 129.068474 
L 220.187364 131.081143 
L 225.078484 135.606857 
L 225.227755 135.751352 
L 229.750552 140.132571 
L 232.515918 142.866242 
L 234.325602 144.658286 
L 238.780465 149.184 
L 239.804082 150.253738 
L 243.096675 153.709714 
L 247.092245 157.945741 
L 247.364163 158.235429 
L 251.479292 162.761143 
L 254.380408 165.974382 
L 255.557483 167.286857 
L 259.533382 171.812571 
L 261.668571 174.26882 
L 263.452882 176.338286 
L 267.304962 180.864 
L 268.956735 182.828377 
L 271.090353 185.389714 
L 274.830527 189.915429 
L 276.244898 191.647785 
L 278.501982 194.441143 
L 282.139748 198.966857 
L 283.533061 200.718992 
L 285.714098 203.492571 
L 289.257232 208.018286 
L 290.821224 210.032301 
L 292.748697 212.544 
L 296.203711 217.069714 
L 298.109388 219.577114 
L 298.481706 220.073114 
M 312.219895 238.680753 
L 312.685714 239.317134 
L 312.961037 239.698286 
L 316.182272 244.224 
L 319.427978 248.749714 
L 319.973878 249.519605 
L 322.599403 253.275429 
L 325.774879 257.801143 
L 327.262041 259.929198 
L 328.913614 262.326857 
L 332.022194 266.852571 
L 334.550204 270.519126 
L 335.133994 271.378286 
L 338.178722 275.904 
L 341.247667 280.429714 
L 341.838367 281.308594 
L 344.252312 284.955429 
L 347.259398 289.481143 
L 349.126531 292.290408 
L 350.249991 294.006857 
L 353.197805 298.532571 
L 356.1695 303.058286 
L 356.414694 303.43548 
L 359.069026 307.584 
" clip-path="url(#p34ba384b97)" style="fill: none; stroke: #424186; stroke-width: 1.5"/>
    <path d="M 181.927576 85.824 
L 188.786939 87.035385 
L 196.075102 88.218572 
L 203.363265 89.309095 
L 210.651429 90.31986 
L 210.871847 90.349714 
L 217.939592 92.891906 
L 223.811124 94.875429 
L 225.227755 95.517609 
L 232.515918 98.720197 
L 234.11591 99.401143 
L 239.804082 102.318628 
L 243.038669 103.926857 
L 247.092245 106.233752 
L 251.086927 108.452571 
L 254.380408 110.483226 
L 258.506645 112.978286 
L 261.668571 115.057725 
L 265.447699 117.504 
L 268.956735 119.938605 
L 272.010168 122.029714 
L 276.244898 125.104305 
L 278.265169 126.555429 
L 283.533061 130.532967 
L 284.265552 131.081143 
L 290.030715 135.606857 
L 290.821224 136.253568 
L 295.589643 140.132571 
L 298.109388 142.249519 
L 300.989533 144.658286 
L 305.397551 148.451211 
L 306.252237 149.184 
L 311.361041 153.709714 
L 312.685714 154.914848 
L 316.341605 158.235429 
L 319.973878 161.598636 
L 321.230652 162.761143 
L 326.006876 167.286857 
L 327.262041 168.502325 
L 330.678869 171.812571 
L 334.550204 175.612238 
L 335.289314 176.338286 
L 339.79331 180.864 
L 341.838367 182.947338 
L 344.231139 185.389714 
L 348.615197 189.915429 
L 349.126531 190.453943 
L 352.901401 194.441143 
L 356.414694 198.17441 
L 357.158123 198.966857 
L 361.329658 203.492571 
L 363.702857 206.08757 
L 365.461703 208.018286 
L 365.850835 208.450068 
M 381.175199 225.774479 
L 381.475266 226.121143 
L 385.3886 230.646857 
L 385.567347 230.856857 
L 389.220129 235.172571 
L 392.85551 239.462866 
L 393.05387 239.698286 
L 396.809745 244.224 
L 400.143673 248.236362 
L 400.567645 248.749714 
L 404.256381 253.275429 
L 407.431837 257.167251 
L 407.945726 257.801143 
L 411.570884 262.326857 
L 414.72 266.252426 
" clip-path="url(#p34ba384b97)" style="fill: none; stroke: #2a778e; stroke-width: 1.5"/>
    <path d="M 232.376708 85.824 
L 232.515918 85.845067 
L 239.804082 86.923324 
L 247.092245 87.935988 
L 254.380408 88.890164 
L 261.668571 89.791937 
L 266.364576 90.349714 
L 268.956735 91.160257 
L 276.244898 93.370455 
L 281.425251 94.875429 
L 283.533061 95.697716 
L 290.821224 98.46654 
L 293.351632 99.401143 
L 298.109388 101.524073 
L 303.657113 103.926857 
L 305.397551 104.792648 
L 312.685714 108.336315 
L 312.928576 108.452571 
L 319.973878 112.212525 
L 321.437512 112.978286 
L 327.262041 116.308277 
L 329.388876 117.504 
L 334.550204 120.629657 
L 336.895488 122.029714 
L 341.838367 125.173966 
L 344.037104 126.555429 
L 349.126531 129.934197 
L 350.872806 131.081143 
L 356.414694 134.901246 
L 357.447945 135.606857 
L 363.702857 140.065088 
L 363.798312 140.132571 
L 369.93232 144.658286 
L 370.99102 145.466636 
L 375.889306 149.184 
L 378.279184 151.053908 
L 381.691459 153.709714 
L 385.567347 156.810891 
L 387.355922 158.235429 
L 392.85551 162.727125 
L 392.897326 162.761143 
L 398.293207 167.286857 
L 400.143673 168.871434 
L 402.79619 171.136682 
" clip-path="url(#p34ba384b97)" style="fill: none; stroke: #35b779; stroke-width: 1.5"/>
    <path d="M 286.610022 85.824 
L 290.821224 86.370714 
L 298.109388 87.284362 
L 305.397551 88.156022 
L 312.685714 88.989182 
L 319.973878 89.786947 
L 325.293877 90.349714 
L 327.262041 90.893683 
L 334.550204 92.865337 
L 341.838367 94.756215 
L 342.30455 94.875429 
L 349.126531 97.21655 
L 349.855347 97.457788 
M 377.297434 108.291627 
L 377.669876 108.452571 
L 378.279184 108.746629 
L 385.567347 112.216807 
L 387.194318 112.978286 
L 392.85551 115.880045 
L 396.077141 117.504 
L 400.143673 119.717371 
L 404.454371 122.029714 
L 407.431837 123.736005 
L 412.415161 126.555429 
L 414.72 127.936975 
" clip-path="url(#p34ba384b97)" style="fill: none; stroke: #fde725; stroke-width: 1.5"/>
   </g>
   <g id="line2d_14">
    <defs>
     <path id="m47fb155b4e" d="M 0 -5 
L -1.12257 -1.545085 
L -4.755283 -1.545085 
L -1.816356 0.59017 
L -2.938926 4.045085 
L -0 1.90983 
L 2.938926 4.045085 
L 1.816356 0.59017 
L 4.755283 -1.545085 
L 1.12257 -1.545085 
z
" style="stroke: #ff0000; stroke-linejoin: bevel"/>
    </defs>
    <g clip-path="url(#p34ba384b97)">
     <use xlink:href="#m47fb155b4e" x="65.712483" y="85.824" style="fill: #ff0000; stroke: #ff0000; stroke-linejoin: bevel"/>
     <use xlink:href="#m47fb155b4e" x="95.254809" y="85.824" style="fill: #ff0000; stroke: #ff0000; stroke-linejoin: bevel"/>
     <use xlink:href="#m47fb155b4e" x="117.373284" y="85.824" style="fill: #ff0000; stroke: #ff0000; stroke-linejoin: bevel"/>
     <use xlink:href="#m47fb155b4e" x="135.925159" y="85.824" style="fill: #ff0000; stroke: #ff0000; stroke-linejoin: bevel"/>
     <use xlink:href="#m47fb155b4e" x="181.93344" y="85.824" style="fill: #ff0000; stroke: #ff0000; stroke-linejoin: bevel"/>
     <use xlink:href="#m47fb155b4e" x="232.378142" y="85.824" style="fill: #ff0000; stroke: #ff0000; stroke-linejoin: bevel"/>
     <use xlink:href="#m47fb155b4e" x="286.624155" y="85.824" style="fill: #ff0000; stroke: #ff0000; stroke-linejoin: bevel"/>
    </g>
   </g>
   <g id="line2d_15">
    <path d="M 57.6 85.824 
L 414.72 85.824 
" clip-path="url(#p34ba384b97)" style="fill: none; stroke: #000000; stroke-linecap: square"/>
   </g>
   <g id="patch_3">
    <path d="M 57.6 307.584 
L 57.6 41.472 
" style="fill: none; stroke: #000000; stroke-width: 0.8; stroke-linejoin: miter; stroke-linecap: square"/>
   </g>
   <g id="patch_4">
    <path d="M 414.72 307.584 
L 414.72 41.472 
" style="fill: none; stroke: #000000; stroke-width: 0.8; stroke-linejoin: miter; stroke-linecap: square"/>
   </g>
   <g id="patch_5">
    <path d="M 57.6 307.584 
L 414.72 307.584 
" style="fill: none; stroke: #000000; stroke-width: 0.8; stroke-linejoin: miter; stroke-linecap: square"/>
   </g>
   <g id="patch_6">
    <path d="M 57.6 41.472 
L 414.72 41.472 
" style="fill: none; stroke: #000000; stroke-width: 0.8; stroke-linejoin: miter; stroke-linecap: square"/>
   </g>
   <g id="text_16">
    <!-- contour plot of $n(T, \mu)/\left(\frac{m}{2\pi\hbar^2}\right)^{3/2}$ for free Boson -->
    <g transform="translate(101.4 35.232) scale(0.12 -0.12)">
     <defs>
      <path id="DejaVuSans-63" d="M 3122 3366 
L 3122 2828 
Q 2878 2963 2633 3030 
Q 2388 3097 2138 3097 
Q 1578 3097 1268 2742 
Q 959 2388 959 1747 
Q 959 1106 1268 751 
Q 1578 397 2138 397 
Q 2388 397 2633 464 
Q 2878 531 3122 666 
L 3122 134 
Q 2881 22 2623 -34 
Q 2366 -91 2075 -91 
Q 1284 -91 818 406 
Q 353 903 353 1747 
Q 353 2603 823 3093 
Q 1294 3584 2113 3584 
Q 2378 3584 2631 3529 
Q 2884 3475 3122 3366 
z
" transform="scale(0.015625)"/>
      <path id="DejaVuSans-6f" d="M 1959 3097 
Q 1497 3097 1228 2736 
Q 959 2375 959 1747 
Q 959 1119 1226 758 
Q 1494 397 1959 397 
Q 2419 397 2687 759 
Q 2956 1122 2956 1747 
Q 2956 2369 2687 2733 
Q 2419 3097 1959 3097 
z
M 1959 3584 
Q 2709 3584 3137 3096 
Q 3566 2609 3566 1747 
Q 3566 888 3137 398 
Q 2709 -91 1959 -91 
Q 1206 -91 779 398 
Q 353 888 353 1747 
Q 353 2609 779 3096 
Q 1206 3584 1959 3584 
z
" transform="scale(0.015625)"/>
      <path id="DejaVuSans-6e" d="M 3513 2113 
L 3513 0 
L 2938 0 
L 2938 2094 
Q 2938 2591 2744 2837 
Q 2550 3084 2163 3084 
Q 1697 3084 1428 2787 
Q 1159 2491 1159 1978 
L 1159 0 
L 581 0 
L 581 3500 
L 1159 3500 
L 1159 2956 
Q 1366 3272 1645 3428 
Q 1925 3584 2291 3584 
Q 2894 3584 3203 3211 
Q 3513 2838 3513 2113 
z
" transform="scale(0.015625)"/>
      <path id="DejaVuSans-74" d="M 1172 4494 
L 1172 3500 
L 2356 3500 
L 2356 3053 
L 1172 3053 
L 1172 1153 
Q 1172 725 1289 603 
Q 1406 481 1766 481 
L 2356 481 
L 2356 0 
L 1766 0 
Q 1100 0 847 248 
Q 594 497 594 1153 
L 594 3053 
L 172 3053 
L 172 3500 
L 594 3500 
L 594 4494 
L 1172 4494 
z
" transform="scale(0.015625)"/>
      <path id="DejaVuSans-75" d="M 544 1381 
L 544 3500 
L 1119 3500 
L 1119 1403 
Q 1119 906 1312 657 
Q 1506 409 1894 409 
Q 2359 409 2629 706 
Q 2900 1003 2900 1516 
L 2900 3500 
L 3475 3500 
L 3475 0 
L 2900 0 
L 2900 538 
Q 2691 219 2414 64 
Q 2138 -91 1772 -91 
Q 1169 -91 856 284 
Q 544 659 544 1381 
z
M 1991 3584 
L 1991 3584 
z
" transform="scale(0.015625)"/>
      <path id="DejaVuSans-72" d="M 2631 2963 
Q 2534 3019 2420 3045 
Q 2306 3072 2169 3072 
Q 1681 3072 1420 2755 
Q 1159 2438 1159 1844 
L 1159 0 
L 581 0 
L 581 3500 
L 1159 3500 
L 1159 2956 
Q 1341 3275 1631 3429 
Q 1922 3584 2338 3584 
Q 2397 3584 2469 3576 
Q 2541 3569 2628 3553 
L 2631 2963 
z
" transform="scale(0.015625)"/>
      <path id="DejaVuSans-20" transform="scale(0.015625)"/>
      <path id="DejaVuSans-70" d="M 1159 525 
L 1159 -1331 
L 581 -1331 
L 581 3500 
L 1159 3500 
L 1159 2969 
Q 1341 3281 1617 3432 
Q 1894 3584 2278 3584 
Q 2916 3584 3314 3078 
Q 3713 2572 3713 1747 
Q 3713 922 3314 415 
Q 2916 -91 2278 -91 
Q 1894 -91 1617 61 
Q 1341 213 1159 525 
z
M 3116 1747 
Q 3116 2381 2855 2742 
Q 2594 3103 2138 3103 
Q 1681 3103 1420 2742 
Q 1159 2381 1159 1747 
Q 1159 1113 1420 752 
Q 1681 391 2138 391 
Q 2594 391 2855 752 
Q 3116 1113 3116 1747 
z
" transform="scale(0.015625)"/>
      <path id="DejaVuSans-6c" d="M 603 4863 
L 1178 4863 
L 1178 0 
L 603 0 
L 603 4863 
z
" transform="scale(0.015625)"/>
      <path id="DejaVuSans-66" d="M 2375 4863 
L 2375 4384 
L 1825 4384 
Q 1516 4384 1395 4259 
Q 1275 4134 1275 3809 
L 1275 3500 
L 2222 3500 
L 2222 3053 
L 1275 3053 
L 1275 0 
L 697 0 
L 697 3053 
L 147 3053 
L 147 3500 
L 697 3500 
L 697 3744 
Q 697 4328 969 4595 
Q 1241 4863 1831 4863 
L 2375 4863 
z
" transform="scale(0.015625)"/>
      <path id="DejaVuSans-Oblique-6e" d="M 3566 2113 
L 3156 0 
L 2578 0 
L 2988 2091 
Q 3016 2238 3031 2350 
Q 3047 2463 3047 2528 
Q 3047 2791 2881 2937 
Q 2716 3084 2419 3084 
Q 1956 3084 1622 2776 
Q 1288 2469 1184 1941 
L 800 0 
L 225 0 
L 903 3500 
L 1478 3500 
L 1363 2950 
Q 1603 3253 1940 3418 
Q 2278 3584 2650 3584 
Q 3113 3584 3367 3334 
Q 3622 3084 3622 2631 
Q 3622 2519 3608 2391 
Q 3594 2263 3566 2113 
z
" transform="scale(0.015625)"/>
      <path id="DejaVuSans-28" d="M 1984 4856 
Q 1566 4138 1362 3434 
Q 1159 2731 1159 2009 
Q 1159 1288 1364 580 
Q 1569 -128 1984 -844 
L 1484 -844 
Q 1016 -109 783 600 
Q 550 1309 550 2009 
Q 550 2706 781 3412 
Q 1013 4119 1484 4856 
L 1984 4856 
z
" transform="scale(0.015625)"/>
      <path id="DejaVuSans-2c" d="M 750 794 
L 1409 794 
L 1409 256 
L 897 -744 
L 494 -744 
L 750 256 
L 750 794 
z
" transform="scale(0.015625)"/>
      <path id="DejaVuSans-29" d="M 513 4856 
L 1013 4856 
Q 1481 4119 1714 3412 
Q 1947 2706 1947 2009 
Q 1947 1309 1714 600 
Q 1481 -109 1013 -844 
L 513 -844 
Q 928 -128 1133 580 
Q 1338 1288 1338 2009 
Q 1338 2731 1133 3434 
Q 928 4138 513 4856 
z
" transform="scale(0.015625)"/>
      <path id="DejaVuSans-2f" d="M 1625 4666 
L 2156 4666 
L 531 -594 
L 0 -594 
L 1625 4666 
z
" transform="scale(0.015625)"/>
      <path id="STIXSizeTwoSym-Regular-28" d="M 3219 -1555 
L 3219 -1786 
Q 2144 -774 1517 730 
Q 890 2234 890 4115 
Q 890 6003 1533 7593 
Q 2176 9184 3219 10022 
L 3219 9811 
Q 2490 9062 1994 7606 
Q 1498 6150 1498 4115 
Q 1498 563 3219 -1555 
z
" transform="scale(0.015625)"/>
      <path id="DejaVuSans-Oblique-6d" d="M 5747 2113 
L 5338 0 
L 4763 0 
L 5166 2094 
Q 5191 2228 5203 2325 
Q 5216 2422 5216 2491 
Q 5216 2772 5059 2928 
Q 4903 3084 4622 3084 
Q 4203 3084 3875 2770 
Q 3547 2456 3450 1953 
L 3066 0 
L 2491 0 
L 2900 2094 
Q 2925 2209 2937 2307 
Q 2950 2406 2950 2484 
Q 2950 2769 2794 2926 
Q 2638 3084 2363 3084 
Q 1938 3084 1609 2770 
Q 1281 2456 1184 1953 
L 800 0 
L 225 0 
L 909 3500 
L 1484 3500 
L 1375 2956 
Q 1609 3263 1923 3423 
Q 2238 3584 2597 3584 
Q 2978 3584 3223 3384 
Q 3469 3184 3519 2828 
Q 3781 3197 4126 3390 
Q 4472 3584 4856 3584 
Q 5306 3584 5551 3325 
Q 5797 3066 5797 2591 
Q 5797 2488 5784 2364 
Q 5772 2241 5747 2113 
z
" transform="scale(0.015625)"/>
      <path id="DejaVuSans-Oblique-3c0" d="M 584 3500 
L 3938 3500 
L 3825 2925 
L 3384 2925 
L 2966 775 
Q 2922 550 2981 450 
Q 3038 353 3209 353 
Q 3256 353 3325 363 
Q 3397 369 3419 372 
L 3338 -44 
Q 3222 -84 3103 -103 
Q 2981 -122 2866 -122 
Q 2491 -122 2388 81 
Q 2284 288 2391 838 
L 2797 2925 
L 1506 2925 
L 938 0 
L 350 0 
L 919 2925 
L 472 2925 
L 584 3500 
z
" transform="scale(0.015625)"/>
      <path id="DejaVuSans-Oblique-127" d="M 3634 2113 
L 3225 0 
L 2650 0 
L 3056 2094 
Q 3094 2291 3094 2450 
Q 3094 2688 3006 2838 
Q 2863 3084 2475 3084 
Q 2009 3084 1681 2788 
Q 1356 2491 1256 1978 
L 872 0 
L 294 0 
L 1066 3969 
L 675 3969 
L 775 4481 
L 1166 4481 
L 1238 4863 
L 1816 4863 
L 1744 4481 
L 2844 4481 
L 2744 3969 
L 1644 3969 
L 1447 2956 
Q 1713 3272 2025 3428 
Q 2331 3584 2700 3584 
Q 3300 3584 3538 3213 
Q 3688 2975 3688 2606 
Q 3688 2381 3634 2113 
z
" transform="scale(0.015625)"/>
      <path id="STIXSizeTwoSym-Regular-29" d="M 730 9792 
L 730 10022 
Q 1805 9011 2432 7507 
Q 3059 6003 3059 4115 
Q 3059 2234 2416 643 
Q 1773 -947 730 -1786 
L 730 -1574 
Q 1459 -826 1955 633 
Q 2451 2093 2451 4115 
Q 2451 7674 730 9792 
z
" transform="scale(0.015625)"/>
      <path id="DejaVuSans-65" d="M 3597 1894 
L 3597 1613 
L 953 1613 
Q 991 1019 1311 708 
Q 1631 397 2203 397 
Q 2534 397 2845 478 
Q 3156 559 3463 722 
L 3463 178 
Q 3153 47 2828 -22 
Q 2503 -91 2169 -91 
Q 1331 -91 842 396 
Q 353 884 353 1716 
Q 353 2575 817 3079 
Q 1281 3584 2069 3584 
Q 2775 3584 3186 3129 
Q 3597 2675 3597 1894 
z
M 3022 2063 
Q 3016 2534 2758 2815 
Q 2500 3097 2075 3097 
Q 1594 3097 1305 2825 
Q 1016 2553 972 2059 
L 3022 2063 
z
" transform="scale(0.015625)"/>
      <path id="DejaVuSans-42" d="M 1259 2228 
L 1259 519 
L 2272 519 
Q 2781 519 3026 730 
Q 3272 941 3272 1375 
Q 3272 1813 3026 2020 
Q 2781 2228 2272 2228 
L 1259 2228 
z
M 1259 4147 
L 1259 2741 
L 2194 2741 
Q 2656 2741 2882 2914 
Q 3109 3088 3109 3444 
Q 3109 3797 2882 3972 
Q 2656 4147 2194 4147 
L 1259 4147 
z
M 628 4666 
L 2241 4666 
Q 2963 4666 3353 4366 
Q 3744 4066 3744 3513 
Q 3744 3084 3544 2831 
Q 3344 2578 2956 2516 
Q 3422 2416 3680 2098 
Q 3938 1781 3938 1306 
Q 3938 681 3513 340 
Q 3088 0 2303 0 
L 628 0 
L 628 4666 
z
" transform="scale(0.015625)"/>
      <path id="DejaVuSans-73" d="M 2834 3397 
L 2834 2853 
Q 2591 2978 2328 3040 
Q 2066 3103 1784 3103 
Q 1356 3103 1142 2972 
Q 928 2841 928 2578 
Q 928 2378 1081 2264 
Q 1234 2150 1697 2047 
L 1894 2003 
Q 2506 1872 2764 1633 
Q 3022 1394 3022 966 
Q 3022 478 2636 193 
Q 2250 -91 1575 -91 
Q 1294 -91 989 -36 
Q 684 19 347 128 
L 347 722 
Q 666 556 975 473 
Q 1284 391 1588 391 
Q 1994 391 2212 530 
Q 2431 669 2431 922 
Q 2431 1156 2273 1281 
Q 2116 1406 1581 1522 
L 1381 1569 
Q 847 1681 609 1914 
Q 372 2147 372 2553 
Q 372 3047 722 3315 
Q 1072 3584 1716 3584 
Q 2034 3584 2315 3537 
Q 2597 3491 2834 3397 
z
" transform="scale(0.015625)"/>
     </defs>
     <use xlink:href="#DejaVuSans-63" transform="translate(0 0.765625)"/>
     <use xlink:href="#DejaVuSans-6f" transform="translate(54.980469 0.765625)"/>
     <use xlink:href="#DejaVuSans-6e" transform="translate(116.162109 0.765625)"/>
     <use xlink:href="#DejaVuSans-74" transform="translate(179.541016 0.765625)"/>
     <use xlink:href="#DejaVuSans-6f" transform="translate(218.75 0.765625)"/>
     <use xlink:href="#DejaVuSans-75" transform="translate(279.931641 0.765625)"/>
     <use xlink:href="#DejaVuSans-72" transform="translate(343.310547 0.765625)"/>
     <use xlink:href="#DejaVuSans-20" transform="translate(384.423828 0.765625)"/>
     <use xlink:href="#DejaVuSans-70" transform="translate(416.210938 0.765625)"/>
     <use xlink:href="#DejaVuSans-6c" transform="translate(479.6875 0.765625)"/>
     <use xlink:href="#DejaVuSans-6f" transform="translate(507.470703 0.765625)"/>
     <use xlink:href="#DejaVuSans-74" transform="translate(568.652344 0.765625)"/>
     <use xlink:href="#DejaVuSans-20" transform="translate(607.861328 0.765625)"/>
     <use xlink:href="#DejaVuSans-6f" transform="translate(639.648438 0.765625)"/>
     <use xlink:href="#DejaVuSans-66" transform="translate(700.830078 0.765625)"/>
     <use xlink:href="#DejaVuSans-20" transform="translate(736.035156 0.765625)"/>
     <use xlink:href="#DejaVuSans-Oblique-6e" transform="translate(767.822266 0.765625)"/>
     <use xlink:href="#DejaVuSans-28" transform="translate(831.201172 0.765625)"/>
     <use xlink:href="#DejaVuSans-Oblique-54" transform="translate(870.214844 0.765625)"/>
     <use xlink:href="#DejaVuSans-2c" transform="translate(931.298828 0.765625)"/>
     <use xlink:href="#DejaVuSans-Oblique-3bc" transform="translate(982.568359 0.765625)"/>
     <use xlink:href="#DejaVuSans-29" transform="translate(1046.191406 0.765625)"/>
     <use xlink:href="#DejaVuSans-2f" transform="translate(1085.205078 0.765625)"/>
     <use xlink:href="#STIXSizeTwoSym-Regular-28" transform="translate(1118.896484 -30.779687) scale(0.731428)"/>
     <use xlink:href="#DejaVuSans-Oblique-6d" transform="translate(1214.976303 44.5625) scale(0.7)"/>
     <use xlink:href="#DejaVuSans-32" transform="translate(1161.976303 -49.851562) scale(0.7)"/>
     <use xlink:href="#DejaVuSans-Oblique-3c0" transform="translate(1206.512436 -49.851562) scale(0.7)"/>
     <use xlink:href="#DejaVuSans-Oblique-127" transform="translate(1248.655991 -49.851562) scale(0.7)"/>
     <use xlink:href="#DejaVuSans-32" transform="translate(1302.507082 -23.054688) scale(0.49)"/>
     <use xlink:href="#STIXSizeTwoSym-Regular-29" transform="translate(1348.096437 -30.779687) scale(0.731428)"/>
     <use xlink:href="#DejaVuSans-33" transform="translate(1393.522966 39.046875) scale(0.7)"/>
     <use xlink:href="#DejaVuSans-2f" transform="translate(1438.059099 39.046875) scale(0.7)"/>
     <use xlink:href="#DejaVuSans-32" transform="translate(1459.105583 39.046875) scale(0.7)"/>
     <use xlink:href="#DejaVuSans-20" transform="translate(1506.376091 0.765625)"/>
     <use xlink:href="#DejaVuSans-66" transform="translate(1538.163201 0.765625)"/>
     <use xlink:href="#DejaVuSans-6f" transform="translate(1573.368279 0.765625)"/>
     <use xlink:href="#DejaVuSans-72" transform="translate(1634.549919 0.765625)"/>
     <use xlink:href="#DejaVuSans-20" transform="translate(1675.663201 0.765625)"/>
     <use xlink:href="#DejaVuSans-66" transform="translate(1707.45031 0.765625)"/>
     <use xlink:href="#DejaVuSans-72" transform="translate(1742.655388 0.765625)"/>
     <use xlink:href="#DejaVuSans-65" transform="translate(1783.768669 0.765625)"/>
     <use xlink:href="#DejaVuSans-65" transform="translate(1845.292107 0.765625)"/>
     <use xlink:href="#DejaVuSans-20" transform="translate(1906.815544 0.765625)"/>
     <use xlink:href="#DejaVuSans-42" transform="translate(1938.602654 0.765625)"/>
     <use xlink:href="#DejaVuSans-6f" transform="translate(2007.206169 0.765625)"/>
     <use xlink:href="#DejaVuSans-73" transform="translate(2068.38781 0.765625)"/>
     <use xlink:href="#DejaVuSans-6f" transform="translate(2120.487419 0.765625)"/>
     <use xlink:href="#DejaVuSans-6e" transform="translate(2181.66906 0.765625)"/>
     <path d="M 1161.976303 19.5625 
L 1161.976303 25.8125 
L 1335.596437 25.8125 
L 1335.596437 19.5625 
L 1161.976303 19.5625 
z
"/>
    </g>
   </g>
   <g id="text_17">
    <g clip-path="url(#p34ba384b97)">
     <!-- 0.1 -->
     <g style="fill: #440154" transform="translate(125.420787 188.178307) rotate(-292.780802) scale(0.1 -0.1)">
      <defs>
       <path id="DejaVuSans-2e" d="M 684 794 
L 1344 794 
L 1344 0 
L 684 0 
L 684 794 
z
" transform="scale(0.015625)"/>
      </defs>
      <use xlink:href="#DejaVuSans-30"/>
      <use xlink:href="#DejaVuSans-2e" x="63.623047"/>
      <use xlink:href="#DejaVuSans-31" x="95.410156"/>
     </g>
    </g>
   </g>
   <g id="text_18">
    <g clip-path="url(#p34ba384b97)">
     <!-- 1.0 -->
     <g style="fill: #481769" transform="translate(230.09819 243.199315) rotate(-299.604285) scale(0.1 -0.1)">
      <use xlink:href="#DejaVuSans-31"/>
      <use xlink:href="#DejaVuSans-2e" x="63.623047"/>
      <use xlink:href="#DejaVuSans-30" x="95.410156"/>
     </g>
    </g>
   </g>
   <g id="text_19">
    <g clip-path="url(#p34ba384b97)">
     <!-- 2.0 -->
     <g style="fill: #472d7b" transform="translate(269.540379 232.525216) rotate(-303.665814) scale(0.1 -0.1)">
      <use xlink:href="#DejaVuSans-32"/>
      <use xlink:href="#DejaVuSans-2e" x="63.623047"/>
      <use xlink:href="#DejaVuSans-30" x="95.410156"/>
     </g>
    </g>
   </g>
   <g id="text_20">
    <g clip-path="url(#p34ba384b97)">
     <!-- 3.0 -->
     <g style="fill: #424186" transform="translate(298.457057 224.581011) rotate(-306.410621) scale(0.1 -0.1)">
      <use xlink:href="#DejaVuSans-33"/>
      <use xlink:href="#DejaVuSans-2e" x="63.623047"/>
      <use xlink:href="#DejaVuSans-30" x="95.410156"/>
     </g>
    </g>
   </g>
   <g id="text_21">
    <g clip-path="url(#p34ba384b97)">
     <!-- 6.0 -->
     <g style="fill: #2a778e" transform="translate(366.224678 212.944488) rotate(-311.513468) scale(0.1 -0.1)">
      <defs>
       <path id="DejaVuSans-36" d="M 2113 2584 
Q 1688 2584 1439 2293 
Q 1191 2003 1191 1497 
Q 1191 994 1439 701 
Q 1688 409 2113 409 
Q 2538 409 2786 701 
Q 3034 994 3034 1497 
Q 3034 2003 2786 2293 
Q 2538 2584 2113 2584 
z
M 3366 4563 
L 3366 3988 
Q 3128 4100 2886 4159 
Q 2644 4219 2406 4219 
Q 1781 4219 1451 3797 
Q 1122 3375 1075 2522 
Q 1259 2794 1537 2939 
Q 1816 3084 2150 3084 
Q 2853 3084 3261 2657 
Q 3669 2231 3669 1497 
Q 3669 778 3244 343 
Q 2819 -91 2113 -91 
Q 1303 -91 875 529 
Q 447 1150 447 2328 
Q 447 3434 972 4092 
Q 1497 4750 2381 4750 
Q 2619 4750 2861 4703 
Q 3103 4656 3366 4563 
z
" transform="scale(0.015625)"/>
      </defs>
      <use xlink:href="#DejaVuSans-36"/>
      <use xlink:href="#DejaVuSans-2e" x="63.623047"/>
      <use xlink:href="#DejaVuSans-30" x="95.410156"/>
     </g>
    </g>
   </g>
   <g id="text_22">
    <g clip-path="url(#p34ba384b97)">
     <!-- 10.0 -->
     <g style="fill: #35b779" transform="translate(403.722683 175.569158) rotate(-318.586379) scale(0.1 -0.1)">
      <use xlink:href="#DejaVuSans-31"/>
      <use xlink:href="#DejaVuSans-30" x="63.623047"/>
      <use xlink:href="#DejaVuSans-2e" x="127.246094"/>
      <use xlink:href="#DejaVuSans-30" x="159.033203"/>
     </g>
    </g>
   </g>
   <g id="text_23">
    <g clip-path="url(#p34ba384b97)">
     <!-- 15.0 -->
     <g style="fill: #fde725" transform="translate(352.340621 100.984158) rotate(-338.23045) scale(0.1 -0.1)">
      <use xlink:href="#DejaVuSans-31"/>
      <use xlink:href="#DejaVuSans-35" x="63.623047"/>
      <use xlink:href="#DejaVuSans-2e" x="127.246094"/>
      <use xlink:href="#DejaVuSans-30" x="159.033203"/>
     </g>
    </g>
   </g>
   <g id="legend_1">
    <g id="line2d_16">
     <g>
      <use xlink:href="#m47fb155b4e" x="76.6" y="293.004312" style="fill: #ff0000; stroke: #ff0000; stroke-linejoin: bevel"/>
     </g>
    </g>
    <g id="text_24">
     <!-- $T_C$ -->
     <g transform="translate(94.6 296.504312) scale(0.1 -0.1)">
      <defs>
       <path id="DejaVuSans-Oblique-43" d="M 4447 4306 
L 4319 3641 
Q 4019 3944 3683 4091 
Q 3347 4238 2956 4238 
Q 2422 4238 2017 3981 
Q 1613 3725 1319 3200 
Q 1131 2863 1032 2486 
Q 934 2109 934 1728 
Q 934 1091 1264 756 
Q 1594 422 2222 422 
Q 2656 422 3056 561 
Q 3456 700 3834 978 
L 3688 231 
Q 3316 72 2936 -9 
Q 2556 -91 2175 -91 
Q 1278 -91 773 396 
Q 269 884 269 1753 
Q 269 2309 461 2846 
Q 653 3384 1013 3828 
Q 1394 4300 1883 4525 
Q 2372 4750 3022 4750 
Q 3422 4750 3780 4639 
Q 4138 4528 4447 4306 
z
" transform="scale(0.015625)"/>
      </defs>
      <use xlink:href="#DejaVuSans-Oblique-54" transform="translate(0 0.09375)"/>
      <use xlink:href="#DejaVuSans-Oblique-43" transform="translate(61.083984 -16.3125) scale(0.7)"/>
     </g>
    </g>
   </g>
  </g>
 </g>
 <defs>
  <clipPath id="p34ba384b97">
   <rect x="57.6" y="41.472" width="357.12" height="266.112"/>
  </clipPath>
 </defs>
</svg>
