<svg xmlns="http://www.w3.org/2000/svg" xmlns:xlink="http://www.w3.org/1999/xlink" width="1058.52" height="665.488" viewBox="0 0 396.945 249.558" xmlns:v="https://vecta.io/nano"><style><![CDATA[.B{overflow:visible}.C{stroke:none}.D{stroke-miterlimit:10}.E{fill:none}.F{stroke-width:1.993}.G{fill:rgb(0%,0%,0%)}.H{stroke:rgb(0%,0%,0%)}.I{stroke-width:.399}.J{stroke:rgb(0%,0%,100%)}.K{stroke-dasharray:2.98883,2.98883}.L{stroke:rgb(0%,100%,0%)}.M{stroke:rgb(100%,0%,0%)}.N{fill:rgb(100%,100%,100%)}]]></style><defs><symbol id="A" class="B"><path d="M4.281-2.187h-.828v-2.906l.031-.969-.031-.016h-.312c-.062 0-.125.063-.156.109-.625.766-1.781 2.406-2.703 3.828.031.156.094.422.391.422h2.031v.922c0 .453-.375.453-.812.484-.062.063-.062.266 0 .328L3.078 0l1.078.016c.063-.062.063-.266 0-.328-.484-.031-.703-.016-.703-.484v-.922h.688c.141 0 .297-.187.297-.312 0-.094-.047-.156-.156-.156zM2.703-5.047v2.859H.797l1.906-2.859zm0 0" class="C"/></symbol><symbol id="B" class="B"><path d="M2.266.094c.781 0 1.938-.766 1.938-3.109 0-.984-.234-1.844-.672-2.422-.266-.344-.687-.641-1.219-.641-.984 0-1.922 1.172-1.922 3.141 0 1.078.328 2.063.875 2.625.281.266.625.406 1 .406zm.047-5.828a.68.68 0 0 1 .453.172c.313.266.578 1.016.578 2.359 0 .906-.031 1.531-.172 2.047-.219.813-.703.906-.891.906-.922 0-1.031-1.703-1.031-2.578 0-2.453.609-2.906 1.063-2.906zm0 0" class="C"/></symbol><symbol id="C" class="B"><path d="M3.188-1.891c0 .953-.5 1.656-1.109 1.656-.375 0-.5-.25-.656-.453C1.297-.859 1.125-1 .922-1c-.187 0-.391.156-.391.359 0 .406.859.75 1.422.75 1.234 0 2.109-.922 2.109-2.172 0-.969-.656-1.828-1.781-1.828-.422 0-.797.078-.969.156L1.5-5.406c.375.047.688.094 1.172.094.297 0 .641-.016 1.047-.062l.156-.672-.062-.047-1.641.109c-.375 0-.719-.016-1.078-.047L.75-3.156c.531-.203.922-.25 1.281-.25.641 0 1.156.438 1.156 1.516zm0 0" class="C"/></symbol><symbol id="D" class="B"><path d="M1.438-3.422c.266-.906.906-1.906 2.234-2.406 0-.125-.047-.219-.125-.266-1 .297-1.625.719-2.187 1.375C.75-4 .438-3.094.438-2.312.438-.297 1.578.109 2.359.109c1.297 0 1.844-1.266 1.844-2.125s-.469-1.625-1.828-1.625a2.46 2.46 0 0 0-.937.219zm-.094.359c.328-.219.656-.234.828-.234.984 0 1.203.969 1.203 1.469 0 1.094-.422 1.594-.906 1.594-.641 0-1.203-.344-1.203-2.047 0-.234.016-.484.078-.781zm0 0" class="C"/></symbol><symbol id="E" class="B"><path d="M1.688-5.328h1.797L1.234.063l.078.063L2 .094l2.234-6.062-.172-.125c-.172.047-.391.109-.766.109H1.25c-.344 0-.328-.094-.5-.141-.031 0-.047 0-.047.031 0 .484-.109 1.078-.187 1.594.109.031.203.047.313.031.219-.797.547-.859.859-.859zm0 0" class="C"/></symbol><symbol id="F" class="B"><path d="M2.875-1.219v-3.453l.031-1.344c0-.047-.031-.047-.062-.047-.547.344-1.078.594-1.953 1 .016.109.063.203.141.266.469-.187.688-.25.875-.25.172 0 .203.234.203.578v3.25c0 .828-.281.875-.969.906-.062.063-.062.266 0 .328L2.516 0l1.219.016c.063-.062.063-.266 0-.328-.687-.031-.859-.078-.859-.906zm0 0" class="C"/></symbol><symbol id="G" class="B"><path d="M4.281-2.187h-.828v-2.906l.031-.969-.031-.016h-.312c-.062 0-.125.063-.156.109-.625.766-1.781 2.406-2.703 3.828.031.156.094.422.391.422h2.031v.922c0 .453-.375.453-.812.484-.062.063-.062.266 0 .328L3.078 0l1.078.016c.063-.062.063-.266 0-.328-.484-.031-.703-.016-.703-.484v-.922h.688c.141 0 .297-.187.297-.312 0-.094-.047-.156-.156-.156zM2.703-5.047v2.859H.797l1.906-2.859zm0 0" class="C"/></symbol><symbol id="H" class="B"><path d="M.609-4.672c0 .219.188.391.391.391.172 0 .469-.172.469-.391 0-.078-.016-.141-.031-.219-.016-.062-.078-.156-.078-.234 0-.25.25-.609.984-.609.359 0 .859.25.859 1.203 0 .641-.219 1.156-.812 1.766l-.734.719C.672-1.047.516-.562.516.016L1.344 0h1.75l.781.016a11.04 11.04 0 0 0 .234-1.578c-.062-.047-.187-.062-.297-.047-.156.719-.328.969-.687.969H1.344c0-.484.688-1.156.734-1.219l1.016-.969c.563-.547 1-.984 1-1.734 0-1.078-.891-1.516-1.687-1.516-1.109 0-1.797.813-1.797 1.406zm0 0" class="C"/></symbol><symbol id="I" class="B"><path d="M2.266.094c.781 0 1.938-.766 1.938-3.109 0-.984-.234-1.844-.672-2.422-.266-.344-.687-.641-1.219-.641-.984 0-1.922 1.172-1.922 3.141 0 1.078.328 2.063.875 2.625.281.266.625.406 1 .406zm.047-5.828a.68.68 0 0 1 .453.172c.313.266.578 1.016.578 2.359 0 .906-.031 1.531-.172 2.047-.219.813-.703.906-.891.906-.922 0-1.031-1.703-1.031-2.578 0-2.453.609-2.906 1.063-2.906zm0 0" class="C"/></symbol><symbol id="J" class="B"><path d="M1.828-3.562c-.047.063-.109.078-.109 0-.016-.281-.031-.672-.078-.766-.031-.047-.047-.078-.125-.078-.281.109-.531.203-1.219.297-.031.047 0 .219.016.266.531.063.641.109.641.688v1.938c0 .813-.094.859-.687.906-.062.063-.062.266 0 .328L1.359 0l1 .016c.047-.062.047-.266 0-.328-.516-.047-.609-.094-.609-.906v-1.625c0-.219.078-.344.156-.422.391-.375.828-.594 1.219-.594.203 0 .406.125.531.359.109.203.125.469.125.766v1.516c0 .813-.109.859-.625.906-.047.063-.047.266 0 .328L4.172 0l1.063.016c.047-.062.047-.266 0-.328-.562-.047-.672-.094-.672-.906v-1.484c0-.547-.031-1.031-.266-1.328-.172-.219-.484-.344-.828-.344-.484 0-1.047.125-1.641.813zm0 0" class="C"/></symbol><symbol id="K" class="B"><path d="M1.688-3.562c0-.312-.016-.672-.078-.766-.016-.047-.031-.078-.109-.078-.281.109-.547.203-1.234.297-.016.047 0 .219.031.266.531.063.641.109.641.688v1.938c0 .813-.125.875-.672.906-.062.063-.062.266 0 .328L1.328 0l1.016.016c.063-.062.063-.266 0-.328-.516-.047-.625-.094-.625-.906v-1.625a.56.56 0 0 1 .172-.422c.406-.391.766-.594 1.078-.594.375 0 .656.234.656.906v1.734c0 .813-.078.875-.609.906-.062.063-.062.266 0 .328L4.031 0 5 .016c.047-.062.047-.266 0-.328-.5-.031-.578-.094-.578-.906v-1.578l-.016-.406c.484-.531.922-.656 1.313-.656.375 0 .594.219.594.891v1.75c0 .813-.094.875-.609.906-.047.063-.047.266 0 .328L6.719 0 7.75.016c.047-.062.047-.266 0-.328-.547-.031-.641-.094-.641-.906v-1.578c0-.875-.156-1.578-1.031-1.578-.5 0-1.125.188-1.641.734-.031.031-.094.078-.109-.016-.094-.406-.484-.719-1-.719-.578 0-1.094.344-1.516.813-.047.047-.109.109-.125 0zm0 0" class="C"/></symbol><symbol id="L" class="B"><path d="M3.266-2.547c-.281.906-.906 1.906-2.234 2.406 0 .125.031.203.109.266C2.156-.172 2.766-.594 3.328-1.25c.625-.719.922-1.625.922-2.406 0-2.031-1.141-2.422-1.906-2.422C1.031-6.078.5-4.812.5-3.953s.453 1.625 1.813 1.625c.266 0 .641-.078.953-.219zm.078-.359c-.328.219-.656.219-.828.219-.969 0-1.187-.953-1.187-1.453 0-1.094.422-1.594.906-1.594.625 0 1.188.344 1.188 2.047 0 .219-.016.484-.078.781zm0 0" class="C"/></symbol><symbol id="M" class="B"><path d="M3.922-4.828c0-.719-.562-1.25-1.547-1.25-1.016 0-1.672.609-1.672 1.375 0 .563.281.969.875 1.344l.266.156c-.281.156-.562.328-.812.547-.406.359-.578.813-.578 1.203 0 1.016.719 1.547 1.781 1.547 1.297 0 1.938-.953 1.938-1.703 0-.578-.25-1.094-.766-1.406l-.719-.437c.469-.219 1.234-.75 1.234-1.375zM2.25-.25a1.12 1.12 0 0 1-1.125-1.203c0-.297.125-1 .984-1.562l.469.281c.625.375.875.844.875 1.313 0 1-.75 1.172-1.203 1.172zm.078-5.484c.656 0 .891.438.891.891 0 .531-.531.984-.797 1.188l-.312-.187c-.625-.406-.687-.734-.687-1.047 0-.469.313-.844.906-.844zm0 0" class="C"/></symbol><symbol id="N" class="B"><path d="M3.188-1.891c0 .953-.5 1.656-1.109 1.656-.375 0-.5-.25-.656-.453C1.297-.859 1.125-1 .922-1c-.187 0-.391.156-.391.359 0 .406.859.75 1.422.75 1.234 0 2.109-.922 2.109-2.172 0-.969-.656-1.828-1.781-1.828-.422 0-.797.078-.969.156L1.5-5.406c.375.047.688.094 1.172.094.297 0 .641-.016 1.047-.062l.156-.672-.062-.047-1.641.109c-.375 0-.719-.016-1.078-.047L.75-3.156c.531-.203.922-.25 1.281-.25.641 0 1.156.438 1.156 1.516zm0 0" class="C"/></symbol><symbol id="O" class="B"><path d="M2.141-5.734c.438 0 .828.266.828.906 0 .484-.578 1.266-1.562 1.406l.047.313c.172-.016.344-.016.484-.016.563 0 1.297.156 1.297 1.281C3.234-.516 2.359-.25 2-.25c-.5 0-.594-.234-.719-.406-.094-.141-.219-.266-.422-.266-.219 0-.422.188-.422.359 0 .391.844.656 1.438.656 1.188 0 2.234-.766 2.234-2.078 0-1.094-.812-1.469-1.391-1.578l-.016-.016c.813-.391 1.047-.797 1.047-1.328 0-.297-.078-.531-.312-.781-.219-.219-.562-.391-1.078-.391-1.469 0-1.891.953-1.891 1.281 0 .141.094.344.344.344.344 0 .391-.328.391-.516 0-.641.688-.766.938-.766zm0 0" class="C"/></symbol><symbol id="P" class="B"><path d="M1.438-3.422c.266-.906.906-1.906 2.234-2.406 0-.125-.047-.219-.125-.266-1 .297-1.625.719-2.187 1.375C.75-4 .438-3.094.438-2.312.438-.297 1.578.109 2.359.109c1.297 0 1.844-1.266 1.844-2.125s-.469-1.625-1.828-1.625a2.46 2.46 0 0 0-.937.219zm-.094.359c.328-.219.656-.234.828-.234.984 0 1.203.969 1.203 1.469 0 1.094-.422 1.594-.906 1.594-.641 0-1.203-.344-1.203-2.047 0-.234.016-.484.078-.781zm0 0" class="C"/></symbol><symbol id="Q" class="B"><path d="M8.078-5.625L6.516-1.312h-.031L5.109-5.516c-.172-.547.188-.578.516-.609.063-.062.063-.266 0-.328l-1.234.016c-.328 0-.687 0-1-.016-.062.063-.062.266 0 .328.531.031.75.344.844.609l.219.656c.047.109.078.219.078.297 0 .109-.016.188-.094.359L3.156-1.281l-.062-.016-1.453-4.406c-.109-.344.156-.391.5-.422.063-.062.063-.266 0-.328l-1.156.016c-.344 0-.641 0-.922-.016-.062.063-.062.266 0 .328.453.031.516.047.703.578L2.641-.156c.047.172.109.281.219.281.125 0 .188-.109.266-.281l1.484-3.328c.078-.203.109-.25.172-.25.031 0 .078.109.141.281L6.063-.156c.063.172.109.281.234.281.109 0 .172-.109.219-.266l2-5.375c.141-.344.313-.578.859-.609.063-.062.063-.266 0-.328l-.859.016c-.266 0-.703 0-1.094-.016-.062.063-.062.266 0 .328.406.031.797.063.656.5zm0 0" class="C"/></symbol><symbol id="R" class="B"><path d="M2.922-.484c.063.313.172.578.672.578.375 0 .734-.156.938-.359-.016-.125-.062-.219-.172-.266-.062.047-.234.156-.359.156-.297 0-.297-.391-.297-.844v-1.469c0-1.422-.781-1.687-1.516-1.687-.812 0-1.641.531-1.641 1.109 0 .234.125.359.344.359.297 0 .469-.219.469-.344 0-.062 0-.141-.031-.172 0-.031-.016-.094-.016-.203 0-.312.422-.422.797-.422.344 0 .813.172.813 1.297 0 .063-.031.109-.062.125L2-2.422C1.047-2.187.359-1.656.359-.984.359-.156.922.094 1.609.094c.359 0 .656-.078 1.094-.406l.203-.172zm0-1.844V-1c0 .125-.062.188-.141.25-.266.219-.594.438-.875.438a.69.69 0 0 1-.719-.703c0-.453.203-.906.953-1.094zm0 0" class="C"/></symbol><symbol id="S" class="B"><path d="M3.234-3.969c.547.047.609.156.391.672l-.797 1.953c-.172.391-.219.391-.375-.031l-.719-1.922c-.172-.484-.219-.594.313-.672.063-.062.063-.266 0-.328l-1.016.016c-.328 0-.625 0-.922-.016-.062.063-.062.266 0 .328.531.063.594.219.797.734L2.188-.094c.063.156.109.219.25.219.094 0 .172-.062.234-.234L4-3.234c.188-.437.297-.687.859-.734.063-.062.063-.266 0-.328-.203.016-.437.016-.703.016-.328 0-.672 0-.922-.016-.047.063-.047.266 0 .328zm0 0" class="C"/></symbol><symbol id="T" class="B"><path d="M3.844-.922c-.359.375-.656.531-1.234.531-.359 0-.781-.203-1.078-.719-.203-.328-.328-.781-.328-1.359l2.656.016c.125 0 .188-.062.188-.172 0-.828-.297-1.734-1.687-1.734-.859 0-1.984.828-1.984 2.344 0 .563.141 1.094.469 1.484s.797.625 1.516.625c.766 0 1.297-.344 1.703-.859-.031-.109-.094-.156-.219-.156zM1.234-2.812c.188-1.125.891-1.219 1.125-1.219.375 0 .828.219.828 1.047 0 .094-.031.141-.141.141zm0 0" class="C"/></symbol><symbol id="U" class="B"><path d="M.953-1.219c0 .828-.109.875-.719.906-.062.063-.062.266 0 .328L1.344 0l1.109.016c.063-.062.063-.266 0-.328-.609-.031-.719-.078-.719-.906v-4.594l.047-1.047c0-.062-.047-.094-.141-.094-.25.094-1 .234-1.391.266-.016.078 0 .234.063.297.578.047.641.078.641.813zm0 0" class="C"/></symbol><symbol id="V" class="B"><path d="M4.422-3.859c.188 0 .375-.172.375-.375 0-.219-.187-.375-.453-.375a1.4 1.4 0 0 0-1 .516c-.125-.078-.453-.281-1.047-.281-.875 0-1.703.594-1.703 1.516 0 .531.25.844.516 1.109-.266.25-.437.672-.437 1.016 0 .359.203.641.469.766C.594.344.313.813.313 1.234c0 .875.828 1.141 1.594 1.141 1.344 0 2.797-.656 2.797-1.734 0-.312-.141-.562-.437-.797-.391-.328-1.078-.328-1.453-.328-.187 0-.437.016-.672.047-.141.016-.25.016-.297.016-.281 0-.641-.141-.641-.562a.98.98 0 0 1 .188-.578c.234.141.516.203.906.203.875 0 1.688-.547 1.688-1.516a1.32 1.32 0 0 0-.437-1.047c.078-.094.266-.234.406-.234.063 0 .141.031.188.125.047.078.172.172.281.172zM1.313.094c.109.031.266.063.406.063l.719-.031c.5 0 .922 0 1.219.172.375.219.5.344.5.609C4.156 1.625 3.094 2 2.203 2 1.844 2 1 1.719 1 1.031c0-.328.031-.578.313-.937zm1.875-2.875c0 .922-.469 1.109-.844 1.109-.844 0-.922-.703-.922-1.344 0-.687.25-1.047.797-1.047.625 0 .969.453.969 1.281zm0 0" class="C"/></symbol><symbol id="W" class="B"><path d="M.422-4.281c-.125 0-.172.125-.172.203v.125c0 .063.016.063.047.063h.594v3c0 .719.313.984.766.984S2.609-.125 3-.562c-.016-.094-.078-.156-.172-.172A1.36 1.36 0 0 1 2-.453c-.266 0-.328-.297-.328-.906v-2.531h1.047c.094 0 .234-.031.234-.125v-.203c0-.031-.031-.062-.078-.062H1.672v-.391l.047-1.047c0-.047-.031-.078-.078-.078a.53.53 0 0 0-.219.078c-.109.063-.219.109-.344.141-.125.047-.219.078-.219.141 0 .125.031.047.031 1.156zm0 0" class="C"/></symbol><symbol id="X" class="B"><path d="M1.672-2.844c0-.219.078-.344.156-.422.391-.375.891-.594 1.281-.594.203 0 .406.125.531.359.094.203.125.469.125.766v1.516c0 .813-.109.859-.625.906-.047.063-.047.266 0 .328L4.156 0l1.063.016c.047-.062.047-.266 0-.328-.562-.047-.672-.094-.672-.906v-1.484c0-.547-.047-1.031-.266-1.328-.172-.219-.484-.344-.828-.344-.5 0-1.094.125-1.703.813l-.016.016c-.031.031-.078.094-.078-.016l.016-2.25.031-1.047c0-.062-.031-.094-.125-.094-.25.094-1 .234-1.406.266-.016.078 0 .234.063.297h.094c.438.031.547.031.547.813v4.359c0 .828-.125.875-.703.906-.047.063-.047.266 0 .328L1.281 0l.984.016c.063-.062.063-.266 0-.328-.516-.031-.594-.078-.594-.906zm0 0" class="C"/></symbol><symbol id="Y" class="B"><path d="M.438-2.516c0 .453.047 2.75 2.109 4.547.109-.016.188-.094.219-.172-.328-.375-1.5-1.75-1.5-4.375s1.172-4 1.5-4.359c-.031-.094-.109-.156-.219-.172C1.359-6.031.438-4.359.438-2.516zm0 0" class="C"/></symbol><symbol id="Z" class="B"><path d="M2.531-2.516c0-.437-.031-2.75-2.109-4.547-.109.031-.187.094-.219.172.328.375 1.5 1.75 1.5 4.375s-1.172 4-1.5 4.359c.031.094.109.172.219.188C1.609 1 2.531-.656 2.531-2.516zm0 0" class="C"/></symbol><symbol id="a" class="B"><path d="M1.469-6.437c-.359 0-.891 0-1.281-.016-.062.063-.062.266 0 .328.703.031.875.078.875.906v4c0 .828-.172.875-.875.906-.062.063-.062.266 0 .328L1.484 0l1.453.016c1.984 0 2.516-1 2.516-1.844 0-.969-.672-1.516-1.531-1.766v-.016c.5-.25.938-.766.938-1.312 0-.656-.281-1.531-2.141-1.531l-1.25.016zm.438 3.125h.688c1.359 0 1.938.766 1.938 1.672 0 .719-.281 1.328-1.797 1.328-.703 0-.828-.25-.828-.859zm0-2.172c0-.531 0-.625.859-.625.563 0 1.297.297 1.297 1.313 0 .844-.594 1.141-1.422 1.141h-.734zm0 0" class="C"/></symbol><symbol id="b" class="B"><path d="M2.156.094c.391 0 .859-.187 1.359-.594.047-.031.141-.062.141.016a6.57 6.57 0 0 0 .109.578c.078.031.125.031.188 0 .219-.172.578-.328 1.188-.391a.27.27 0 0 0 0-.266c-.641-.062-.734-.25-.734-.734v-1.906l.047-1.031c0-.031-.031-.062-.094-.062-.047.016-.187.016-.344.016-.312 0-.672 0-1.016-.016-.062.063-.062.266 0 .328.484.031.625.156.625.813v1.922a.42.42 0 0 1-.172.391c-.359.313-.734.469-.984.469-.312 0-.797-.141-.797-1.016v-1.812l.031-1.031c0-.031-.031-.062-.078-.062-.047.016-.203.016-.344.016-.328 0-.687 0-1.016-.016-.062.063-.062.266 0 .328.469.047.609.156.609.797v1.922c0 .688.297 1.344 1.281 1.344zm0 0" class="C"/></symbol><symbol id="c" class="B"><path d="M3.969-.906c-.047-.094-.125-.125-.203-.141-.344.438-.781.656-1.203.656-.734 0-1.344-.734-1.344-1.906 0-1.094.484-1.75 1.141-1.75.594 0 .672.344.719.703.016.266.156.359.375.359.203 0 .484-.141.484-.437 0-.562-.562-.953-1.531-.953-.984 0-2.031.891-2.031 2.297 0 1.297.719 2.172 1.969 2.172.594 0 1.125-.187 1.625-1zm0 0" class="C"/></symbol><symbol id="d" class="B"><path d="M.406-2.047C.406-1.031 1.094.094 2.5.094c.641 0 1.125-.219 1.469-.547.453-.437.641-1.078.641-1.687 0-1.031-.562-2.234-2.094-2.234-.656 0-1.187.266-1.562.703-.359.422-.547 1-.547 1.625zm1.969-1.984c.859 0 1.391.781 1.391 2.219 0 1.25-.656 1.563-1.125 1.563-1.031 0-1.375-1.25-1.375-2.016 0-.875.203-1.766 1.109-1.766zm0 0" class="C"/></symbol><symbol id="e" class="B"><path d="M.484-1.375L.547 0l.25-.031A.89.89 0 0 1 1-.016a3.06 3.06 0 0 0 .906.109c.563 0 1.578-.266 1.578-1.25 0-.672-.484-1.078-1.156-1.328-.609-.234-1-.375-1-.922 0-.406.359-.641.703-.641.219 0 .797.078.922.922.063.063.25.047.313 0l.063-1.062c-.312-.047-.781-.187-1.297-.187-.75 0-1.406.484-1.406 1.109 0 .734.328 1.047 1.094 1.359.828.344 1.016.547 1.016.984 0 .484-.484.688-.844.688-.391 0-.609-.125-.719-.234-.219-.234-.328-.672-.391-.922-.047-.062-.25-.047-.297.016zm0 0" class="C"/></symbol><symbol id="f" class="B"><path d="M1.891-1.219v-1.687c.828 0 1.016.156 1.156.391L4.109-.781c.297.469.719.875 1.328.875.141 0 .313-.016.422-.062.031-.078.016-.156-.016-.234-.453 0-.703-.344-.953-.781L3.625-3.078c.438-.125 1.328-.656 1.328-1.703 0-.5-.172-.906-.531-1.234-.469-.453-1.094-.484-1.719-.484l-1.25.063c-.344 0-.812 0-1.281-.016-.062.063-.062.266 0 .328.703.031.859.078.859.906v4c0 .828-.156.875-.859.906-.062.063-.062.266 0 .328L1.469 0 2.75.016c.063-.062.063-.266 0-.328-.703-.031-.859-.078-.859-.906zm.828-4.937c.594 0 1.313.219 1.313 1.391 0 1.25-.703 1.531-1.672 1.531h-.469v-2.281c0-.297.109-.641.828-.641zm0 0" class="C"/></symbol><symbol id="g" class="B"><path d="M3.328-.5c.047-.031.141-.062.156.016a8.16 8.16 0 0 0 .109.578c.078.031.125.031.188 0C4-.078 4.344-.234 4.953-.297c.063-.062.063-.219 0-.266-.641-.062-.719-.25-.719-.734v-4.516l.031-1.047c0-.062-.031-.094-.125-.094-.25.094-1 .234-1.406.266-.016.078 0 .234.063.297h.094c.438.031.547.031.547.813v1.281c0 .063-.016.094-.094.094-.031 0-.437-.172-.766-.172-.672 0-1.109.219-1.5.594-.437.438-.687 1.016-.687 1.75C.391-.797 1 .094 2.078.094c.391 0 .766-.187 1.25-.594zm.109-.734c0 .188-.016.266-.156.391-.375.313-.687.469-.937.469-.547 0-1.094-.578-1.094-1.828 0-.719.141-1.109.281-1.328a1.06 1.06 0 0 1 .938-.5.99.99 0 0 1 .797.359c.141.156.172.234.172.547zm0 0" class="C"/></symbol><symbol id="h" class="B"><path d="M3.766-6.562c-1.672 0-3.391 1.313-3.391 3.5C.375-1.266 1.609.094 3.516.094c1.172 0 2.094-.25 2.781-.828-.109-.078-.172-.156-.172-.266v-1.156c0-.359.172-.453.469-.484a.37.37 0 0 0 0-.359l-.891.016c-.328 0-.797 0-1.234-.016a.37.37 0 0 0 0 .359c.547.031.813.078.813.484v1.516c-.344.328-1 .375-1.547.375-1.578 0-2.406-1.672-2.406-3 0-1.734 1.141-2.937 2.297-2.937 1.438 0 1.844.828 2.109 1.688.109.016.219-.016.328-.062-.016-.422-.078-.812-.234-1.531-.594-.094-.969-.453-2.062-.453zm0 0" class="C"/></symbol><symbol id="i" class="B"><path d="M1.75-3.562c-.016-.406-.031-.672-.078-.766-.016-.047-.031-.078-.109-.078-.281.109-.547.203-1.234.297-.016.047 0 .219.016.266.547.063.656.109.656.688v1.938c0 .828-.125.875-.734.906-.062.063-.062.266 0 .328L1.391 0l1.219.016c.047-.062.047-.266 0-.328-.703-.047-.828-.078-.828-.906v-1.391c0-.25.125-.484.25-.656.109-.156.328-.5.453-.5.094 0 .172.031.25.141.078.094.203.219.359.219.25 0 .469-.25.469-.484 0-.203-.172-.484-.594-.484-.469 0-.875.438-1.109.828-.062.109-.109.031-.109-.016zm0 0" class="C"/></symbol><symbol id="j" class="B"><path d="M5.328-4.875c.219-.531.5-.594.891-.625.063-.047.063-.25 0-.297l-.844.016c-.359 0-.859-.016-1.187-.016-.047.047-.047.25 0 .297.344.031.75.078.625.422l-1.25 3.188-.141.359-.141-.406-1.109-3.203c-.094-.297.234-.328.656-.359.063-.047.063-.25 0-.297l-1.578.016c-.359 0-.859-.016-1.203-.016C0-5.75 0-5.547.047-5.5c.359.031.656.078.813.484L2.813-.094c.063.141.172.203.297.203a.31.31 0 0 0 .313-.203zm0 0" class="C"/></symbol><symbol id="k" class="B"><path d="M2.078-1.094v-1.781l.031-.953c0-.094-.078-.156-.203-.156-.25.094-.969.172-1.594.25a.95.95 0 0 0 .016.297c.5.031.594.109.594.625v1.719c0 .75-.109.766-.656.813-.047.047-.047.25 0 .297L1.5 0l1.219.016c.063-.047.063-.25 0-.297-.547-.047-.641-.062-.641-.812zM.875-5.344c0 .297.203.594.563.594.406 0 .641-.328.641-.562 0-.266-.203-.594-.578-.594-.422 0-.625.297-.625.563zm0 0" class="C"/></symbol><symbol id="l" class="B"><path d="M.328-1.859c0 1.172.938 1.953 2.141 1.953.641 0 1.156-.187 1.531-.516.453-.406.609-1.016.609-1.516 0-1.172-.797-2.047-2.141-2.047-.734 0-1.297.266-1.641.672-.344.391-.5.922-.5 1.453zm2-1.75c.609 0 1.031.734 1.031 1.953 0 1.078-.422 1.375-.75 1.375-.734 0-1.016-1.109-1.016-1.766 0-.828.141-1.562.734-1.562zm0 0" class="C"/></symbol><symbol id="m" class="B"><path d="M.891-1.141c0 .75-.141.828-.687.859-.047.047-.047.25 0 .297L1.484 0 2.75.016c.063-.047.063-.25 0-.297-.547-.031-.687-.109-.687-.859v-4.094l.031-.906c0-.078-.062-.125-.141-.125-.344.109-1.062.219-1.687.234-.031.109-.031.203.016.297.578.047.609.047.609.672zm0 0" class="C"/></symbol><symbol id="n" class="B"><path d="M3.859-1.156c-.359.375-.844.469-1.187.469-.703 0-1.125-.391-1.125-1.281v-.141h2.156c.219 0 .266-.156.266-.281 0-.75-.297-1.594-1.625-1.594-.937 0-2.016.844-2.016 2.203 0 .531.188 1.078.578 1.422.344.313.781.453 1.422.453.609 0 1.219-.312 1.672-.969 0-.125-.047-.281-.141-.281zM1.594-2.469c0-.312.047-.656.172-.828.141-.219.391-.312.484-.312.25 0 .578.234.578.953 0 .063 0 .172-.016.188zm0 0" class="C"/></symbol><symbol id="o" class="B"><path d="M.563-3.891a.6.6 0 0 0-.375.125v.266c0 .047.016.063.047.063h.578l-.016 2.5c0 .313.078.609.266.781.203.172.531.25.734.25.5 0 1.047-.25 1.219-.5 0-.109-.047-.172-.156-.25-.109.078-.344.125-.516.125-.187 0-.391-.156-.391-.609v-2.297h.906c.078 0 .203-.047.203-.125v-.281c0-.031-.016-.047-.062-.047H1.953v-.312l.047-1c0-.062-.031-.094-.078-.094-.062 0-.391.109-.531.172-.156.063-.406.109-.469.188s-.109.328-.109 1.047zm0 0" class="C"/></symbol><symbol id="p" class="B"><path d="M1.547-5.781c-.359 0-1.375-.016-1.375-.016-.094.047-.094.25 0 .297.484.031.75.063.75.813v3.594c0 .75-.266.781-.75.813-.094.047-.094.25 0 .297L1.547 0l1.469.016c1.844 0 2.438-.766 2.438-1.687 0-.781-.391-1.297-1.344-1.547v-.016c.484-.219.859-.719.859-1.172 0-.609-.328-1.391-2.141-1.391l-1.281.016zM2.172-3h.641c.922 0 1.328.547 1.328 1.328 0 .531-.187 1.313-1.375 1.313-.547 0-.594-.141-.594-.391zm0-2.047c0-.25.047-.375.625-.375.406 0 .922.156.922 1.031 0 .719-.406 1.016-1.047 1.016h-.5zm0 0" class="C"/></symbol><symbol id="q" class="B"><path d="M4.578-1.187V-2.75l.016-.859c0-.156-.031-.25-.094-.297l-.516.016c-.25 0-.828-.016-1.172-.016-.062.047-.062.25 0 .297.453.047.594.109.594.859v1.672c0 .078 0 .172.016.266-.375.219-.672.234-.828.234-.359 0-.625-.047-.625-.672v-1.5l.016-.859c0-.156-.031-.25-.094-.297l-.516.016c-.453 0-.797-.016-1.172-.016-.062.047-.062.25 0 .297.406.016.594.109.594.859v1.406c0 .953.375 1.438 1.156 1.438.313 0 .969-.266 1.484-.547l.047.391c0 .109.078.156.203.156.328-.094.875-.219 1.484-.297A.95.95 0 0 0 5.156-.5c-.484-.031-.578-.187-.578-.687zm0 0" class="C"/></symbol><symbol id="r" class="B"><path d="M3.563.094c.875 0 1.672-.422 2.281-1.219a.47.47 0 0 0-.297-.187c-.641.703-1.375.938-2 .938C2.516-.375 1.688-1.594 1.688-3c0-1.391.719-2.531 1.781-2.531 1.234 0 1.641.703 1.875 1.469a.57.57 0 0 0 .391-.047L5.531-5.5c-.453-.047-.859-.406-1.969-.406-1.75 0-3.234 1.109-3.234 3.078C.328-1.984.703-1 1.422-.469c.563.406 1.266.563 2.141.563zm0 0" class="C"/></symbol><symbol id="s" class="B"><path d="M2.172 1.5c.141-.25.281-.562.391-.844l1.625-3.703c.125-.25.391-.531.734-.562.047-.047.047-.25 0-.297l-.641.016c-.312 0-.625-.016-.953-.016-.047.047-.047.25 0 .297.281.031.578.078.438.406l-.937 2.063c0 .016 0 0-.016-.016l-.828-1.875c-.016-.016-.016-.016-.016-.031-.156-.344-.219-.5.313-.547.047-.047.047-.25 0-.297l-1.203.016c-.297 0-.812-.016-.984-.016-.062.047-.062.25 0 .297.391.047.469.109.703.672L1.953-.281a.68.68 0 0 0 .094.109c.109.156.219.297.156.422l-.219.5c-.109.266-.219.438-.469.438-.156 0-.187-.047-.312-.047-.344 0-.547.234-.547.422 0 .109.031.266.109.359a.54.54 0 0 0 .359.156c.109 0 .375-.031.5-.094.203-.078.453-.297.547-.484zm0 0" class="C"/></symbol><symbol id="t" class="B"><path d="M2.641-.437c.063.359.313.531.703.531.5 0 .844-.187 1.172-.5-.016-.109-.047-.187-.156-.25a.57.57 0 0 1-.375.125c-.203 0-.25-.172-.25-.609l.016-1.297c0-1.281-.797-1.547-1.531-1.547-.656 0-1.656.375-1.656.969 0 .25.094.453.453.453.328 0 .547-.203.547-.422 0-.031 0-.094-.016-.141-.016-.094-.031-.187-.016-.281s.078-.203.375-.203c.375 0 .688.172.688 1.297L2-2.109c-.937.281-1.609.547-1.609 1.25 0 .625.344.953 1.125.953.266 0 .781-.297 1.078-.531zm-.047-1.516v1.188c-.219.172-.437.313-.609.313-.375 0-.516-.25-.516-.531 0-.328.031-.609.672-.812zm0 0" class="C"/></symbol><symbol id="u" class="B"><path d="M2.047-1.094v-1.797c.359-.25.719-.422.875-.422.359 0 .625.156.625.672v1.5c0 .75-.141.828-.5.859-.062.047-.062.25 0 .297L4.141 0l1.266.016c.063-.047.063-.25 0-.297-.547-.031-.687-.109-.687-.859v-1.406c0-.984-.422-1.437-1.187-1.437-.359 0-1 .391-1.5.734-.016-.312-.062-.578-.062-.578 0-.109-.078-.156-.203-.156-.328.094-.875.219-1.484.297a.83.83 0 0 0 .016.281c.5.047.578.125.578.641v1.672c0 .75-.094.766-.641.813-.062.047-.062.25 0 .297L1.469 0l1.047.016c.047-.047.047-.25 0-.297-.375-.047-.469-.062-.469-.812zm0 0" class="C"/></symbol><symbol id="v" class="B"><path d="M3.547-5.906c-.891 0-1.687.281-2.297.844C.641-4.531.297-3.719.297-2.75c0 .797.328 1.641.938 2.156.563.484 1.281.688 2.219.688 1 0 1.969-.312 2.547-.797-.094-.078-.141-.156-.141-.25V-2c0-.312.141-.406.391-.437.063-.047.063-.266 0-.328l-1.016.016c-.328 0-.922 0-1.328-.016-.047.063-.047.281 0 .328.469.047.703.078.703.438v1.344c-.281.281-.5.375-.953.375-1.516 0-2-1.469-2-2.656 0-.766.109-1.469.438-1.922a1.6 1.6 0 0 1 1.328-.672c1.156 0 1.75.703 1.984 1.469.141.016.281 0 .391-.047-.078-.391-.125-.828-.187-1.484-.469 0-.953-.312-2.062-.312zm0 0" class="C"/></symbol><symbol id="w" class="B"><path d="M2.047-2.406c0-.312.094-.453.219-.594.063-.078.141-.141.281-.141.078 0 .172.078.25.156.063.078.219.156.422.156.266 0 .516-.281.516-.656 0-.234-.266-.5-.594-.5-.312 0-.656.266-1.062.859h-.047l-.062-.703c0-.078-.078-.156-.203-.156-.422.109-.891.234-1.484.297-.016.063 0 .219.016.281.5.047.578.125.578.641v1.672c0 .75-.094.766-.641.813-.062.047-.062.25 0 .297L1.469 0l1.219.016c.063-.047.063-.25 0-.297-.547-.047-.641-.062-.641-.812zm0 0" class="C"/></symbol><symbol id="x" class="B"><path d="M3.469-1.094v-1.312c0-.359.031-.547.156-.734l1.141-1.922c.219-.344.375-.406.781-.437.063-.047.063-.25 0-.297l-.828.016c-.203 0-.641-.016-1-.016-.047.047-.047.25 0 .297.391.031.609.172.453.438l-.922 1.75c-.062.109-.125.109-.203-.031L2.109-5c-.187-.344-.187-.469.328-.5.047-.047.047-.25 0-.297l-1.125.016c-.344 0-1-.016-1.266-.016-.062.047-.047.25 0 .297.391.031.547.094.844.594l1.141 1.922c.172.266.188.328.188.656v1.234c0 .75-.156.781-.875.813-.047.047-.047.25 0 .297L2.922 0l1.422.016c.047-.047.047-.25 0-.297-.719-.031-.875-.062-.875-.812zm0 0" class="C"/></symbol><symbol id="y" class="B"><path d="M4.328-2.969l-.281-.828a2.67 2.67 0 0 1-.5 0l-.859 2.359c-.031.063-.062.078-.094 0l-.516-1.531c0-.031-.016-.047-.031-.078-.125-.375-.172-.516.359-.562.047-.047.047-.25 0-.297l-1.172.016c-.312 0-.781-.016-1.109-.016-.047.047-.047.25 0 .297.516.063.547.234.719.688L1.938-.078c.063.172.172.188.297.188.094 0 .266-.016.328-.203l.844-2.219.859 2.234c.063.156.234.188.359.188.078 0 .234-.031.313-.203l1.094-2.734c.156-.391.313-.734.813-.781.047-.047.047-.25 0-.297l-.594.016c-.328 0-.719-.016-1.047-.016-.062.047-.062.25 0 .297.484.047.531.266.359.719l-.516 1.406c-.047.109-.094.109-.125.016zm0 0" class="C"/></symbol><symbol id="z" class="B"><path d="M6.219-2.953c0-1.781-1.328-2.953-2.969-2.953a2.81 2.81 0 0 0-2.187 1.016C.594-4.344.328-3.594.328-2.766.328-1 1.734.094 3.266.094c.922 0 1.672-.328 2.188-.891.5-.547.766-1.281.766-2.156zM3.141-5.531c.969 0 1.734.953 1.734 2.766 0 1.484-.531 2.484-1.437 2.484-.984 0-1.75-.984-1.75-2.672 0-1.828.656-2.578 1.453-2.578zm0 0" class="C"/></symbol><symbol id="AA" class="B"><path d="M4.188-3.531c.25 0 .391-.109.391-.437 0-.172-.234-.437-.562-.437-.406 0-.922.297-1.187.531-.156-.094-.344-.109-.75-.109-.391 0-.766.094-1.062.297-.359.219-.609.578-.609 1.031 0 .438.266.922.703 1.156-.281.234-.719.703-.719.891a.6.6 0 0 0 .125.406c.078.125.188.203.359.25C.5.281.094.797.094.953c0 .328.109.719.359.891.344.234.938.297 1.375.297C3.063 2.141 4.5 1.484 4.5.5c0-.187-.094-.578-.453-.828-.359-.234-1.703-.297-2.359-.297-.156 0-.406-.016-.406-.375 0-.141.094-.266.141-.375.188.094.375.094.656.094.453 0 .875-.109 1.172-.375.266-.234.438-.547.438-.953 0-.5-.25-.828-.547-1.078.063-.094.359-.266.453-.266.078 0 .141.063.172.109a.47.47 0 0 0 .422.313zM1.563.219c.703 0 2.031.031 2.031.5 0 .328-.156.703-.453.859-.266.156-.734.188-1.062.188-.594 0-1-.453-1-.906 0-.297 0-.516.094-.687.094.031.203.047.391.047zm1.031-2.797c0 .859-.25.969-.484.969-.547 0-.625-.672-.625-1.125 0-.672.172-.906.516-.906.422 0 .594.344.594 1.063zm0 0" class="C"/></symbol><symbol id="AB" class="B"><path d="M3.25-5.859l-2.969.063c-.094.047-.094.25 0 .297.484.031.734.063.734.813v3.594c0 .75-.25.781-.734.813-.094.047-.094.25 0 .297L1.656 0l1.359.016c.094-.047.094-.25 0-.297-.484-.031-.734-.062-.734-.812v-1.437c.703 0 .781.063.906.266L4.25-.703c.266.391.641.797 1.172.797.359 0 .828-.031.922-.078.031-.062.031-.234-.016-.297-.406 0-.609-.219-.859-.594L4.25-2.766c.484-.187 1.188-.656 1.188-1.578a1.4 1.4 0 0 0-.687-1.219c-.344-.203-.828-.297-1.5-.297zm.828 1.672c0 1.109-.656 1.266-1.422 1.266h-.375v-1.781c0-.609.203-.797.672-.797.531 0 1.125.219 1.125 1.313zm0 0" class="C"/></symbol><symbol id="AC" class="B"><path d="M3.188-.437l.031.375c.016.109.078.156.203.156a10.96 10.96 0 0 1 1.5-.297c.016-.062 0-.234-.031-.297-.484-.031-.578-.187-.578-.687v-4.047l.031-.906c0-.078-.062-.125-.141-.125-.344.109-1.062.219-1.687.234a.52.52 0 0 0 .016.313c.578.047.609.047.609.672v1.156c-.156-.047-.375-.094-.641-.094A2.24 2.24 0 0 0 .328-1.781c0 .531.188 1.156.625 1.5.328.25.547.375 1.063.375.234 0 .906-.406 1.094-.531zm-.031-.422C2.969-.703 2.5-.5 2.391-.5c-.453 0-.797-.5-.797-1.547 0-.484.047-.891.219-1.172.156-.25.391-.391.656-.391.234 0 .469.031.672.328v2.203a.96.96 0 0 0 .016.219zm0 0" class="C"/></symbol><symbol id="AD" class="B"><path d="M-5.109-5.547h3.266c.188 0 .297 0 .297.078 0 .031-.172.188-.547.469l-4.344 3.422-.016 1.344c.063.063.266.063.328 0 .031-.422.391-.719.641-.781h4.156c.891 0 .953.172 1.016.859.063.063.266.063.328 0L0-1.266.016-2.375c-.062-.062-.266-.062-.328 0-.062.703-.109.875-1.016.875h-3.047c-.344 0-.484 0-.484-.078 0-.062.109-.172.328-.344l4.391-3.484c.156-.109.234-.234.234-.391 0-.141-.109-.234-.297-.234h-4.906c-.875 0-.937-.172-1.016-.859-.062-.062-.266-.062-.328 0l.016 1.109-.016 1.109c.063.063.266.063.328 0 .078-.703.109-.875 1.016-.875zm0 0" class="C"/></symbol><symbol id="AE" class="B"><path d="M-2.047-.406C-1.031-.406.094-1.094.094-2.5c0-.641-.219-1.125-.547-1.469-.437-.453-1.078-.641-1.687-.641-1.031 0-2.234.563-2.234 2.094 0 .656.266 1.188.703 1.563.422.359 1 .547 1.625.547zm-1.984-1.969c0-.859.781-1.391 2.219-1.391 1.25 0 1.563.656 1.563 1.125 0 1.031-1.25 1.375-2.016 1.375-.875 0-1.766-.203-1.766-1.109zm0 0" class="C"/></symbol><symbol id="AF" class="B"><path d="M-3.562-1.75c-.406.016-.672.031-.766.078-.047.016-.078.031-.078.109.109.281.203.547.297 1.234.047.016.219 0 .266-.016.063-.547.109-.656.688-.656h1.938c.828 0 .875.125.906.734.063.063.266.063.328 0L0-1.391.016-2.609c-.062-.047-.266-.047-.328 0-.047.703-.078.828-.906.828h-1.391c-.25 0-.484-.125-.656-.25-.156-.109-.5-.328-.5-.453 0-.094.031-.172.141-.25.094-.078.219-.203.219-.359 0-.25-.25-.469-.484-.469-.203 0-.484.172-.484.594 0 .469.438.875.828 1.109.109.063.031.109-.016.109zm0 0" class="C"/></symbol><symbol id="AG" class="B"><path d="M-3.562-1.687c-.312 0-.672.016-.766.078-.047.016-.078.031-.078.109.109.281.203.547.297 1.234.047.016.219 0 .266-.031.063-.531.109-.641.688-.641h1.938c.813 0 .875.125.906.672.063.063.266.063.328 0L0-1.328.016-2.344c-.062-.062-.266-.062-.328 0-.047.516-.094.625-.906.625h-1.625a.56.56 0 0 1-.422-.172c-.391-.406-.594-.766-.594-1.078 0-.375.234-.656.906-.656h1.734c.813 0 .875.078.906.609.063.063.266.063.328 0L0-4.031.016-5c-.062-.047-.266-.047-.328 0-.031.5-.094.578-.906.578h-1.578l-.406.016c-.531-.484-.656-.922-.656-1.312 0-.375.219-.594.891-.594h1.75c.813 0 .875.094.906.609.063.047.266.047.328 0L0-6.719.016-7.75c-.062-.047-.266-.047-.328 0-.031.547-.094.641-.906.641h-1.578c-.875 0-1.578.156-1.578 1.031 0 .5.188 1.125.734 1.641.031.031.078.094-.016.109-.406.094-.719.484-.719 1 0 .578.344 1.094.813 1.516.047.047.109.109 0 .125zm0 0" class="C"/></symbol><symbol id="AH" class="B"><path d="M-.484-2.922c.313-.062.578-.172.578-.672 0-.375-.156-.734-.359-.937-.125.016-.219.063-.266.172.047.063.156.234.156.359 0 .297-.391.297-.844.297h-1.469c-1.422 0-1.687.781-1.687 1.516 0 .813.531 1.641 1.109 1.641.234 0 .359-.125.359-.344 0-.297-.219-.469-.344-.469-.062 0-.141 0-.172.031-.031 0-.094.016-.203.016-.312 0-.422-.422-.422-.797 0-.344.172-.812 1.297-.812.063 0 .109.031.125.063l.203.859c.234.953.766 1.641 1.438 1.641.828 0 1.078-.562 1.078-1.25 0-.359-.078-.656-.406-1.094l-.172-.203zm-1.844 0H-1c.125 0 .188.063.25.141.219.266.438.594.438.875a.69.69 0 0 1-.703.719c-.453 0-.906-.203-1.094-.953zm0 0" class="C"/></symbol><symbol id="AI" class="B"><path d="M-1.219-.953c.828 0 .875.109.906.719.063.063.266.063.328 0L0-1.344.016-2.453c-.062-.062-.266-.062-.328 0-.031.609-.078.719-.906.719h-4.594c-.641 0-1.047-.047-1.047-.047-.062 0-.094.047-.094.141.094.25.234 1 .266 1.391.078.016.234 0 .297-.062.047-.578.078-.641.813-.641zm0 0" class="C"/></symbol><symbol id="AJ" class="B"><path d="M-1.219-1.797h-1.984c-.5 0-1.141-.047-1.141-.047-.031 0-.062.047-.062.125.109.281.203.688.297 1.375.047.016.219 0 .266-.031.063-.547.109-.641.688-.641h1.938c.828 0 .859.109.906.719.063.063.266.063.328 0L0-1.422.016-2.516c-.062-.062-.266-.062-.328 0-.031.609-.078.719-.906.719zm-4.75.906c.25 0 .516-.25.516-.484a.54.54 0 0 0-.484-.516c-.234 0-.516.203-.516.469 0 .25.25.531.484.531zm0 0" class="C"/></symbol><symbol id="AK" class="B"><path d="M-4.375-.703c0 .016.031.063.063.063.438 0 .797.047 1.281.141.047-.094.063-.203.031-.328-.734-.203-.891-.5-.906-.812l-.031-1.266c1.141.672 2.578 1.672 3.625 2.453.109.078.141.078.188.078.078 0 .125-.078.125-.219l.031-3.109c-.344-.125-.859-.25-1.359-.328-.031.063-.062.188-.062.297l.297.141c.531.25.75.469.75.984v1.328c-.937-.75-2.5-1.781-3.516-2.391-.25-.156-.328-.187-.375-.187-.031 0-.062.047-.062.125l.016.609v1.828c0 .313-.047.438-.094.594zm0 0" class="C"/></symbol><symbol id="AL" class="B"><path d="M-.922-3.844c.375.359.531.656.531 1.234 0 .359-.203.781-.719 1.078-.328.203-.781.328-1.359.328l.016-2.656c0-.125-.062-.187-.172-.187-.828 0-1.734.297-1.734 1.688 0 .859.828 1.984 2.344 1.984.563 0 1.094-.141 1.484-.469s.625-.797.625-1.516c0-.766-.344-1.297-.859-1.703-.109.031-.156.094-.156.219zm-1.891 2.609c-1.125-.187-1.219-.891-1.219-1.125 0-.375.219-.828 1.047-.828.094 0 .141.031.141.141zm0 0" class="C"/></symbol><symbol id="AM" class="B"><path d="M-.5-3.328c-.031-.047-.062-.141.016-.156.234-.031.578-.109.578-.109.031-.078.031-.125 0-.187C-.078-4-.234-4.344-.297-4.953c-.062-.062-.219-.062-.266 0-.062.641-.25.719-.734.719h-4.516c-.641 0-1.047-.031-1.047-.031-.062 0-.094.031-.094.125.094.25.234 1 .266 1.406.078.016.234 0 .297-.062v-.094c.031-.437.031-.547.813-.547h1.281c.063 0 .094.016.094.094 0 .031-.172.438-.172.766 0 .672.219 1.109.594 1.5.438.438 1.016.688 1.75.688C-.797-.391.094-1 .094-2.078c0-.391-.187-.766-.594-1.25zm-.734-.109c.188 0 .266.016.391.156.313.375.469.688.469.938 0 .547-.578 1.094-1.828 1.094-.719 0-1.109-.141-1.328-.281a1.06 1.06 0 0 1-.5-.937.99.99 0 0 1 .359-.797c.156-.141.234-.172.547-.172zm0 0" class="C"/></symbol><symbol id="AN" class="B"><path d="M-3.922-1.672c.047.063.031.109-.062.109h-1.828c-.641 0-1.047-.047-1.047-.047-.062 0-.094.047-.094.141.094.25.234.984.266 1.391.078.016.234 0 .297-.062v-.094c.031-.437.031-.547.813-.547h4.875c.391 0 .563.016.703.047.078-.047.125-.109.125-.219l-.25-.25c-.109-.094-.109-.156-.031-.266.203-.219.25-.531.25-.875 0-1.016-.922-2.203-2.5-2.203-1.219 0-1.969.891-1.969 1.766 0 .422.172.813.453 1.109zm.297-.062c-.219-.266-.312-.562-.312-.844 0-.609.734-1.109 1.703-1.109 1.141 0 2 .453 2 1.406 0 .313-.219.516-.469.719h-2.5c-.203 0-.312-.047-.422-.172zm0 0" class="C"/></symbol><symbol id="AO" class="B"><path d="M-1.375-.484L0-.547l-.031-.25c0-.078 0-.125.016-.203a3.06 3.06 0 0 0 .109-.906c0-.562-.266-1.578-1.25-1.578-.672 0-1.078.484-1.328 1.156-.234.609-.375 1-.922 1-.406 0-.641-.359-.641-.703 0-.219.078-.797.922-.922.063-.062.047-.25 0-.312l-1.062-.062c-.047.313-.187.781-.187 1.297 0 .75.484 1.406 1.109 1.406.734 0 1.047-.328 1.359-1.094.344-.828.547-1.016.984-1.016.484 0 .688.484.688.844 0 .391-.125.609-.234.719-.234.219-.672.328-.922.391-.062.047-.047.25.016.297zm0 0" class="C"/></symbol><symbol id="AP" class="B"><path d="M-3.562-1.828c.063.047.078.109 0 .109-.281.016-.672.031-.766.078-.047.031-.078.047-.078.125.109.281.203.531.297 1.219.047.031.219 0 .266-.016.063-.531.109-.641.688-.641h1.938c.813 0 .859.094.906.688.063.063.266.063.328 0L0-1.359l.016-1c-.062-.047-.266-.047-.328 0-.047.516-.094.609-.906.609h-1.625c-.219 0-.344-.078-.422-.156-.375-.391-.594-.828-.594-1.219 0-.203.125-.406.359-.531.203-.109.469-.125.766-.125h1.516c.813 0 .859.109.906.625.063.047.266.047.328 0L0-4.172.016-5.234c-.062-.047-.266-.047-.328 0-.047.563-.094.672-.906.672h-1.484c-.547 0-1.031.031-1.328.266-.219.172-.344.484-.344.828 0 .484.125 1.047.813 1.641zm0 0" class="C"/></symbol><symbol id="AQ" class="B"><path d="M-.906-3.969c-.094.047-.125.125-.141.203.438.344.656.781.656 1.203 0 .734-.734 1.344-1.906 1.344-1.094 0-1.75-.484-1.75-1.141 0-.594.344-.672.703-.719.266-.016.359-.156.359-.375 0-.203-.141-.484-.437-.484-.562 0-.953.563-.953 1.531 0 .984.891 2.031 2.297 2.031 1.297 0 2.172-.719 2.172-1.969 0-.594-.187-1.125-1-1.625zm0 0" class="C"/></symbol><clipPath id="AR"><path d="M35 231.363h351.68v18.195H35zm0 0"/></clipPath><linearGradient id="AS" gradientUnits="userSpaceOnUse" x1="34.662" y1="258.657" x2="386.681" y2="258.657"><stop offset="0" stop-color="rgb(50%,0%,50%)"/><stop offset=".109" stop-color="rgb(50%,0%,50%)"/><stop offset=".113" stop-color="rgb(49.139404%,0%,50.85907%)"/><stop offset=".117" stop-color="rgb(48.278809%,0%,51.719666%)"/><stop offset=".121" stop-color="rgb(47.348022%,0%,52.648926%)"/><stop offset=".125" stop-color="rgb(46.418762%,0%,53.579712%)"/><stop offset=".129" stop-color="rgb(45.487976%,0%,54.508972%)"/><stop offset=".133" stop-color="rgb(44.558716%,0%,55.439758%)"/><stop offset=".137" stop-color="rgb(43.62793%,0%,56.369019%)"/><stop offset=".141" stop-color="rgb(42.698669%,0%,57.299805%)"/><stop offset=".145" stop-color="rgb(41.767883%,0%,58.229065%)"/><stop offset=".148" stop-color="rgb(40.838623%,0%,59.159851%)"/><stop offset=".152" stop-color="rgb(39.907837%,0%,60.089111%)"/><stop offset=".156" stop-color="rgb(38.978577%,0%,61.019897%)"/><stop offset=".16" stop-color="rgb(38.049316%,0%,61.949158%)"/><stop offset=".164" stop-color="rgb(37.120056%,0%,62.878418%)"/><stop offset=".168" stop-color="rgb(36.18927%,0%,63.807678%)"/><stop offset=".172" stop-color="rgb(35.26001%,0%,64.738464%)"/><stop offset=".176" stop-color="rgb(34.329224%,0%,65.667725%)"/><stop offset=".18" stop-color="rgb(33.399963%,0%,66.598511%)"/><stop offset=".184" stop-color="rgb(32.469177%,0%,67.527771%)"/><stop offset=".188" stop-color="rgb(31.539917%,0%,68.458557%)"/><stop offset=".191" stop-color="rgb(30.609131%,0%,69.387817%)"/><stop offset=".195" stop-color="rgb(29.679871%,0%,70.318604%)"/><stop offset=".199" stop-color="rgb(28.749084%,0%,71.247864%)"/><stop offset=".203" stop-color="rgb(27.819824%,0%,72.17865%)"/><stop offset=".207" stop-color="rgb(26.889038%,0%,73.10791%)"/><stop offset=".211" stop-color="rgb(25.959778%,0%,74.038696%)"/><stop offset=".215" stop-color="rgb(25.028992%,0%,74.967957%)"/><stop offset=".219" stop-color="rgb(24.099731%,0%,75.898743%)"/><stop offset=".223" stop-color="rgb(23.170471%,0%,76.828003%)"/><stop offset=".227" stop-color="rgb(22.241211%,0%,77.757263%)"/><stop offset=".23" stop-color="rgb(21.310425%,0%,78.686523%)"/><stop offset=".234" stop-color="rgb(20.381165%,0%,79.61731%)"/><stop offset=".238" stop-color="rgb(19.450378%,0%,80.54657%)"/><stop offset=".242" stop-color="rgb(18.521118%,0%,81.477356%)"/><stop offset=".246" stop-color="rgb(17.590332%,0%,82.406616%)"/><stop offset=".25" stop-color="rgb(16.661072%,0%,83.337402%)"/><stop offset=".254" stop-color="rgb(15.730286%,0%,84.266663%)"/><stop offset=".258" stop-color="rgb(14.801025%,0%,85.197449%)"/><stop offset=".262" stop-color="rgb(13.870239%,0%,86.126709%)"/><stop offset=".266" stop-color="rgb(12.940979%,0%,87.057495%)"/><stop offset=".27" stop-color="rgb(12.010193%,0%,87.986755%)"/><stop offset=".273" stop-color="rgb(11.080933%,0%,88.917542%)"/><stop offset=".277" stop-color="rgb(10.150146%,0%,89.846802%)"/><stop offset=".281" stop-color="rgb(9.220886%,0%,90.777588%)"/><stop offset=".285" stop-color="rgb(8.2901%,0%,91.706848%)"/><stop offset=".289" stop-color="rgb(7.36084%,0%,92.637634%)"/><stop offset=".293" stop-color="rgb(6.43158%,0%,93.566895%)"/><stop offset=".297" stop-color="rgb(5.502319%,0%,94.496155%)"/><stop offset=".301" stop-color="rgb(4.571533%,0%,95.425415%)"/><stop offset=".305" stop-color="rgb(3.642273%,0%,96.356201%)"/><stop offset=".309" stop-color="rgb(2.711487%,0%,97.285461%)"/><stop offset=".313" stop-color="rgb(1.782227%,0%,98.216248%)"/><stop offset=".316" stop-color="rgb(0.891113%,0.134277%,99.107361%)"/><stop offset=".32" stop-color="rgb(0%,0.268555%,100%)"/><stop offset=".324" stop-color="rgb(0%,3.523254%,100%)"/><stop offset=".328" stop-color="rgb(0%,6.77948%,100%)"/><stop offset=".332" stop-color="rgb(0%,10.03418%,100%)"/><stop offset=".336" stop-color="rgb(0%,13.288879%,100%)"/><stop offset=".34" stop-color="rgb(0%,16.543579%,100%)"/><stop offset=".344" stop-color="rgb(0%,19.798279%,100%)"/><stop offset=".348" stop-color="rgb(0%,23.052979%,100%)"/><stop offset=".352" stop-color="rgb(0%,26.307678%,100%)"/><stop offset=".355" stop-color="rgb(0%,29.562378%,100%)"/><stop offset=".359" stop-color="rgb(0%,32.817078%,100%)"/><stop offset=".363" stop-color="rgb(0%,36.071777%,100%)"/><stop offset=".367" stop-color="rgb(0%,39.326477%,100%)"/><stop offset=".371" stop-color="rgb(0%,42.581177%,100%)"/><stop offset=".375" stop-color="rgb(0%,45.835876%,100%)"/><stop offset=".379" stop-color="rgb(0%,49.090576%,100%)"/><stop offset=".383" stop-color="rgb(0%,52.345276%,100%)"/><stop offset=".387" stop-color="rgb(0%,55.599976%,100%)"/><stop offset=".391" stop-color="rgb(0%,58.854675%,100%)"/><stop offset=".395" stop-color="rgb(0%,62.109375%,100%)"/><stop offset=".398" stop-color="rgb(0%,65.364075%,100%)"/><stop offset=".402" stop-color="rgb(0%,68.618774%,100%)"/><stop offset=".406" stop-color="rgb(0%,71.875%,100%)"/><stop offset=".41" stop-color="rgb(0%,75.1297%,100%)"/><stop offset=".414" stop-color="rgb(0%,78.384399%,100%)"/><stop offset=".418" stop-color="rgb(0%,81.639099%,100%)"/><stop offset=".422" stop-color="rgb(0%,84.893799%,100%)"/><stop offset=".426" stop-color="rgb(0%,88.148499%,100%)"/><stop offset=".43" stop-color="rgb(0%,91.403198%,100%)"/><stop offset=".434" stop-color="rgb(0%,94.657898%,100%)"/><stop offset=".438" stop-color="rgb(0%,97.912598%,100%)"/><stop offset=".441" stop-color="rgb(0%,98.956299%,96.682739%)"/><stop offset=".445" stop-color="rgb(0%,100%,93.365479%)"/><stop offset=".449" stop-color="rgb(0%,100%,88.482666%)"/><stop offset=".453" stop-color="rgb(0%,100%,83.599854%)"/><stop offset=".457" stop-color="rgb(0%,100%,78.717041%)"/><stop offset=".461" stop-color="rgb(0%,100%,73.835754%)"/><stop offset=".465" stop-color="rgb(0%,100%,68.952942%)"/><stop offset=".469" stop-color="rgb(0%,100%,64.071655%)"/><stop offset=".473" stop-color="rgb(0%,100%,59.188843%)"/><stop offset=".477" stop-color="rgb(0%,100%,54.307556%)"/><stop offset=".48" stop-color="rgb(0%,100%,49.424744%)"/><stop offset=".484" stop-color="rgb(0%,100%,44.543457%)"/><stop offset=".488" stop-color="rgb(0%,100%,39.660645%)"/><stop offset=".492" stop-color="rgb(0%,100%,34.779358%)"/><stop offset=".496" stop-color="rgb(0%,100%,29.896545%)"/><stop offset=".5" stop-color="rgb(0%,100%,25.015259%)"/><stop offset=".504" stop-color="rgb(0%,100%,20.132446%)"/><stop offset=".508" stop-color="rgb(0%,100%,15.25116%)"/><stop offset=".512" stop-color="rgb(0%,100%,10.368347%)"/><stop offset=".516" stop-color="rgb(0%,100%,5.485535%)"/><stop offset=".52" stop-color="rgb(1.554871%,100%,2.742004%)"/><stop offset=".523" stop-color="rgb(3.109741%,100%,0%)"/><stop offset=".527" stop-color="rgb(6.660461%,100%,0%)"/><stop offset=".531" stop-color="rgb(10.211182%,100%,0%)"/><stop offset=".535" stop-color="rgb(13.761902%,100%,0%)"/><stop offset=".539" stop-color="rgb(17.312622%,100%,0%)"/><stop offset=".543" stop-color="rgb(20.863342%,100%,0%)"/><stop offset=".547" stop-color="rgb(24.414062%,100%,0%)"/><stop offset=".551" stop-color="rgb(27.964783%,100%,0%)"/><stop offset=".555" stop-color="rgb(31.515503%,100%,0%)"/><stop offset=".559" stop-color="rgb(35.066223%,100%,0%)"/><stop offset=".563" stop-color="rgb(38.616943%,100%,0%)"/><stop offset=".566" stop-color="rgb(42.167664%,100%,0%)"/><stop offset=".57" stop-color="rgb(45.718384%,100%,0%)"/><stop offset=".574" stop-color="rgb(49.269104%,100%,0%)"/><stop offset=".578" stop-color="rgb(52.819824%,100%,0%)"/><stop offset=".582" stop-color="rgb(56.369019%,100%,0%)"/><stop offset=".586" stop-color="rgb(59.919739%,100%,0%)"/><stop offset=".59" stop-color="rgb(63.470459%,100%,0%)"/><stop offset=".594" stop-color="rgb(67.021179%,100%,0%)"/><stop offset=".598" stop-color="rgb(70.571899%,100%,0%)"/><stop offset=".602" stop-color="rgb(74.12262%,100%,0%)"/><stop offset=".605" stop-color="rgb(77.67334%,100%,0%)"/><stop offset=".609" stop-color="rgb(81.22406%,100%,0%)"/><stop offset=".613" stop-color="rgb(84.77478%,100%,0%)"/><stop offset=".617" stop-color="rgb(88.3255%,100%,0%)"/><stop offset=".621" stop-color="rgb(91.876221%,100%,0%)"/><stop offset=".625" stop-color="rgb(95.426941%,100%,0%)"/><stop offset=".629" stop-color="rgb(97.712708%,99.226379%,0%)"/><stop offset=".633" stop-color="rgb(100%,98.454285%,0%)"/><stop offset=".637" stop-color="rgb(100%,96.284485%,0%)"/><stop offset=".641" stop-color="rgb(100%,94.114685%,0%)"/><stop offset=".645" stop-color="rgb(100%,91.944885%,0%)"/><stop offset=".648" stop-color="rgb(100%,89.775085%,0%)"/><stop offset=".652" stop-color="rgb(100%,87.60376%,0%)"/><stop offset=".656" stop-color="rgb(100%,85.43396%,0%)"/><stop offset=".66" stop-color="rgb(100%,83.26416%,0%)"/><stop offset=".664" stop-color="rgb(100%,81.09436%,0%)"/><stop offset=".668" stop-color="rgb(100%,78.924561%,0%)"/><stop offset=".672" stop-color="rgb(100%,76.754761%,0%)"/><stop offset=".676" stop-color="rgb(100%,74.584961%,0%)"/><stop offset=".68" stop-color="rgb(100%,72.415161%,0%)"/><stop offset=".684" stop-color="rgb(100%,70.245361%,0%)"/><stop offset=".688" stop-color="rgb(100%,68.075562%,0%)"/><stop offset=".691" stop-color="rgb(100%,65.905762%,0%)"/><stop offset=".695" stop-color="rgb(100%,63.735962%,0%)"/><stop offset=".699" stop-color="rgb(100%,61.566162%,0%)"/><stop offset=".703" stop-color="rgb(100%,59.396362%,0%)"/><stop offset=".707" stop-color="rgb(100%,57.226562%,0%)"/><stop offset=".711" stop-color="rgb(100%,55.056763%,0%)"/><stop offset=".715" stop-color="rgb(100%,52.886963%,0%)"/><stop offset=".719" stop-color="rgb(100%,50.717163%,0%)"/><stop offset=".723" stop-color="rgb(100%,49.775696%,0%)"/><stop offset=".727" stop-color="rgb(100%,48.835754%,0%)"/><stop offset=".73" stop-color="rgb(100%,48.136902%,0%)"/><stop offset=".734" stop-color="rgb(100%,47.439575%,0%)"/><stop offset=".738" stop-color="rgb(100%,46.742249%,0%)"/><stop offset=".742" stop-color="rgb(100%,46.044922%,0%)"/><stop offset=".746" stop-color="rgb(100%,45.347595%,0%)"/><stop offset=".75" stop-color="rgb(100%,44.650269%,0%)"/><stop offset=".754" stop-color="rgb(100%,43.952942%,0%)"/><stop offset=".758" stop-color="rgb(100%,43.255615%,0%)"/><stop offset=".762" stop-color="rgb(100%,42.558289%,0%)"/><stop offset=".766" stop-color="rgb(100%,41.860962%,0%)"/><stop offset=".77" stop-color="rgb(100%,41.163635%,0%)"/><stop offset=".773" stop-color="rgb(100%,40.466309%,0%)"/><stop offset=".777" stop-color="rgb(100%,39.767456%,0%)"/><stop offset=".781" stop-color="rgb(100%,39.070129%,0%)"/><stop offset=".785" stop-color="rgb(100%,38.372803%,0%)"/><stop offset=".789" stop-color="rgb(100%,37.675476%,0%)"/><stop offset=".793" stop-color="rgb(100%,36.978149%,0%)"/><stop offset=".797" stop-color="rgb(100%,36.280823%,0%)"/><stop offset=".801" stop-color="rgb(100%,35.583496%,0%)"/><stop offset=".805" stop-color="rgb(100%,34.886169%,0%)"/><stop offset=".809" stop-color="rgb(100%,34.188843%,0%)"/><stop offset=".813" stop-color="rgb(100%,33.491516%,0%)"/><stop offset=".816" stop-color="rgb(100%,32.794189%,0%)"/><stop offset=".82" stop-color="rgb(100%,32.096863%,0%)"/><stop offset=".824" stop-color="rgb(100%,31.39801%,0%)"/><stop offset=".828" stop-color="rgb(100%,30.700684%,0%)"/><stop offset=".832" stop-color="rgb(100%,30.003357%,0%)"/><stop offset=".836" stop-color="rgb(100%,29.30603%,0%)"/><stop offset=".84" stop-color="rgb(100%,28.608704%,0%)"/><stop offset=".844" stop-color="rgb(100%,27.911377%,0%)"/><stop offset=".848" stop-color="rgb(100%,27.21405%,0%)"/><stop offset=".852" stop-color="rgb(100%,26.516724%,0%)"/><stop offset=".855" stop-color="rgb(100%,25.819397%,0%)"/><stop offset=".859" stop-color="rgb(100%,25.12207%,0%)"/><stop offset=".863" stop-color="rgb(100%,24.424744%,0%)"/><stop offset=".867" stop-color="rgb(100%,23.727417%,0%)"/><stop offset=".871" stop-color="rgb(100%,23.028564%,0%)"/><stop offset=".875" stop-color="rgb(100%,22.331238%,0%)"/><stop offset=".879" stop-color="rgb(100%,21.633911%,0%)"/><stop offset=".883" stop-color="rgb(100%,20.936584%,0%)"/><stop offset=".887" stop-color="rgb(100%,20.239258%,0%)"/><stop offset=".891" stop-color="rgb(100%,19.541931%,0%)"/><stop offset=".895" stop-color="rgb(100%,18.844604%,0%)"/><stop offset=".898" stop-color="rgb(100%,18.147278%,0%)"/><stop offset=".902" stop-color="rgb(100%,17.449951%,0%)"/><stop offset=".906" stop-color="rgb(100%,16.752625%,0%)"/><stop offset=".91" stop-color="rgb(100%,16.055298%,0%)"/><stop offset=".914" stop-color="rgb(100%,15.357971%,0%)"/><stop offset=".918" stop-color="rgb(100%,14.660645%,0%)"/><stop offset=".922" stop-color="rgb(100%,13.963318%,0%)"/><stop offset=".926" stop-color="rgb(100%,13.264465%,0%)"/><stop offset=".93" stop-color="rgb(100%,12.567139%,0%)"/><stop offset=".934" stop-color="rgb(100%,11.869812%,0%)"/><stop offset=".938" stop-color="rgb(100%,11.172485%,0%)"/><stop offset=".941" stop-color="rgb(100%,10.475159%,0%)"/><stop offset=".945" stop-color="rgb(100%,9.777832%,0%)"/><stop offset=".949" stop-color="rgb(100%,9.080505%,0%)"/><stop offset=".953" stop-color="rgb(100%,8.383179%,0%)"/><stop offset=".957" stop-color="rgb(100%,7.685852%,0%)"/><stop offset=".961" stop-color="rgb(100%,6.988525%,0%)"/><stop offset=".965" stop-color="rgb(100%,6.291199%,0%)"/><stop offset=".969" stop-color="rgb(100%,5.593872%,0%)"/><stop offset=".973" stop-color="rgb(100%,4.89502%,0%)"/><stop offset=".977" stop-color="rgb(100%,4.197693%,0%)"/><stop offset=".98" stop-color="rgb(100%,3.500366%,0%)"/><stop offset=".984" stop-color="rgb(100%,2.80304%,0%)"/><stop offset=".988" stop-color="rgb(100%,2.105713%,0%)"/><stop offset=".992" stop-color="rgb(100%,1.408386%,0%)"/><stop offset=".996" stop-color="rgb(100%,0.71106%,0%)"/><stop offset="1" stop-color="rgb(100%,0.0137329%,0%)"/></linearGradient></defs><g class="E D"><g stroke="rgb(75%,75%,75%)" class="I"><path d="M66.664 194.977V13.035M120 194.977V13.035m53.336 181.941V13.035m53.336 181.941V13.035m53.336 181.941V13.035m53.336 181.941V13.035m53.336 181.941V13.035"/><path d="M34.66 176.781h352.02M34.66 158.586h352.02M34.66 140.395h352.02M34.66 122.199h352.02M34.66 85.813h352.02M34.66 67.617h352.02M34.66 49.422h352.02M34.66 31.227h352.02M34.66 194.977h352.02M34.66 104.004h352.02M34.66 13.035h352.02"/></g><path d="M77.332 194.977v-2.836M88 194.977v-2.836m10.664 2.836v-2.836m10.668 2.836v-2.836m21.336 2.836v-2.836m10.668 2.836v-2.836M152 194.977v-2.836m10.668 2.836v-2.836m21.336 2.836v-2.836m10.668 2.836v-2.836m10.664 2.836v-2.836m10.668 2.836v-2.836m21.336 2.836v-2.836m10.668 2.836v-2.836m10.664 2.836v-2.836m10.668 2.836v-2.836m21.336 2.836v-2.836m10.668 2.836v-2.836m10.668 2.836v-2.836m10.664 2.836v-2.836m21.336 2.836v-2.836m10.668 2.836v-2.836m10.668 2.836v-2.836m10.664 2.836v-2.836M77.332 13.035v2.836M88 13.035v2.836m10.664-2.836v2.836m10.668-2.836v2.836m21.336-2.836v2.836m10.668-2.836v2.836M152 13.035v2.836m10.668-2.836v2.836m21.336-2.836v2.836m10.668-2.836v2.836m10.664-2.836v2.836m10.668-2.836v2.836m21.336-2.836v2.836m10.668-2.836v2.836m10.664-2.836v2.836m10.668-2.836v2.836m21.336-2.836v2.836m10.668-2.836v2.836m10.668-2.836v2.836m10.664-2.836v2.836m21.336-2.836v2.836m10.668-2.836v2.836m10.668-2.836v2.836m10.664-2.836v2.836M66.664 194.977v-4.254M120 194.977v-4.254m53.336 4.254v-4.254m53.336 4.254v-4.254m53.336 4.254v-4.254m53.336 4.254v-4.254m53.336 4.254v-4.254M66.664 13.035v4.25M120 13.035v4.25m53.336-4.25v4.25m53.336-4.25v4.25m53.336-4.25v4.25m53.336-4.25v4.25m53.336-4.25v4.25M34.66 176.781h2.836m-2.836-18.195h2.836m-2.836-18.191h2.836M34.66 122.2h2.836M34.66 85.813h2.836M34.66 67.617h2.836M34.66 49.422h2.836M34.66 31.227h2.836M386.68 176.781h-2.836m2.836-18.195h-2.836m2.836-18.191h-2.836m2.836-18.195h-2.836m2.836-36.387h-2.836m2.836-18.195h-2.836m2.836-18.195h-2.836m2.836-18.195h-2.836M34.66 194.977h4.254m-4.254-90.973h4.254M34.66 13.035h4.254M386.68 194.977h-4.25m4.25-90.973h-4.25m4.25-90.969h-4.25" stroke-width=".199" stroke="rgb(50%,50%,50%)"/><path d="M34.66 194.977V13.035h352.02v181.941zm0 0" class="H I"/></g><g class="G"><use xlink:href="#A" x="59.714" y="204.573"/><use xlink:href="#B" x="64.347" y="204.573"/><use xlink:href="#B" x="68.979" y="204.573"/><use xlink:href="#A" x="113.05" y="204.583"/><use xlink:href="#C" x="117.683" y="204.583"/><use xlink:href="#B" x="122.315" y="204.583"/><use xlink:href="#C" x="166.385" y="204.583"/><use xlink:href="#B" x="171.018" y="204.583"/><use xlink:href="#B" x="175.65" y="204.583"/><use xlink:href="#C" x="219.721" y="204.583"/><use xlink:href="#C" x="224.354" y="204.583"/><use xlink:href="#B" x="228.986" y="204.583"/><use xlink:href="#D" x="273.056" y="204.583"/><use xlink:href="#B" x="277.689" y="204.583"/><use xlink:href="#B" x="282.321" y="204.583"/><use xlink:href="#D" x="326.391" y="204.583"/><use xlink:href="#C" x="331.024" y="204.583"/><use xlink:href="#B" x="335.656" y="204.583"/><use xlink:href="#E" x="379.727" y="204.613"/><use xlink:href="#B" x="384.36" y="204.613"/><use xlink:href="#B" x="388.992" y="204.613"/><use xlink:href="#B" x="26.509" y="197.965"/><use xlink:href="#C" x="21.877" y="106.995"/><use xlink:href="#B" x="26.51" y="106.995"/><use xlink:href="#F" x="17.244" y="16.025"/><use xlink:href="#B" x="21.877" y="16.025"/><use xlink:href="#B" x="26.509" y="16.025"/></g><path d="M34.332 86.035l10.742-16.594c5.359-8.152 5.328-7.039 10.719-16.039s5.547-11.277 10.871-20 5.297-9.824 10.441-14.91 4.867-5.496 10.168-5.457 5.496.234 11.051 5.609 5.754 4.578 11.191 15.922 5.242 12.785 10.57 29.496 5.434 21.695 10.762 37.418 5.117 14.121 10.582 25.531 5.949 11.5 11.309 20.152 5.035 8.664 10.145 14.484 4.957 4.703 10.316 8.828 5.668 3.992 11.133 7.695 5.316 4.133 10.754 7.125a75.39 75.39 0 0 0 11.031 4.859" class="D E F J"/><g fill="rgb(0%,0%,100%)"><use xlink:href="#G" x="73.168" y="9.417"/><use xlink:href="#H" x="77.801" y="9.417"/><use xlink:href="#I" x="82.433" y="9.417"/><use xlink:href="#J" x="89.557" y="9.417"/><use xlink:href="#K" x="94.956" y="9.417"/></g><path d="M66.738 135.27s5.57-.453 10.719-2.18 4.602-1.59 9.91-4.73 5.777-2.09 11.363-7.848 5.711-6.336 11.008-15.207 4.938-9.879 10.199-20.305l10.867-21.434c5.305-10.57 5.066-11.652 10.371-20.879s5.477-9.383 10.859-16.066 5.492-7.305 10.688-10.695 4.926-3.695 10.113-2.891 5.203.258 10.656 6.109 5.559 6.832 11.168 17.316 5.586 11.711 11.285 24.668 6.125 12.844 11.531 27.215 5.207 16.805 10.125 30.32 4.543 13.824 9.555 23.813 5.09 9.156 10.52 16.172 5.602 6.465 11.223 11.926 5.727 5.754 11.285 9.945 10.977 6.828 10.977 6.828" class="D E F H K"/><g class="G"><use xlink:href="#G" x="156.371" y="9.397"/><use xlink:href="#L" x="161.004" y="9.397"/><use xlink:href="#M" x="165.636" y="9.397"/><use xlink:href="#J" x="172.76" y="9.397"/><use xlink:href="#K" x="178.159" y="9.397"/></g><path d="M66.879 129.895l10.707.648 9.91.93s6.004 1.457 11.563 1.211 5.434-.461 10.699-2.191 5.121-1.598 10.391-4.742 5.445-2.309 10.711-7.855 5.016-7.406 10.367-14.371 5.633-5.352 11.063-13.52 5.547-9.742 10.688-19.184 4.719-9.531 9.902-18.621 5.465-9.883 10.848-17.773 5.344-8.539 10.699-13.812 5.188-5.848 10.742-7.309 6.113-1.242 11.5 1.469 5.047 2.152 10.066 9.379 5.023 8.313 10.039 19.57 4.555 12.203 10.051 25.508l11.945 27.773c5.734 12.813 5.52 12.34 11.02 23.527s5.652 12.055 11 21.262 5.207 8.727 10.41 15.598 5.195 6.605 10.422 11.922 5.18 5.68 10.508 9.371 5.664 2.922 10.824 5.414a372.98 372.98 0 0 0 9.848 4.559" class="D E F L"/><g fill="rgb(0%,100%,0%)"><use xlink:href="#N" x="194.773" y="9.407"/><use xlink:href="#O" x="199.406" y="9.407"/><use xlink:href="#G" x="204.038" y="9.407"/><use xlink:href="#J" x="211.162" y="9.407"/><use xlink:href="#K" x="216.561" y="9.407"/></g><path d="M66.867 127.348s5.566 1.531 10.719 3.48 4.586 1.953 9.91 4.324 5.852 3.293 11.414 5.168 5.555 1.313 10.859 2.336 5.074 2.512 10.391 1.766 5.668-1.875 10.891-4.738 4.664-2.168 10.027-6.73 5.871-5.211 11.445-11.539 5.789-6.555 10.883-13.809 4.316-7.691 9.516-15.227 5.801-6.559 11.293-14.937 5.289-9.816 10.711-18.625 5.566-8.828 11-16.645 5.496-8.684 10.75-14.668 5.227-5.781 10.297-9.293 4.941-3.801 10.004-4.766 4.848-1.457 10.262.895 5.742 2.434 11.414 8.531 6.023 7.035 11.297 15.887 4.609 8.727 9.813 19.559 5.742 11.352 11.02 23.805 4.648 13.543 10.125 26.07 6.473 14.32 11.797 24.09 4.52 7.238 9.527 15.027 4.887 9.012 10.516 16.164 6.871 7.801 12.023 12.48 3.68 3.203 8.609 6.258 11.125 5.973 11.125 5.973" class="D E F M"/><g fill="rgb(100%,0%,0%)"><use xlink:href="#N" x="226.774" y="9.407"/><use xlink:href="#P" x="231.407" y="9.407"/><use xlink:href="#G" x="236.039" y="9.407"/><use xlink:href="#J" x="243.163" y="9.407"/><use xlink:href="#K" x="248.562" y="9.407"/></g><g clip-path="url(#AR)"><path d="M34.66 249.559v-18.195h352.02v18.195zm0 0" fill="url(#AS)"/></g><g class="N"><use xlink:href="#j" x="54.357" y="243.132"/><use xlink:href="#k" x="60.633" y="243.132"/><use xlink:href="#l" x="63.521" y="243.132"/><use xlink:href="#m" x="68.461" y="243.132"/><use xlink:href="#n" x="71.375" y="243.132"/><use xlink:href="#o" x="75.76" y="243.132"/><use xlink:href="#p" x="132.071" y="243.132"/><use xlink:href="#m" x="137.935" y="243.132"/><use xlink:href="#q" x="140.849" y="243.132"/><use xlink:href="#n" x="146.211" y="243.132"/><use xlink:href="#r" x="178.638" y="243.132"/><use xlink:href="#s" x="184.968" y="243.132"/><use xlink:href="#t" x="189.972" y="243.132"/><use xlink:href="#u" x="194.508" y="243.132"/><use xlink:href="#v" x="208.994" y="243.132"/><use xlink:href="#w" x="215.557" y="243.132"/><use xlink:href="#n" x="219.323" y="243.132"/><use xlink:href="#n" x="223.771" y="243.132"/><use xlink:href="#u" x="228.155" y="243.132"/><use xlink:href="#x" x="239.829" y="243.132"/><use xlink:href="#n" x="244.787" y="243.132"/><use xlink:href="#m" x="249.172" y="243.132"/><use xlink:href="#m" x="252.086" y="243.132"/><use xlink:href="#l" x="255" y="243.132"/><use xlink:href="#y" x="259.878" y="243.132"/><use xlink:href="#z" x="286.589" y="243.132"/><use xlink:href="#w" x="293.134" y="243.132"/><use xlink:href="#t" x="296.972" y="243.132"/><use xlink:href="#u" x="301.509" y="243.132"/><use xlink:href="#AA" x="307.032" y="243.132"/><use xlink:href="#n" x="311.704" y="243.132"/><use xlink:href="#AB" x="357.393" y="243.132"/><use xlink:href="#n" x="363.813" y="243.132"/><use xlink:href="#AC" x="368.26" y="243.132"/></g><g class="G"><use xlink:href="#Q" x="175.456" y="218.636"/><use xlink:href="#R" x="184.333" y="218.636"/><use xlink:href="#S" x="188.886" y="218.636"/><use xlink:href="#T" x="193.757" y="218.636"/><use xlink:href="#U" x="198.211" y="218.636"/><use xlink:href="#T" x="200.841" y="218.636"/><use xlink:href="#J" x="205.294" y="218.636"/><use xlink:href="#V" x="210.694" y="218.636"/><use xlink:href="#W" x="215.675" y="218.636"/><use xlink:href="#X" x="218.823" y="218.636"/><use xlink:href="#Y" x="226.674" y="218.636"/><use xlink:href="#J" x="229.643" y="218.636"/><use xlink:href="#K" x="235.043" y="218.636"/><use xlink:href="#Z" x="242.913" y="218.636"/><use xlink:href="#AD" x="10.274" y="151.698"/><use xlink:href="#AE" x="10.274" y="144.734"/><use xlink:href="#AF" x="10.274" y="139.713"/><use xlink:href="#AG" x="10.274" y="136.007"/><use xlink:href="#AH" x="10.274" y="128.136"/><use xlink:href="#AI" x="10.274" y="123.583"/><use xlink:href="#AJ" x="10.274" y="120.953"/><use xlink:href="#AK" x="10.274" y="118.253"/><use xlink:href="#AL" x="10.274" y="114.029"/><use xlink:href="#AM" x="10.274" y="109.506"/><use xlink:href="#AH" x="10.274" y="101.974"/><use xlink:href="#AN" x="10.274" y="97.422"/><use xlink:href="#AO" x="10.274" y="92.51"/><use xlink:href="#AE" x="10.274" y="88.625"/><use xlink:href="#AF" x="10.274" y="83.603"/><use xlink:href="#AN" x="10.274" y="79.897"/><use xlink:href="#AH" x="10.274" y="74.986"/><use xlink:href="#AP" x="10.274" y="70.433"/><use xlink:href="#AQ" x="10.274" y="65.033"/><use xlink:href="#AL" x="10.274" y="60.769"/></g><g class="D"><path d="M296.617 72.012h79.305v-53.32h-79.305zm0 0" class="H I N"/><path d="M300.598 26.902h17.008" class="E F J"/></g><g class="G"><use xlink:href="#a" x="323.892" y="29.633"/><use xlink:href="#U" x="329.75" y="29.633"/><use xlink:href="#b" x="332.38" y="29.633"/><use xlink:href="#T" x="337.67" y="29.633"/><use xlink:href="#c" x="344.614" y="29.633"/><use xlink:href="#d" x="348.878" y="29.633"/><use xlink:href="#J" x="353.899" y="29.633"/><use xlink:href="#T" x="359.299" y="29.633"/><use xlink:href="#e" x="363.753" y="29.633"/></g><path d="M300.598 39.336h17.008" class="D E F H K"/><g class="G"><use xlink:href="#f" x="335.832" y="42.066"/><use xlink:href="#d" x="341.68" y="42.066"/><use xlink:href="#g" x="346.771" y="42.066"/><use xlink:href="#e" x="351.812" y="42.066"/></g><path d="M300.598 51.57h17.008" class="D E F L"/><g class="G"><use xlink:href="#h" x="320.594" y="54.101"/><use xlink:href="#i" x="327.418" y="54.101"/><use xlink:href="#T" x="331.045" y="54.101"/><use xlink:href="#T" x="335.568" y="54.101"/><use xlink:href="#J" x="340.021" y="54.101"/><use xlink:href="#c" x="347.912" y="54.101"/><use xlink:href="#d" x="352.176" y="54.101"/><use xlink:href="#J" x="357.197" y="54.101"/><use xlink:href="#T" x="362.596" y="54.101"/><use xlink:href="#e" x="367.05" y="54.101"/></g><path d="M300.598 63.805h17.008" class="D E F M"/><g class="G"><use xlink:href="#f" x="325.301" y="66.534"/><use xlink:href="#T" x="331.149" y="66.534"/><use xlink:href="#g" x="335.672" y="66.534"/><use xlink:href="#c" x="343.204" y="66.534"/><use xlink:href="#d" x="347.468" y="66.534"/><use xlink:href="#J" x="352.489" y="66.534"/><use xlink:href="#T" x="357.889" y="66.534"/><use xlink:href="#e" x="362.342" y="66.534"/></g></svg>