<?xml version="1.0" encoding="utf-8" standalone="no"?>
<!DOCTYPE svg PUBLIC "-//W3C//DTD SVG 1.1//EN"
  "http://www.w3.org/Graphics/SVG/1.1/DTD/svg11.dtd">
<svg xmlns:xlink="http://www.w3.org/1999/xlink" width="460.8pt" height="345.6pt" viewBox="0 0 460.8 345.6" xmlns="http://www.w3.org/2000/svg" version="1.1">
 <metadata>
  <rdf:RDF xmlns:dc="http://purl.org/dc/elements/1.1/" xmlns:cc="http://creativecommons.org/ns#" xmlns:rdf="http://www.w3.org/1999/02/22-rdf-syntax-ns#">
   <cc:Work>
    <dc:type rdf:resource="http://purl.org/dc/dcmitype/StillImage"/>
    <dc:date>2023-11-04T19:48:42.427871</dc:date>
    <dc:format>image/svg+xml</dc:format>
    <dc:creator>
     <cc:Agent>
      <dc:title>Matplotlib v3.8.0, https://matplotlib.org/</dc:title>
     </cc:Agent>
    </dc:creator>
   </cc:Work>
  </rdf:RDF>
 </metadata>
 <defs>
  <style type="text/css">*{stroke-linejoin: round; stroke-linecap: butt}</style>
 </defs>
 <g id="figure_1">
  <g id="patch_1">
   <path d="M 0 345.6 
L 460.8 345.6 
L 460.8 0 
L 0 0 
L 0 345.6 
z
" style="fill: none"/>
  </g>
  <g id="axes_1">
   <g id="patch_2">
    <path d="M 57.6 307.584 
L 414.72 307.584 
L 414.72 41.472 
L 57.6 41.472 
L 57.6 307.584 
z
" style="fill: none"/>
   </g>
   <g id="matplotlib.axis_1">
    <g id="xtick_1">
     <g id="line2d_1">
      <defs>
       <path id="mb989b9ddba" d="M 0 0 
L 0 3.5 
" style="stroke: #000000; stroke-width: 0.8"/>
      </defs>
      <g>
       <use xlink:href="#mb989b9ddba" x="57.6" y="307.584" style="stroke: #000000; stroke-width: 0.8"/>
      </g>
     </g>
     <g id="text_1">
      <!-- −1 -->
      <g transform="translate(50.228906 322.182437) scale(0.1 -0.1)">
       <defs>
        <path id="DejaVuSans-2212" d="M 678 2272 
L 4684 2272 
L 4684 1741 
L 678 1741 
L 678 2272 
z
" transform="scale(0.015625)"/>
        <path id="DejaVuSans-31" d="M 794 531 
L 1825 531 
L 1825 4091 
L 703 3866 
L 703 4441 
L 1819 4666 
L 2450 4666 
L 2450 531 
L 3481 531 
L 3481 0 
L 794 0 
L 794 531 
z
" transform="scale(0.015625)"/>
       </defs>
       <use xlink:href="#DejaVuSans-2212"/>
       <use xlink:href="#DejaVuSans-31" x="83.789062"/>
      </g>
     </g>
    </g>
    <g id="xtick_2">
     <g id="line2d_2">
      <g>
       <use xlink:href="#mb989b9ddba" x="117.12" y="307.584" style="stroke: #000000; stroke-width: 0.8"/>
      </g>
     </g>
     <g id="text_2">
      <!-- 0 -->
      <g transform="translate(113.93875 322.182437) scale(0.1 -0.1)">
       <defs>
        <path id="DejaVuSans-30" d="M 2034 4250 
Q 1547 4250 1301 3770 
Q 1056 3291 1056 2328 
Q 1056 1369 1301 889 
Q 1547 409 2034 409 
Q 2525 409 2770 889 
Q 3016 1369 3016 2328 
Q 3016 3291 2770 3770 
Q 2525 4250 2034 4250 
z
M 2034 4750 
Q 2819 4750 3233 4129 
Q 3647 3509 3647 2328 
Q 3647 1150 3233 529 
Q 2819 -91 2034 -91 
Q 1250 -91 836 529 
Q 422 1150 422 2328 
Q 422 3509 836 4129 
Q 1250 4750 2034 4750 
z
" transform="scale(0.015625)"/>
       </defs>
       <use xlink:href="#DejaVuSans-30"/>
      </g>
     </g>
    </g>
    <g id="xtick_3">
     <g id="line2d_3">
      <g>
       <use xlink:href="#mb989b9ddba" x="176.64" y="307.584" style="stroke: #000000; stroke-width: 0.8"/>
      </g>
     </g>
     <g id="text_3">
      <!-- 1 -->
      <g transform="translate(173.45875 322.182437) scale(0.1 -0.1)">
       <use xlink:href="#DejaVuSans-31"/>
      </g>
     </g>
    </g>
    <g id="xtick_4">
     <g id="line2d_4">
      <g>
       <use xlink:href="#mb989b9ddba" x="236.16" y="307.584" style="stroke: #000000; stroke-width: 0.8"/>
      </g>
     </g>
     <g id="text_4">
      <!-- 2 -->
      <g transform="translate(232.97875 322.182437) scale(0.1 -0.1)">
       <defs>
        <path id="DejaVuSans-32" d="M 1228 531 
L 3431 531 
L 3431 0 
L 469 0 
L 469 531 
Q 828 903 1448 1529 
Q 2069 2156 2228 2338 
Q 2531 2678 2651 2914 
Q 2772 3150 2772 3378 
Q 2772 3750 2511 3984 
Q 2250 4219 1831 4219 
Q 1534 4219 1204 4116 
Q 875 4013 500 3803 
L 500 4441 
Q 881 4594 1212 4672 
Q 1544 4750 1819 4750 
Q 2544 4750 2975 4387 
Q 3406 4025 3406 3419 
Q 3406 3131 3298 2873 
Q 3191 2616 2906 2266 
Q 2828 2175 2409 1742 
Q 1991 1309 1228 531 
z
" transform="scale(0.015625)"/>
       </defs>
       <use xlink:href="#DejaVuSans-32"/>
      </g>
     </g>
    </g>
    <g id="xtick_5">
     <g id="line2d_5">
      <g>
       <use xlink:href="#mb989b9ddba" x="295.68" y="307.584" style="stroke: #000000; stroke-width: 0.8"/>
      </g>
     </g>
     <g id="text_5">
      <!-- 3 -->
      <g transform="translate(292.49875 322.182437) scale(0.1 -0.1)">
       <defs>
        <path id="DejaVuSans-33" d="M 2597 2516 
Q 3050 2419 3304 2112 
Q 3559 1806 3559 1356 
Q 3559 666 3084 287 
Q 2609 -91 1734 -91 
Q 1441 -91 1130 -33 
Q 819 25 488 141 
L 488 750 
Q 750 597 1062 519 
Q 1375 441 1716 441 
Q 2309 441 2620 675 
Q 2931 909 2931 1356 
Q 2931 1769 2642 2001 
Q 2353 2234 1838 2234 
L 1294 2234 
L 1294 2753 
L 1863 2753 
Q 2328 2753 2575 2939 
Q 2822 3125 2822 3475 
Q 2822 3834 2567 4026 
Q 2313 4219 1838 4219 
Q 1578 4219 1281 4162 
Q 984 4106 628 3988 
L 628 4550 
Q 988 4650 1302 4700 
Q 1616 4750 1894 4750 
Q 2613 4750 3031 4423 
Q 3450 4097 3450 3541 
Q 3450 3153 3228 2886 
Q 3006 2619 2597 2516 
z
" transform="scale(0.015625)"/>
       </defs>
       <use xlink:href="#DejaVuSans-33"/>
      </g>
     </g>
    </g>
    <g id="xtick_6">
     <g id="line2d_6">
      <g>
       <use xlink:href="#mb989b9ddba" x="355.2" y="307.584" style="stroke: #000000; stroke-width: 0.8"/>
      </g>
     </g>
     <g id="text_6">
      <!-- 4 -->
      <g transform="translate(352.01875 322.182437) scale(0.1 -0.1)">
       <defs>
        <path id="DejaVuSans-34" d="M 2419 4116 
L 825 1625 
L 2419 1625 
L 2419 4116 
z
M 2253 4666 
L 3047 4666 
L 3047 1625 
L 3713 1625 
L 3713 1100 
L 3047 1100 
L 3047 0 
L 2419 0 
L 2419 1100 
L 313 1100 
L 313 1709 
L 2253 4666 
z
" transform="scale(0.015625)"/>
       </defs>
       <use xlink:href="#DejaVuSans-34"/>
      </g>
     </g>
    </g>
    <g id="xtick_7">
     <g id="line2d_7">
      <g>
       <use xlink:href="#mb989b9ddba" x="414.72" y="307.584" style="stroke: #000000; stroke-width: 0.8"/>
      </g>
     </g>
     <g id="text_7">
      <!-- 5 -->
      <g transform="translate(411.53875 322.182437) scale(0.1 -0.1)">
       <defs>
        <path id="DejaVuSans-35" d="M 691 4666 
L 3169 4666 
L 3169 4134 
L 1269 4134 
L 1269 2991 
Q 1406 3038 1543 3061 
Q 1681 3084 1819 3084 
Q 2600 3084 3056 2656 
Q 3513 2228 3513 1497 
Q 3513 744 3044 326 
Q 2575 -91 1722 -91 
Q 1428 -91 1123 -41 
Q 819 9 494 109 
L 494 744 
Q 775 591 1075 516 
Q 1375 441 1709 441 
Q 2250 441 2565 725 
Q 2881 1009 2881 1497 
Q 2881 1984 2565 2268 
Q 2250 2553 1709 2553 
Q 1456 2553 1204 2497 
Q 953 2441 691 2322 
L 691 4666 
z
" transform="scale(0.015625)"/>
       </defs>
       <use xlink:href="#DejaVuSans-35"/>
      </g>
     </g>
    </g>
    <g id="text_8">
     <!-- $k_B T$ -->
     <g transform="translate(227.66 335.860562) scale(0.1 -0.1)">
      <defs>
       <path id="DejaVuSans-Oblique-6b" d="M 1172 4863 
L 1747 4863 
L 1197 2028 
L 3169 3500 
L 3916 3500 
L 1716 1825 
L 3322 0 
L 2625 0 
L 1131 1709 
L 800 0 
L 225 0 
L 1172 4863 
z
" transform="scale(0.015625)"/>
       <path id="DejaVuSans-Oblique-42" d="M 1081 4666 
L 2694 4666 
Q 3350 4666 3675 4422 
Q 4000 4178 4000 3688 
Q 4000 3238 3720 2911 
Q 3441 2584 2988 2516 
Q 3375 2428 3569 2181 
Q 3763 1934 3763 1522 
Q 3763 819 3242 409 
Q 2722 0 1819 0 
L 172 0 
L 1081 4666 
z
M 1234 2228 
L 903 519 
L 1919 519 
Q 2491 519 2800 781 
Q 3109 1044 3109 1522 
Q 3109 1891 2904 2059 
Q 2700 2228 2247 2228 
L 1234 2228 
z
M 1606 4147 
L 1331 2741 
L 2272 2741 
Q 2775 2741 3058 2959 
Q 3341 3178 3341 3566 
Q 3341 3869 3150 4008 
Q 2959 4147 2541 4147 
L 1606 4147 
z
" transform="scale(0.015625)"/>
       <path id="DejaVuSans-Oblique-54" d="M 378 4666 
L 4325 4666 
L 4225 4134 
L 2559 4134 
L 1759 0 
L 1125 0 
L 1925 4134 
L 275 4134 
L 378 4666 
z
" transform="scale(0.015625)"/>
      </defs>
      <use xlink:href="#DejaVuSans-Oblique-6b" transform="translate(0 0.015625)"/>
      <use xlink:href="#DejaVuSans-Oblique-42" transform="translate(57.910156 -16.390625) scale(0.7)"/>
      <use xlink:href="#DejaVuSans-Oblique-54" transform="translate(108.666992 0.015625)"/>
     </g>
    </g>
   </g>
   <g id="matplotlib.axis_2">
    <g id="ytick_1">
     <g id="line2d_8">
      <defs>
       <path id="m717c9085d5" d="M 0 0 
L -3.5 0 
" style="stroke: #000000; stroke-width: 0.8"/>
      </defs>
      <g>
       <use xlink:href="#m717c9085d5" x="57.6" y="280.9728" style="stroke: #000000; stroke-width: 0.8"/>
      </g>
     </g>
     <g id="text_9">
      <!-- −4 -->
      <g transform="translate(35.857813 284.772019) scale(0.1 -0.1)">
       <use xlink:href="#DejaVuSans-2212"/>
       <use xlink:href="#DejaVuSans-34" x="83.789062"/>
      </g>
     </g>
    </g>
    <g id="ytick_2">
     <g id="line2d_9">
      <g>
       <use xlink:href="#m717c9085d5" x="57.6" y="227.7504" style="stroke: #000000; stroke-width: 0.8"/>
      </g>
     </g>
     <g id="text_10">
      <!-- −2 -->
      <g transform="translate(35.857813 231.549619) scale(0.1 -0.1)">
       <use xlink:href="#DejaVuSans-2212"/>
       <use xlink:href="#DejaVuSans-32" x="83.789062"/>
      </g>
     </g>
    </g>
    <g id="ytick_3">
     <g id="line2d_10">
      <g>
       <use xlink:href="#m717c9085d5" x="57.6" y="174.528" style="stroke: #000000; stroke-width: 0.8"/>
      </g>
     </g>
     <g id="text_11">
      <!-- 0 -->
      <g transform="translate(44.2375 178.327219) scale(0.1 -0.1)">
       <use xlink:href="#DejaVuSans-30"/>
      </g>
     </g>
    </g>
    <g id="ytick_4">
     <g id="line2d_11">
      <g>
       <use xlink:href="#m717c9085d5" x="57.6" y="121.3056" style="stroke: #000000; stroke-width: 0.8"/>
      </g>
     </g>
     <g id="text_12">
      <!-- 2 -->
      <g transform="translate(44.2375 125.104819) scale(0.1 -0.1)">
       <use xlink:href="#DejaVuSans-32"/>
      </g>
     </g>
    </g>
    <g id="ytick_5">
     <g id="line2d_12">
      <g>
       <use xlink:href="#m717c9085d5" x="57.6" y="68.0832" style="stroke: #000000; stroke-width: 0.8"/>
      </g>
     </g>
     <g id="text_13">
      <!-- 4 -->
      <g transform="translate(44.2375 71.882419) scale(0.1 -0.1)">
       <use xlink:href="#DejaVuSans-34"/>
      </g>
     </g>
    </g>
    <g id="text_14">
     <!-- $\mu$ -->
     <g transform="translate(29.757812 177.728) rotate(-90) scale(0.1 -0.1)">
      <defs>
       <path id="DejaVuSans-Oblique-3bc" d="M -84 -1331 
L 856 3500 
L 1434 3500 
L 1009 1322 
Q 997 1256 987 1175 
Q 978 1094 978 1013 
Q 978 722 1161 565 
Q 1344 409 1684 409 
Q 2147 409 2431 671 
Q 2716 934 2816 1459 
L 3213 3500 
L 3788 3500 
L 3266 809 
Q 3253 750 3248 706 
Q 3244 663 3244 628 
Q 3244 531 3283 486 
Q 3322 441 3406 441 
Q 3438 441 3492 456 
Q 3547 472 3647 513 
L 3559 50 
Q 3422 -19 3297 -55 
Q 3172 -91 3053 -91 
Q 2847 -91 2730 40 
Q 2613 172 2613 403 
Q 2438 153 2195 31 
Q 1953 -91 1625 -91 
Q 1334 -91 1117 43 
Q 900 178 831 397 
L 494 -1331 
L -84 -1331 
z
" transform="scale(0.015625)"/>
      </defs>
      <use xlink:href="#DejaVuSans-Oblique-3bc" transform="translate(0 0.3125)"/>
     </g>
    </g>
   </g>
   <g id="QuadContourSet_1">
    <path d="M 117.7152 167.839175 
L 123.776522 169.261579 
L 128.855789 171.812571 
L 129.837845 172.623054 
L 135.406298 177.243429 
L 135.899167 177.769748 
L 140.579677 182.674286 
L 141.96049 184.304204 
L 145.177129 188.105143 
L 146.535416 189.803459 
M 160.148881 208.491271 
L 161.042398 209.828571 
L 164.529084 215.259429 
L 166.20578 217.833733 
L 167.958092 220.690286 
L 171.34738 226.121143 
L 172.267102 227.609589 
L 174.538828 231.552 
L 177.828683 236.982857 
L 178.328424 237.825976 
L 180.849671 242.413714 
L 184.035093 247.844571 
L 184.389747 248.463505 
L 186.938407 253.275429 
L 190.016087 258.706286 
L 190.451069 259.487067 
L 192.842617 264.137143 
L 195.811691 269.568 
L 196.512392 270.856033 
L 198.592697 274.998857 
L 201.45439 280.429714 
L 202.573714 282.529713 
L 204.213529 285.860571 
L 206.970582 291.291429 
L 208.635037 294.470007 
L 209.725599 296.722286 
L 212.381757 302.153143 
L 214.696359 306.642519 
L 215.145841 307.584 
" clip-path="url(#p8b2770f3c4)" style="fill: none; stroke: #440154; stroke-width: 1.5"/>
    <path d="M 117.7152 154.324472 
L 123.776522 154.682955 
L 128.611589 155.52 
L 129.837845 155.777352 
L 135.899167 157.873761 
L 141.96049 160.597371 
L 142.647895 160.950857 
L 148.021812 164.231377 
L 151.368711 166.381714 
L 154.083135 168.401642 
L 158.615341 171.812571 
L 160.144457 173.109652 
L 165.035104 177.243429 
L 166.20578 178.332191 
L 170.911597 182.674286 
L 172.267102 184.023754 
L 176.399725 188.105143 
L 178.328424 190.128599 
L 181.597573 193.536 
L 184.389747 196.58999 
L 186.572893 198.966857 
L 190.451069 203.355188 
L 191.374877 204.397714 
L 196.003404 209.828571 
L 196.512392 210.449395 
L 200.446569 215.259429 
L 202.573714 217.906173 
L 204.802817 220.690286 
L 208.635037 225.541015 
L 209.091111 226.121143 
L 213.21864 231.552 
L 213.851364 232.394395 
M 227.493561 251.071568 
L 229.046759 253.275429 
L 232.880327 258.682126 
L 232.897238 258.706286 
L 236.583618 264.137143 
L 238.941649 267.573622 
L 240.289097 269.568 
L 243.937478 274.998857 
L 245.002971 276.597405 
L 247.512319 280.429714 
L 251.064294 285.773468 
L 251.121202 285.860571 
L 254.582805 291.291429 
L 257.125616 295.212609 
L 258.086179 296.722286 
L 261.513538 302.153143 
L 263.186939 304.791791 
L 264.921738 307.584 
" clip-path="url(#p8b2770f3c4)" style="fill: none; stroke: #481668; stroke-width: 1.5"/>
    <path d="M 117.7152 142.41245 
L 123.776522 142.639204 
L 129.837845 143.277885 
L 135.899167 144.394959 
L 136.912282 144.658286 
L 141.96049 146.148799 
L 148.021812 148.406108 
L 151.915543 150.089143 
L 154.083135 151.152993 
L 160.144457 154.391575 
L 162.133801 155.52 
L 166.20578 158.089283 
L 170.612617 160.950857 
L 172.267102 162.133254 
L 178.143216 166.381714 
L 178.328424 166.52742 
L 184.389747 171.325183 
L 185.003832 171.812571 
L 190.451069 176.435796 
L 191.404785 177.243429 
L 196.512392 181.830341 
L 197.456014 182.674286 
L 202.573714 187.492498 
L 203.22758 188.105143 
L 208.635037 193.404081 
L 208.77031 193.536 
L 214.09638 198.966857 
L 214.696359 199.601506 
L 219.248547 204.397714 
L 220.757682 206.037238 
L 224.258545 209.828571 
L 225.187985 210.862226 
M 240.414367 228.27157 
L 243.162496 231.552 
L 245.002971 233.78065 
L 247.644567 236.982857 
L 251.064294 241.179353 
L 252.068508 242.413714 
L 256.408757 247.844571 
L 257.125616 248.758377 
L 260.656636 253.275429 
L 263.186939 256.532584 
L 264.868964 258.706286 
L 269.041266 264.137143 
L 269.248261 264.412307 
L 273.105028 269.568 
L 275.309584 272.519873 
L 277.150239 274.998857 
L 281.170741 280.429714 
L 281.370906 280.705245 
L 285.088928 285.860571 
L 287.432229 289.103582 
L 289.00152 291.291429 
L 292.88143 296.722286 
L 293.493551 297.590097 
L 296.684533 302.153143 
L 299.554873 306.238735 
L 300.49192 307.584 
" clip-path="url(#p8b2770f3c4)" style="fill: none; stroke: #472e7c; stroke-width: 1.5"/>
    <path d="M 117.7152 123.471076 
L 123.776522 123.616484 
L 129.837845 124.012454 
L 135.899167 124.684089 
L 141.96049 125.664886 
L 148.021812 126.971148 
L 153.237297 128.365714 
L 154.083135 128.611389 
L 160.144457 130.66465 
L 166.20578 132.993025 
L 168.11608 133.796571 
L 172.267102 135.688248 
L 178.328424 138.642757 
L 179.466988 139.227429 
L 184.389747 141.947104 
L 189.127155 144.658286 
L 190.451069 145.470594 
L 196.512392 149.281228 
L 197.771555 150.089143 
L 202.573714 153.362853 
L 205.703592 155.52 
L 208.635037 157.65746 
L 213.125582 160.950857 
L 214.696359 162.164395 
L 220.142478 166.381714 
L 220.757682 166.881453 
L 226.819004 171.805275 
L 226.827965 171.812571 
L 232.880327 176.949288 
L 233.227402 177.243429 
L 238.941649 182.274317 
L 239.396994 182.674286 
L 245.002971 187.773963 
L 245.368051 188.105143 
L 251.064294 193.441237 
L 251.16576 193.536 
L 256.801967 198.966857 
L 257.125616 199.287743 
L 262.295998 204.397714 
L 263.186939 205.301049 
L 267.665726 209.828571 
L 269.248261 211.466167 
L 272.924082 215.259429 
L 275.309584 217.774359 
L 278.082296 220.690286 
L 281.370906 224.217118 
L 283.150193 226.121143 
L 287.432229 230.78624 
L 288.136429 231.552 
L 293.035433 236.982857 
L 293.493551 237.500732 
L 297.844551 242.413714 
L 299.554873 244.371597 
L 299.70213 244.54003 
M 314.761386 262.095408 
L 316.473503 264.137143 
L 317.738841 265.662458 
L 320.976938 269.568 
L 323.800163 273.001615 
L 325.441061 274.998857 
L 329.861486 280.419944 
L 329.869445 280.429714 
L 334.214641 285.860571 
L 335.922808 288.007861 
L 338.530299 291.291429 
L 341.984131 295.662997 
L 342.819424 296.722286 
L 347.054794 302.153143 
L 348.045453 303.435147 
L 351.24301 307.584 
" clip-path="url(#p8b2770f3c4)" style="fill: none; stroke: #38598c; stroke-width: 1.5"/>
    <path d="M 117.7152 80.466491 
L 123.776522 80.544157 
L 129.837845 80.752675 
L 135.899167 81.095114 
L 141.96049 81.577537 
L 148.021812 82.209366 
L 154.083135 83.00121 
L 160.144457 83.961778 
L 165.264459 84.918857 
L 166.20578 85.102173 
L 172.267102 86.457156 
L 178.328424 87.991177 
L 184.389747 89.697948 
L 186.511182 90.349714 
L 190.451069 91.615835 
L 196.512392 93.718696 
L 202.067247 95.780571 
L 202.573714 95.977298 
L 208.635037 98.459525 
L 214.696359 101.068326 
L 215.015783 101.211429 
L 220.757682 103.896381 
L 226.425961 106.642286 
L 226.819004 106.840935 
L 232.880327 109.99225 
L 236.784344 112.073143 
L 238.941649 113.269874 
L 245.002971 116.70103 
L 246.395645 117.504 
L 251.064294 120.29814 
L 255.409739 122.934857 
L 257.125616 124.014329 
L 263.186939 127.871113 
L 263.955623 128.365714 
L 269.248261 131.887184 
L 272.097207 133.796571 
L 275.309584 136.020042 
L 279.91861 139.227429 
L 281.370906 140.269825 
L 287.432229 144.637304 
L 287.461181 144.658286 
L 293.493551 149.156713 
L 294.741012 150.089143 
L 299.554873 153.787137 
L 301.807458 155.52 
L 305.616196 158.527681 
L 308.682761 160.950857 
L 311.677518 163.377234 
L 315.385644 166.381714 
L 317.738841 168.334468 
L 321.932032 171.812571 
L 323.800163 173.397853 
L 327.181095 176.264531 
M 344.562223 191.524137 
L 346.800589 193.536 
L 348.045453 194.676185 
L 352.737614 198.966857 
L 354.106776 200.241563 
L 358.578439 204.397714 
L 360.168098 205.900728 
L 364.329555 209.828571 
L 366.22942 211.651291 
L 369.996825 215.259429 
L 372.290743 217.490816 
L 375.585572 220.690286 
L 378.352065 223.416845 
L 381.100651 226.121143 
L 384.413388 229.426905 
L 386.546509 231.552 
L 390.47471 235.518524 
L 391.92723 236.982857 
L 396.536033 241.689242 
L 397.246581 242.413714 
L 402.506651 247.844571 
L 402.597355 247.939552 
L 407.700128 253.275429 
L 408.658678 254.28911 
L 412.841135 258.706286 
L 414.72 260.711983 
" clip-path="url(#p8b2770f3c4)" style="fill: none; stroke: #48c16e; stroke-width: 1.5"/>
    <path d="M 117.7152 56.807505 
L 123.776522 56.868496 
L 129.837845 57.031939 
L 135.899167 57.299251 
L 141.96049 57.673061 
L 143.107091 57.764571 
L 148.021812 58.167198 
L 154.083135 58.783496 
L 160.144457 59.526791 
L 166.20578 60.403421 
L 172.267102 61.418035 
L 178.328424 62.573144 
L 181.247913 63.195429 
L 184.389747 63.888076 
L 190.451069 65.364409 
L 196.512392 66.981415 
L 202.202305 68.626286 
L 202.573714 68.737593 
L 208.635037 70.677941 
L 214.696359 72.745584 
L 218.337568 74.057143 
L 220.757682 74.960947 
L 226.819004 77.333107 
L 232.090472 79.488 
L 232.880327 79.822623 
L 238.941649 82.483313 
L 244.306004 84.918857 
L 245.002971 85.246479 
L 251.064294 88.175571 
L 255.449618 90.349714 
L 257.125616 91.208828 
L 263.186939 94.383645 
L 265.802318 95.780571 
L 269.248261 97.680587 
L 275.309584 101.077319 
L 275.545177 101.211429 
L 281.370906 104.629175 
L 284.760878 106.642286 
L 287.432229 108.276014 
L 293.493551 112.020246 
L 293.57826 112.073143 
L 299.554873 115.910136 
L 302.019177 117.504 
L 305.616196 119.893979 
L 310.165737 122.934857 
L 311.677518 123.972049 
L 317.738841 128.151469 
L 318.047714 128.365714 
L 323.800163 132.454821 
L 325.681413 133.796571 
L 329.861486 136.849425 
L 333.109419 139.227429 
L 335.922808 141.335013 
L 338.232963 143.068691 
M 356.499708 157.255917 
L 360.168098 160.200545 
L 361.102644 160.950857 
L 366.22942 165.147259 
L 367.737773 166.381714 
L 372.290743 170.177979 
L 374.251979 171.812571 
L 378.352065 175.291679 
L 380.653675 177.243429 
L 384.413388 180.487249 
L 386.950375 182.674286 
L 390.47471 185.763502 
L 393.148823 188.105143 
L 396.536033 191.119179 
L 399.255106 193.536 
L 402.597355 196.552961 
L 405.27474 198.966857 
L 408.658678 202.063478 
L 411.212747 204.397714 
L 414.72 207.649311 
" clip-path="url(#p8b2770f3c4)" style="fill: none; stroke: #fde725; stroke-width: 1.5"/>
   </g>
   <g id="line2d_13">
    <defs>
     <path id="mfad7e584c0" d="M 0 -5 
L -1.12257 -1.545085 
L -4.755283 -1.545085 
L -1.816356 0.59017 
L -2.938926 4.045085 
L -0 1.90983 
L 2.938926 4.045085 
L 1.816356 0.59017 
L 4.755283 -1.545085 
L 1.12257 -1.545085 
z
" style="stroke: #ff0000; stroke-linejoin: bevel"/>
    </defs>
    <g clip-path="url(#p8b2770f3c4)">
     <use xlink:href="#mfad7e584c0" x="117.12" y="167.596585" style="fill: #ff0000; stroke: #ff0000; stroke-linejoin: bevel"/>
     <use xlink:href="#mfad7e584c0" x="117.12" y="154.260418" style="fill: #ff0000; stroke: #ff0000; stroke-linejoin: bevel"/>
     <use xlink:href="#mfad7e584c0" x="117.12" y="142.35522" style="fill: #ff0000; stroke: #ff0000; stroke-linejoin: bevel"/>
     <use xlink:href="#mfad7e584c0" x="117.12" y="123.456895" style="fill: #ff0000; stroke: #ff0000; stroke-linejoin: bevel"/>
     <use xlink:href="#mfad7e584c0" x="117.12" y="80.45422" style="fill: #ff0000; stroke: #ff0000; stroke-linejoin: bevel"/>
     <use xlink:href="#mfad7e584c0" x="117.12" y="56.797962" style="fill: #ff0000; stroke: #ff0000; stroke-linejoin: bevel"/>
    </g>
   </g>
   <g id="line2d_14">
    <path d="M 57.6 174.528 
L 414.72 174.528 
" clip-path="url(#p8b2770f3c4)" style="fill: none; stroke: #000000; stroke-linecap: square"/>
   </g>
   <g id="line2d_15">
    <path d="M 117.12 307.584 
L 117.12 41.472 
" clip-path="url(#p8b2770f3c4)" style="fill: none; stroke: #000000; stroke-linecap: square"/>
   </g>
   <g id="patch_3">
    <path d="M 57.6 307.584 
L 57.6 41.472 
" style="fill: none; stroke: #000000; stroke-width: 0.8; stroke-linejoin: miter; stroke-linecap: square"/>
   </g>
   <g id="patch_4">
    <path d="M 414.72 307.584 
L 414.72 41.472 
" style="fill: none; stroke: #000000; stroke-width: 0.8; stroke-linejoin: miter; stroke-linecap: square"/>
   </g>
   <g id="patch_5">
    <path d="M 57.6 307.584 
L 414.72 307.584 
" style="fill: none; stroke: #000000; stroke-width: 0.8; stroke-linejoin: miter; stroke-linecap: square"/>
   </g>
   <g id="patch_6">
    <path d="M 57.6 41.472 
L 414.72 41.472 
" style="fill: none; stroke: #000000; stroke-width: 0.8; stroke-linejoin: miter; stroke-linecap: square"/>
   </g>
   <g id="text_15">
    <!-- contour plot of $n(T, \mu)/\left(\frac{m}{2\pi\hbar^2}\right)^{3/2}$ for free Fermion -->
    <g transform="translate(95.22 35.232) scale(0.12 -0.12)">
     <defs>
      <path id="DejaVuSans-63" d="M 3122 3366 
L 3122 2828 
Q 2878 2963 2633 3030 
Q 2388 3097 2138 3097 
Q 1578 3097 1268 2742 
Q 959 2388 959 1747 
Q 959 1106 1268 751 
Q 1578 397 2138 397 
Q 2388 397 2633 464 
Q 2878 531 3122 666 
L 3122 134 
Q 2881 22 2623 -34 
Q 2366 -91 2075 -91 
Q 1284 -91 818 406 
Q 353 903 353 1747 
Q 353 2603 823 3093 
Q 1294 3584 2113 3584 
Q 2378 3584 2631 3529 
Q 2884 3475 3122 3366 
z
" transform="scale(0.015625)"/>
      <path id="DejaVuSans-6f" d="M 1959 3097 
Q 1497 3097 1228 2736 
Q 959 2375 959 1747 
Q 959 1119 1226 758 
Q 1494 397 1959 397 
Q 2419 397 2687 759 
Q 2956 1122 2956 1747 
Q 2956 2369 2687 2733 
Q 2419 3097 1959 3097 
z
M 1959 3584 
Q 2709 3584 3137 3096 
Q 3566 2609 3566 1747 
Q 3566 888 3137 398 
Q 2709 -91 1959 -91 
Q 1206 -91 779 398 
Q 353 888 353 1747 
Q 353 2609 779 3096 
Q 1206 3584 1959 3584 
z
" transform="scale(0.015625)"/>
      <path id="DejaVuSans-6e" d="M 3513 2113 
L 3513 0 
L 2938 0 
L 2938 2094 
Q 2938 2591 2744 2837 
Q 2550 3084 2163 3084 
Q 1697 3084 1428 2787 
Q 1159 2491 1159 1978 
L 1159 0 
L 581 0 
L 581 3500 
L 1159 3500 
L 1159 2956 
Q 1366 3272 1645 3428 
Q 1925 3584 2291 3584 
Q 2894 3584 3203 3211 
Q 3513 2838 3513 2113 
z
" transform="scale(0.015625)"/>
      <path id="DejaVuSans-74" d="M 1172 4494 
L 1172 3500 
L 2356 3500 
L 2356 3053 
L 1172 3053 
L 1172 1153 
Q 1172 725 1289 603 
Q 1406 481 1766 481 
L 2356 481 
L 2356 0 
L 1766 0 
Q 1100 0 847 248 
Q 594 497 594 1153 
L 594 3053 
L 172 3053 
L 172 3500 
L 594 3500 
L 594 4494 
L 1172 4494 
z
" transform="scale(0.015625)"/>
      <path id="DejaVuSans-75" d="M 544 1381 
L 544 3500 
L 1119 3500 
L 1119 1403 
Q 1119 906 1312 657 
Q 1506 409 1894 409 
Q 2359 409 2629 706 
Q 2900 1003 2900 1516 
L 2900 3500 
L 3475 3500 
L 3475 0 
L 2900 0 
L 2900 538 
Q 2691 219 2414 64 
Q 2138 -91 1772 -91 
Q 1169 -91 856 284 
Q 544 659 544 1381 
z
M 1991 3584 
L 1991 3584 
z
" transform="scale(0.015625)"/>
      <path id="DejaVuSans-72" d="M 2631 2963 
Q 2534 3019 2420 3045 
Q 2306 3072 2169 3072 
Q 1681 3072 1420 2755 
Q 1159 2438 1159 1844 
L 1159 0 
L 581 0 
L 581 3500 
L 1159 3500 
L 1159 2956 
Q 1341 3275 1631 3429 
Q 1922 3584 2338 3584 
Q 2397 3584 2469 3576 
Q 2541 3569 2628 3553 
L 2631 2963 
z
" transform="scale(0.015625)"/>
      <path id="DejaVuSans-20" transform="scale(0.015625)"/>
      <path id="DejaVuSans-70" d="M 1159 525 
L 1159 -1331 
L 581 -1331 
L 581 3500 
L 1159 3500 
L 1159 2969 
Q 1341 3281 1617 3432 
Q 1894 3584 2278 3584 
Q 2916 3584 3314 3078 
Q 3713 2572 3713 1747 
Q 3713 922 3314 415 
Q 2916 -91 2278 -91 
Q 1894 -91 1617 61 
Q 1341 213 1159 525 
z
M 3116 1747 
Q 3116 2381 2855 2742 
Q 2594 3103 2138 3103 
Q 1681 3103 1420 2742 
Q 1159 2381 1159 1747 
Q 1159 1113 1420 752 
Q 1681 391 2138 391 
Q 2594 391 2855 752 
Q 3116 1113 3116 1747 
z
" transform="scale(0.015625)"/>
      <path id="DejaVuSans-6c" d="M 603 4863 
L 1178 4863 
L 1178 0 
L 603 0 
L 603 4863 
z
" transform="scale(0.015625)"/>
      <path id="DejaVuSans-66" d="M 2375 4863 
L 2375 4384 
L 1825 4384 
Q 1516 4384 1395 4259 
Q 1275 4134 1275 3809 
L 1275 3500 
L 2222 3500 
L 2222 3053 
L 1275 3053 
L 1275 0 
L 697 0 
L 697 3053 
L 147 3053 
L 147 3500 
L 697 3500 
L 697 3744 
Q 697 4328 969 4595 
Q 1241 4863 1831 4863 
L 2375 4863 
z
" transform="scale(0.015625)"/>
      <path id="DejaVuSans-Oblique-6e" d="M 3566 2113 
L 3156 0 
L 2578 0 
L 2988 2091 
Q 3016 2238 3031 2350 
Q 3047 2463 3047 2528 
Q 3047 2791 2881 2937 
Q 2716 3084 2419 3084 
Q 1956 3084 1622 2776 
Q 1288 2469 1184 1941 
L 800 0 
L 225 0 
L 903 3500 
L 1478 3500 
L 1363 2950 
Q 1603 3253 1940 3418 
Q 2278 3584 2650 3584 
Q 3113 3584 3367 3334 
Q 3622 3084 3622 2631 
Q 3622 2519 3608 2391 
Q 3594 2263 3566 2113 
z
" transform="scale(0.015625)"/>
      <path id="DejaVuSans-28" d="M 1984 4856 
Q 1566 4138 1362 3434 
Q 1159 2731 1159 2009 
Q 1159 1288 1364 580 
Q 1569 -128 1984 -844 
L 1484 -844 
Q 1016 -109 783 600 
Q 550 1309 550 2009 
Q 550 2706 781 3412 
Q 1013 4119 1484 4856 
L 1984 4856 
z
" transform="scale(0.015625)"/>
      <path id="DejaVuSans-2c" d="M 750 794 
L 1409 794 
L 1409 256 
L 897 -744 
L 494 -744 
L 750 256 
L 750 794 
z
" transform="scale(0.015625)"/>
      <path id="DejaVuSans-29" d="M 513 4856 
L 1013 4856 
Q 1481 4119 1714 3412 
Q 1947 2706 1947 2009 
Q 1947 1309 1714 600 
Q 1481 -109 1013 -844 
L 513 -844 
Q 928 -128 1133 580 
Q 1338 1288 1338 2009 
Q 1338 2731 1133 3434 
Q 928 4138 513 4856 
z
" transform="scale(0.015625)"/>
      <path id="DejaVuSans-2f" d="M 1625 4666 
L 2156 4666 
L 531 -594 
L 0 -594 
L 1625 4666 
z
" transform="scale(0.015625)"/>
      <path id="STIXSizeTwoSym-Regular-28" d="M 3219 -1555 
L 3219 -1786 
Q 2144 -774 1517 730 
Q 890 2234 890 4115 
Q 890 6003 1533 7593 
Q 2176 9184 3219 10022 
L 3219 9811 
Q 2490 9062 1994 7606 
Q 1498 6150 1498 4115 
Q 1498 563 3219 -1555 
z
" transform="scale(0.015625)"/>
      <path id="DejaVuSans-Oblique-6d" d="M 5747 2113 
L 5338 0 
L 4763 0 
L 5166 2094 
Q 5191 2228 5203 2325 
Q 5216 2422 5216 2491 
Q 5216 2772 5059 2928 
Q 4903 3084 4622 3084 
Q 4203 3084 3875 2770 
Q 3547 2456 3450 1953 
L 3066 0 
L 2491 0 
L 2900 2094 
Q 2925 2209 2937 2307 
Q 2950 2406 2950 2484 
Q 2950 2769 2794 2926 
Q 2638 3084 2363 3084 
Q 1938 3084 1609 2770 
Q 1281 2456 1184 1953 
L 800 0 
L 225 0 
L 909 3500 
L 1484 3500 
L 1375 2956 
Q 1609 3263 1923 3423 
Q 2238 3584 2597 3584 
Q 2978 3584 3223 3384 
Q 3469 3184 3519 2828 
Q 3781 3197 4126 3390 
Q 4472 3584 4856 3584 
Q 5306 3584 5551 3325 
Q 5797 3066 5797 2591 
Q 5797 2488 5784 2364 
Q 5772 2241 5747 2113 
z
" transform="scale(0.015625)"/>
      <path id="DejaVuSans-Oblique-3c0" d="M 584 3500 
L 3938 3500 
L 3825 2925 
L 3384 2925 
L 2966 775 
Q 2922 550 2981 450 
Q 3038 353 3209 353 
Q 3256 353 3325 363 
Q 3397 369 3419 372 
L 3338 -44 
Q 3222 -84 3103 -103 
Q 2981 -122 2866 -122 
Q 2491 -122 2388 81 
Q 2284 288 2391 838 
L 2797 2925 
L 1506 2925 
L 938 0 
L 350 0 
L 919 2925 
L 472 2925 
L 584 3500 
z
" transform="scale(0.015625)"/>
      <path id="DejaVuSans-Oblique-127" d="M 3634 2113 
L 3225 0 
L 2650 0 
L 3056 2094 
Q 3094 2291 3094 2450 
Q 3094 2688 3006 2838 
Q 2863 3084 2475 3084 
Q 2009 3084 1681 2788 
Q 1356 2491 1256 1978 
L 872 0 
L 294 0 
L 1066 3969 
L 675 3969 
L 775 4481 
L 1166 4481 
L 1238 4863 
L 1816 4863 
L 1744 4481 
L 2844 4481 
L 2744 3969 
L 1644 3969 
L 1447 2956 
Q 1713 3272 2025 3428 
Q 2331 3584 2700 3584 
Q 3300 3584 3538 3213 
Q 3688 2975 3688 2606 
Q 3688 2381 3634 2113 
z
" transform="scale(0.015625)"/>
      <path id="STIXSizeTwoSym-Regular-29" d="M 730 9792 
L 730 10022 
Q 1805 9011 2432 7507 
Q 3059 6003 3059 4115 
Q 3059 2234 2416 643 
Q 1773 -947 730 -1786 
L 730 -1574 
Q 1459 -826 1955 633 
Q 2451 2093 2451 4115 
Q 2451 7674 730 9792 
z
" transform="scale(0.015625)"/>
      <path id="DejaVuSans-65" d="M 3597 1894 
L 3597 1613 
L 953 1613 
Q 991 1019 1311 708 
Q 1631 397 2203 397 
Q 2534 397 2845 478 
Q 3156 559 3463 722 
L 3463 178 
Q 3153 47 2828 -22 
Q 2503 -91 2169 -91 
Q 1331 -91 842 396 
Q 353 884 353 1716 
Q 353 2575 817 3079 
Q 1281 3584 2069 3584 
Q 2775 3584 3186 3129 
Q 3597 2675 3597 1894 
z
M 3022 2063 
Q 3016 2534 2758 2815 
Q 2500 3097 2075 3097 
Q 1594 3097 1305 2825 
Q 1016 2553 972 2059 
L 3022 2063 
z
" transform="scale(0.015625)"/>
      <path id="DejaVuSans-46" d="M 628 4666 
L 3309 4666 
L 3309 4134 
L 1259 4134 
L 1259 2759 
L 3109 2759 
L 3109 2228 
L 1259 2228 
L 1259 0 
L 628 0 
L 628 4666 
z
" transform="scale(0.015625)"/>
      <path id="DejaVuSans-6d" d="M 3328 2828 
Q 3544 3216 3844 3400 
Q 4144 3584 4550 3584 
Q 5097 3584 5394 3201 
Q 5691 2819 5691 2113 
L 5691 0 
L 5113 0 
L 5113 2094 
Q 5113 2597 4934 2840 
Q 4756 3084 4391 3084 
Q 3944 3084 3684 2787 
Q 3425 2491 3425 1978 
L 3425 0 
L 2847 0 
L 2847 2094 
Q 2847 2600 2669 2842 
Q 2491 3084 2119 3084 
Q 1678 3084 1418 2786 
Q 1159 2488 1159 1978 
L 1159 0 
L 581 0 
L 581 3500 
L 1159 3500 
L 1159 2956 
Q 1356 3278 1631 3431 
Q 1906 3584 2284 3584 
Q 2666 3584 2933 3390 
Q 3200 3197 3328 2828 
z
" transform="scale(0.015625)"/>
      <path id="DejaVuSans-69" d="M 603 3500 
L 1178 3500 
L 1178 0 
L 603 0 
L 603 3500 
z
M 603 4863 
L 1178 4863 
L 1178 4134 
L 603 4134 
L 603 4863 
z
" transform="scale(0.015625)"/>
     </defs>
     <use xlink:href="#DejaVuSans-63" transform="translate(0 0.765625)"/>
     <use xlink:href="#DejaVuSans-6f" transform="translate(54.980469 0.765625)"/>
     <use xlink:href="#DejaVuSans-6e" transform="translate(116.162109 0.765625)"/>
     <use xlink:href="#DejaVuSans-74" transform="translate(179.541016 0.765625)"/>
     <use xlink:href="#DejaVuSans-6f" transform="translate(218.75 0.765625)"/>
     <use xlink:href="#DejaVuSans-75" transform="translate(279.931641 0.765625)"/>
     <use xlink:href="#DejaVuSans-72" transform="translate(343.310547 0.765625)"/>
     <use xlink:href="#DejaVuSans-20" transform="translate(384.423828 0.765625)"/>
     <use xlink:href="#DejaVuSans-70" transform="translate(416.210938 0.765625)"/>
     <use xlink:href="#DejaVuSans-6c" transform="translate(479.6875 0.765625)"/>
     <use xlink:href="#DejaVuSans-6f" transform="translate(507.470703 0.765625)"/>
     <use xlink:href="#DejaVuSans-74" transform="translate(568.652344 0.765625)"/>
     <use xlink:href="#DejaVuSans-20" transform="translate(607.861328 0.765625)"/>
     <use xlink:href="#DejaVuSans-6f" transform="translate(639.648438 0.765625)"/>
     <use xlink:href="#DejaVuSans-66" transform="translate(700.830078 0.765625)"/>
     <use xlink:href="#DejaVuSans-20" transform="translate(736.035156 0.765625)"/>
     <use xlink:href="#DejaVuSans-Oblique-6e" transform="translate(767.822266 0.765625)"/>
     <use xlink:href="#DejaVuSans-28" transform="translate(831.201172 0.765625)"/>
     <use xlink:href="#DejaVuSans-Oblique-54" transform="translate(870.214844 0.765625)"/>
     <use xlink:href="#DejaVuSans-2c" transform="translate(931.298828 0.765625)"/>
     <use xlink:href="#DejaVuSans-Oblique-3bc" transform="translate(982.568359 0.765625)"/>
     <use xlink:href="#DejaVuSans-29" transform="translate(1046.191406 0.765625)"/>
     <use xlink:href="#DejaVuSans-2f" transform="translate(1085.205078 0.765625)"/>
     <use xlink:href="#STIXSizeTwoSym-Regular-28" transform="translate(1118.896484 -30.779687) scale(0.731428)"/>
     <use xlink:href="#DejaVuSans-Oblique-6d" transform="translate(1214.976303 44.5625) scale(0.7)"/>
     <use xlink:href="#DejaVuSans-32" transform="translate(1161.976303 -49.851562) scale(0.7)"/>
     <use xlink:href="#DejaVuSans-Oblique-3c0" transform="translate(1206.512436 -49.851562) scale(0.7)"/>
     <use xlink:href="#DejaVuSans-Oblique-127" transform="translate(1248.655991 -49.851562) scale(0.7)"/>
     <use xlink:href="#DejaVuSans-32" transform="translate(1302.507082 -23.054688) scale(0.49)"/>
     <use xlink:href="#STIXSizeTwoSym-Regular-29" transform="translate(1348.096437 -30.779687) scale(0.731428)"/>
     <use xlink:href="#DejaVuSans-33" transform="translate(1393.522966 39.046875) scale(0.7)"/>
     <use xlink:href="#DejaVuSans-2f" transform="translate(1438.059099 39.046875) scale(0.7)"/>
     <use xlink:href="#DejaVuSans-32" transform="translate(1459.105583 39.046875) scale(0.7)"/>
     <use xlink:href="#DejaVuSans-20" transform="translate(1506.376091 0.765625)"/>
     <use xlink:href="#DejaVuSans-66" transform="translate(1538.163201 0.765625)"/>
     <use xlink:href="#DejaVuSans-6f" transform="translate(1573.368279 0.765625)"/>
     <use xlink:href="#DejaVuSans-72" transform="translate(1634.549919 0.765625)"/>
     <use xlink:href="#DejaVuSans-20" transform="translate(1675.663201 0.765625)"/>
     <use xlink:href="#DejaVuSans-66" transform="translate(1707.45031 0.765625)"/>
     <use xlink:href="#DejaVuSans-72" transform="translate(1742.655388 0.765625)"/>
     <use xlink:href="#DejaVuSans-65" transform="translate(1783.768669 0.765625)"/>
     <use xlink:href="#DejaVuSans-65" transform="translate(1845.292107 0.765625)"/>
     <use xlink:href="#DejaVuSans-20" transform="translate(1906.815544 0.765625)"/>
     <use xlink:href="#DejaVuSans-46" transform="translate(1938.602654 0.765625)"/>
     <use xlink:href="#DejaVuSans-65" transform="translate(1996.122185 0.765625)"/>
     <use xlink:href="#DejaVuSans-72" transform="translate(2057.645622 0.765625)"/>
     <use xlink:href="#DejaVuSans-6d" transform="translate(2098.758904 0.765625)"/>
     <use xlink:href="#DejaVuSans-69" transform="translate(2196.171013 0.765625)"/>
     <use xlink:href="#DejaVuSans-6f" transform="translate(2223.954216 0.765625)"/>
     <use xlink:href="#DejaVuSans-6e" transform="translate(2285.135857 0.765625)"/>
     <path d="M 1161.976303 19.5625 
L 1161.976303 25.8125 
L 1335.596437 25.8125 
L 1335.596437 19.5625 
L 1161.976303 19.5625 
z
"/>
    </g>
   </g>
   <g id="text_16">
    <g clip-path="url(#p8b2770f3c4)">
     <!-- 0.1 -->
     <g style="fill: #440154" transform="translate(146.701856 194.129196) rotate(-305.778758) scale(0.1 -0.1)">
      <defs>
       <path id="DejaVuSans-2e" d="M 684 794 
L 1344 794 
L 1344 0 
L 684 0 
L 684 794 
z
" transform="scale(0.015625)"/>
      </defs>
      <use xlink:href="#DejaVuSans-30"/>
      <use xlink:href="#DejaVuSans-2e" x="63.623047"/>
      <use xlink:href="#DejaVuSans-31" x="95.410156"/>
     </g>
    </g>
   </g>
   <g id="text_17">
    <g clip-path="url(#p8b2770f3c4)">
     <!-- 0.5 -->
     <g style="fill: #481668" transform="translate(213.837014 236.880614) rotate(-306.172762) scale(0.1 -0.1)">
      <use xlink:href="#DejaVuSans-30"/>
      <use xlink:href="#DejaVuSans-2e" x="63.623047"/>
      <use xlink:href="#DejaVuSans-35" x="95.410156"/>
     </g>
    </g>
   </g>
   <g id="text_18">
    <g clip-path="url(#p8b2770f3c4)">
     <!-- 1.0 -->
     <g style="fill: #472e7c" transform="translate(225.564672 215.335742) rotate(-311.225449) scale(0.1 -0.1)">
      <use xlink:href="#DejaVuSans-31"/>
      <use xlink:href="#DejaVuSans-2e" x="63.623047"/>
      <use xlink:href="#DejaVuSans-30" x="95.410156"/>
     </g>
    </g>
   </g>
   <g id="text_19">
    <g clip-path="url(#p8b2770f3c4)">
     <!-- 2.0 -->
     <g style="fill: #38598c" transform="translate(300.007864 249.039691) rotate(-310.646692) scale(0.1 -0.1)">
      <use xlink:href="#DejaVuSans-32"/>
      <use xlink:href="#DejaVuSans-2e" x="63.623047"/>
      <use xlink:href="#DejaVuSans-30" x="95.410156"/>
     </g>
    </g>
   </g>
   <g id="text_20">
    <g clip-path="url(#p8b2770f3c4)">
     <!-- 5.0 -->
     <g style="fill: #48c16e" transform="translate(328.12636 180.664777) rotate(-318.727663) scale(0.1 -0.1)">
      <use xlink:href="#DejaVuSans-35"/>
      <use xlink:href="#DejaVuSans-2e" x="63.623047"/>
      <use xlink:href="#DejaVuSans-30" x="95.410156"/>
     </g>
    </g>
   </g>
   <g id="text_21">
    <g clip-path="url(#p8b2770f3c4)">
     <!-- 7.0 -->
     <g style="fill: #fde725" transform="translate(339.450649 147.390867) rotate(-322.163774) scale(0.1 -0.1)">
      <defs>
       <path id="DejaVuSans-37" d="M 525 4666 
L 3525 4666 
L 3525 4397 
L 1831 0 
L 1172 0 
L 2766 4134 
L 525 4134 
L 525 4666 
z
" transform="scale(0.015625)"/>
      </defs>
      <use xlink:href="#DejaVuSans-37"/>
      <use xlink:href="#DejaVuSans-2e" x="63.623047"/>
      <use xlink:href="#DejaVuSans-30" x="95.410156"/>
     </g>
    </g>
   </g>
   <g id="legend_1">
    <g id="line2d_16">
     <g>
      <use xlink:href="#mfad7e584c0" x="377.02" y="54.570438" style="fill: #ff0000; stroke: #ff0000; stroke-linejoin: bevel"/>
     </g>
    </g>
    <g id="text_22">
     <!-- $E_F$ -->
     <g transform="translate(395.02 58.070438) scale(0.1 -0.1)">
      <defs>
       <path id="DejaVuSans-Oblique-45" d="M 1081 4666 
L 4031 4666 
L 3928 4134 
L 1606 4134 
L 1338 2753 
L 3566 2753 
L 3463 2222 
L 1234 2222 
L 909 531 
L 3284 531 
L 3181 0 
L 172 0 
L 1081 4666 
z
" transform="scale(0.015625)"/>
       <path id="DejaVuSans-Oblique-46" d="M 1081 4666 
L 3756 4666 
L 3653 4134 
L 1606 4134 
L 1338 2759 
L 3188 2759 
L 3084 2228 
L 1234 2228 
L 800 0 
L 172 0 
L 1081 4666 
z
" transform="scale(0.015625)"/>
      </defs>
      <use xlink:href="#DejaVuSans-Oblique-45" transform="translate(0 0.09375)"/>
      <use xlink:href="#DejaVuSans-Oblique-46" transform="translate(63.183594 -16.3125) scale(0.7)"/>
     </g>
    </g>
   </g>
  </g>
 </g>
 <defs>
  <clipPath id="p8b2770f3c4">
   <rect x="57.6" y="41.472" width="357.12" height="266.112"/>
  </clipPath>
 </defs>
</svg>
