<?xml version="1.0" encoding="UTF-8"?>
<svg version="1.1" xmlns="http://www.w3.org/2000/svg" xmlns:xlink="http://www.w3.org/1999/xlink" width="550" height="346" viewBox="0 0 550 346" style="overflow:visible;enable-background:new 0 0 550 346;">
<g id="Layer_2">
	<line style="fill:none;stroke:#000000;" x1="57.5" y1="8.7" x2="57.5" y2="272.7"/>
	<line style="fill:none;stroke:#000000;" x1="57.5" y1="272.7" x2="536.5" y2="272.7"/>
	<line style="fill:none;stroke:#000000;stroke-width:0.75;" x1="66.5" y1="272.7" x2="66.5" y2="280.7"/>
	<line style="fill:none;stroke:#000000;stroke-width:0.75;" x1="118.9" y1="272.7" x2="118.9" y2="280.7"/>
	<line style="fill:none;stroke:#000000;stroke-width:0.75;" x1="186.9" y1="272.7" x2="186.9" y2="280.7"/>
	<line style="fill:none;stroke:#000000;stroke-width:0.75;" x1="226.2" y1="272.7" x2="226.2" y2="280.7"/>
	<line style="fill:none;stroke:#000000;stroke-width:0.75;" x1="244.9" y1="272.7" x2="244.9" y2="280.7"/>
	<line style="fill:none;stroke:#000000;stroke-width:0.75;" x1="279.5" y1="272.7" x2="279.5" y2="280.7"/>
	<line style="fill:none;stroke:#000000;stroke-width:0.75;" x1="312.2" y1="272.7" x2="312.2" y2="280.7"/>
	<line style="fill:none;stroke:#000000;stroke-width:0.75;" x1="354.2" y1="272.7" x2="354.2" y2="280.7"/>
	<line style="fill:none;stroke:#000000;stroke-width:0.75;" x1="381.5" y1="272.7" x2="381.5" y2="280.7"/>
	<line style="fill:none;stroke:#000000;stroke-width:0.75;" x1="405.5" y1="272.7" x2="405.5" y2="280.7"/>
	<line style="fill:none;stroke:#000000;stroke-width:0.75;" x1="459.5" y1="272.7" x2="459.5" y2="280.7"/>
	<line style="fill:none;stroke:#000000;stroke-width:0.75;" x1="536.9" y1="273.1" x2="536.9" y2="283.9"/>
	<line style="fill:none;stroke:#000000;stroke-width:0.75;" x1="528.9" y1="272.7" x2="528.9" y2="280.7"/>
	<line style="fill:none;stroke:#000000;stroke-width:0.75;" x1="520.2" y1="272.7" x2="520.2" y2="280.7"/>
	<line style="fill:none;stroke:#000000;stroke-width:0.75;" x1="503.5" y1="272.7" x2="503.5" y2="280.7"/>
	<line style="fill:none;stroke:#000000;stroke-width:0.75;" x1="427.5" y1="272.7" x2="427.5" y2="280.7"/>
	<line style="fill:none;stroke:#000000;stroke-width:0.75;" x1="262.9" y1="272.7" x2="262.9" y2="280.7"/>
	<line style="fill:none;stroke:#000000;stroke-width:0.75;" x1="296.2" y1="272.7" x2="296.2" y2="280.7"/>
	<line style="fill:none;stroke:#000000;stroke-width:0.75;" x1="340.9" y1="272.7" x2="340.9" y2="280.7"/>
	<line style="fill:none;stroke:#000000;stroke-width:0.75;" x1="368.2" y1="272.7" x2="368.2" y2="280.7"/>
	<line style="fill:none;stroke:#000000;stroke-width:0.75;" x1="392.9" y1="272.7" x2="392.9" y2="280.7"/>
	<line style="fill:none;stroke:#000000;stroke-width:0.75;" x1="449.5" y1="273.1" x2="449.5" y2="283.9"/>
	<line style="fill:none;stroke:#000000;stroke-width:0.75;" x1="495.5" y1="272.7" x2="495.5" y2="280.7"/>
	<line style="fill:none;stroke:#000000;stroke-width:0.75;" x1="478.9" y1="272.7" x2="478.9" y2="280.7"/>
	<line style="fill:none;stroke:#000000;stroke-width:0.75;" x1="512.9" y1="272.7" x2="512.9" y2="280.7"/>
	<line style="fill:none;stroke:#000000;stroke-width:0.75;" x1="468.9" y1="272.7" x2="468.9" y2="280.7"/>
	<line style="fill:none;stroke:#000000;stroke-width:0.75;" x1="416.9" y1="272.7" x2="416.9" y2="280.7"/>
	<line style="fill:none;stroke:#000000;stroke-width:0.75;" x1="438.2" y1="272.7" x2="438.2" y2="280.7"/>
	<line style="fill:none;stroke:#000000;stroke-width:0.75;" x1="486.9" y1="272.7" x2="486.9" y2="280.7"/>
	<line style="fill:none;stroke:#000000;stroke-width:0.75;" x1="326.2" y1="273.1" x2="326.2" y2="283.9"/>
	<line style="fill:none;stroke:#000000;stroke-width:0.75;" x1="165.5" y1="272.7" x2="165.5" y2="280.7"/>
	<line style="fill:none;stroke:#000000;stroke-width:0.75;" x1="206.9" y1="272.7" x2="206.9" y2="280.7"/>
	<line style="fill:none;stroke:#000000;stroke-width:0.75;" x1="94.9" y1="272.7" x2="94.9" y2="280.7"/>
	<line style="fill:none;stroke:#000000;stroke-width:0.75;" x1="142.9" y1="273.1" x2="142.9" y2="283.9"/>
	<line style="fill:none;stroke:#000000;stroke-width:0.75;" x1="57.5" y1="272.7" x2="46.8" y2="272.7"/>
	<line style="fill:none;stroke:#000000;stroke-width:0.75;" x1="57.5" y1="163" x2="46.8" y2="163"/>
	<line style="fill:none;stroke:#000000;stroke-width:0.75;" x1="57.5" y1="53.3" x2="46.8" y2="53.3"/>
	<text transform="matrix(1 0 0 1 132.3608 299.8862)" style="font-family:'Nimbus Roman No9 L',Times,serif; font-size:14;">400</text>
	<text transform="matrix(1 0 0 1 119.3262 315.5415)"><tspan x="0" y="0" style="font-family:'Nimbus Roman No9 L',Times,serif; font-style:italic; font-size:14;">Violet</tspan></text>
	<text transform="matrix(1 0 0 1 200.0322 315.5415)" style="font-family:'Nimbus Roman No9 L',Times,serif; font-style:italic; font-size:14;">Blue</text>
	<text transform="matrix(1 0 0 1 274.0845 315.5415)" style="font-family:'Nimbus Roman No9 L',Times,serif; font-style:italic; font-size:14;">Cyan</text>
	<text transform="matrix(1 0 0 1 341.623 315.5415)"><tspan x="0" y="0" style="font-family:'Nimbus Roman No9 L',Times,serif; font-style:italic; font-size:14;">Green</tspan></text>
	<text transform="matrix(1 0 0 1 401.1113 315.5415)"><tspan x="0" y="0" style="font-family:'Nimbus Roman No9 L',Times,serif; font-style:italic; font-size:14;">Yellow</tspan></text>
	<text transform="matrix(1 0 0 1 478.6455 315.5415)" style="font-family:'Nimbus Roman No9 L',Times,serif; font-style:italic; font-size:14;">Red</text>
	<text transform="matrix(1 0 0 1 35.7764 278.6772)" style="font-family:'Nimbus Roman No9 L',Times,serif; font-size:14;">0</text>
	<text transform="matrix(1 0 0 1 28.7764 169.0117)" style="font-family:'Nimbus Roman No9 L',Times,serif; font-size:14;">50</text>
	<text transform="matrix(1 0 0 1 21.7764 59.3457)" style="font-family:'Nimbus Roman No9 L',Times,serif; font-size:14;">100</text>
	<line style="fill:none;stroke:#000000;stroke-width:0.75;" x1="188.2" y1="38.1" x2="188.2" y2="47.9"/>
	<text transform="matrix(1 0 0 1 177.6943 35.2192)" style="font-family:'Nimbus Roman No9 L',Times,serif; font-size:14;">420</text>
	<text transform="matrix(1 0 0 1 317.8555 236.5522)" style="fill:#0000B8; font-family:'Nimbus Roman No9 L',Times,serif; font-size:18;">S</text>
	<text transform="matrix(1 0 0 1 422.1914 236.5522)" style="font-family:'Nimbus Roman No9 L',Times,serif; font-size:18;">R</text>
	<text transform="matrix(1 0 0 1 464.8584 236.5522)" style="fill:#00A400; font-family:'Nimbus Roman No9 L',Times,serif; font-size:18;">M</text>
	<text transform="matrix(1 0 0 1 499.6934 236.5522)" style="fill:#B80000; font-family:'Nimbus Roman No9 L',Times,serif; font-size:18;">L</text>
	<line style="fill:none;stroke:#000000;stroke-width:0.75;" x1="374.9" y1="38.1" x2="374.9" y2="47.9"/>
	<text transform="matrix(1 0 0 1 364.3604 35.2192)" style="font-family:'Nimbus Roman No9 L',Times,serif; font-size:14;">534</text>
	<line style="fill:none;stroke:#000000;stroke-width:0.75;" x1="326.2" y1="38.1" x2="326.2" y2="47.9"/>
	<text transform="matrix(1 0 0 1 315.6934 35.2192)" style="font-family:'Nimbus Roman No9 L',Times,serif; font-size:14;">498</text>
	<line style="fill:none;stroke:#000000;stroke-width:0.75;" x1="409.5" y1="38.1" x2="409.5" y2="47.9"/>
	<text transform="matrix(1 0 0 1 399.0293 35.2192)" style="font-family:'Nimbus Roman No9 L',Times,serif; font-size:14;">564</text>
	<text transform="matrix(1 0 0 1 315.6943 299.8862)" style="font-family:'Nimbus Roman No9 L',Times,serif; font-size:14;">500</text>
	<text transform="matrix(1 0 0 1 245.1592 336.5532)"><tspan x="0" y="0" style="font-family:'Nimbus Roman No9 L',Times,serif; font-size:17;">Wavelength (nm)</tspan></text>
	<text transform="matrix(-4.371139e-08 -1 1 -4.371139e-08 18.9473 248.9448)" style="font-family:'Nimbus Roman No9 L',Times,serif; font-size:17;">Normalized absorbance</text>
	<text transform="matrix(1 0 0 1 439.0273 299.8862)" style="font-family:'Nimbus Roman No9 L',Times,serif; font-size:14;">600</text>
	<text transform="matrix(1 0 0 1 526.3604 299.8862)" style="font-family:'Nimbus Roman No9 L',Times,serif; font-size:14;">700</text>
	<path style="fill:none;stroke:#0000B8;stroke-width:2;" d="M68,143.2c37.7-25.4,42.3-37.2,69.5-59.5c22-18,26.9-30.3,50.7-30.3c12.7,0,34.2,19.7,41.9,32.1   c12.5,20.2,18.2,45.7,29,68.7s15.5,32,25,45.5c9.8,14,13.7,20.4,26.8,32.7s40.4,27.6,57.7,36.2"/>
	<path style="fill:none;stroke:#000000;stroke-width:2;stroke-dasharray:5.54 3;" d="M144,201.7c18-2.5,45.8-3.2,65-19c31-25.5,58.2-77.1,73.5-97.5c12-16,36.2-31.8,43.7-31.8   c9,0,18.8,10.3,28.8,30.8s21.5,47,29,69s13.5,43.5,23,60.5c11.8,21.1,24,41,42.5,50"/>
	<path style="fill:none;stroke:#00A400;stroke-width:2;" d="M142.5,194.7c16,0.5,48,3.5,61,3.5c22,0,39-2.5,62.5-21.5c27.3-22.1,46.5-51.5,59-71.5s31.3-51.8,49.8-51.8   S398,76.7,402,84.7s18,49,22,62s17.5,45,21,53c6,13.5,18,47,49.5,65.5"/>
	<path style="fill:none;stroke:#B80000;stroke-width:2;" d="M144,191.7c22,3.5,46.5,12,58.5,14.5s25.5,5,38,5c19,0,36.2-7.7,64.5-36c30.5-30.5,45.5-59,53-70.5   s31.5-51.3,51.5-51.3c12,0,23,19.8,25.5,25.8s8,13.5,12.5,28s14,39.5,22,65s25,61.5,29,69.5s14.5,17,19.5,21.5"/>
	<rect style="fill:none;" width="550" height="346"/>
</g>
</svg>